<svg width="269" height="62" viewBox="0 0 269 62" fill="none" xmlns="http://www.w3.org/2000/svg">
<path fill-rule="evenodd" clip-rule="evenodd" d="M3.50457 40.5664C5.10769 42.9617 7.78701 44.6167 10.878 44.8868V44.9258H51.1797V44.8961C54.4256 44.6559 57.218 42.9755 58.7665 40.5664H3.50457ZM2.50978 38.6289H59.6839C59.9304 37.86 60.0625 37.0474 60.0625 36.207C60.0625 35.3667 59.9304 34.5541 59.6839 33.7852H2.05707C1.96831 34.3008 1.92212 34.8303 1.92212 35.3704C1.92212 36.5147 2.12949 37.612 2.50978 38.6289ZM2.61321 31.8477C3.97858 28.5103 7.2265 26.0961 11.0859 25.8379C12.2465 19.6231 18.1273 14.8945 25.2075 14.8945C31.0413 14.8945 36.0609 18.1049 38.2966 22.7117C38.7634 22.6673 39.2379 22.6445 39.7187 22.6445C44.14 22.6445 48.0291 24.5723 50.2762 27.4887C50.3091 27.4884 50.342 27.4883 50.375 27.4883C53.9607 27.4883 57.0915 29.2416 58.7665 31.8477H31H2.61321Z" fill="white"/>
<path d="M81.2225 38.2C79.8892 38.2 78.8358 37.8267 78.0625 37.08C77.2892 36.3333 76.9025 35.3067 76.9025 34V27.4C76.9025 26.0933 77.2892 25.0667 78.0625 24.32C78.8358 23.5733 79.8892 23.2 81.2225 23.2C82.5292 23.2 83.5692 23.58 84.3425 24.34C85.1158 25.0867 85.5025 26.1067 85.5025 27.4H83.7025C83.7025 26.5733 83.4825 25.94 83.0425 25.5C82.6158 25.0467 82.0092 24.82 81.2225 24.82C80.4358 24.82 79.8158 25.0467 79.3625 25.5C78.9225 25.94 78.7025 26.5733 78.7025 27.4V34C78.7025 34.8267 78.9225 35.4667 79.3625 35.92C79.8158 36.36 80.4358 36.58 81.2225 36.58C82.0092 36.58 82.6158 36.36 83.0425 35.92C83.4825 35.4667 83.7025 34.8267 83.7025 34H85.5025C85.5025 35.2933 85.1158 36.32 84.3425 37.08C83.5692 37.8267 82.5292 38.2 81.2225 38.2ZM94.6547 38C93.6814 38 92.9014 37.72 92.3147 37.16C91.7414 36.5867 91.4547 35.8333 91.4547 34.9V25.04H87.6547V23.4H93.2547V34.9C93.2547 35.3533 93.3814 35.7133 93.6347 35.98C93.888 36.2333 94.228 36.36 94.6547 36.36H98.0547V38H94.6547ZM105.047 38.16C103.727 38.16 102.674 37.7733 101.887 37C101.114 36.2267 100.727 35.1467 100.727 33.76V31.24C100.727 29.84 101.114 28.76 101.887 28C102.66 27.2267 103.714 26.84 105.047 26.84C106.38 26.84 107.434 27.2267 108.207 28C108.98 28.76 109.367 29.84 109.367 31.24V33.76C109.367 35.1467 108.974 36.2267 108.187 37C107.414 37.7733 106.367 38.16 105.047 38.16ZM105.047 36.56C105.834 36.56 106.447 36.34 106.887 35.9C107.34 35.46 107.567 34.8133 107.567 33.96V31.04C107.567 30.1867 107.34 29.54 106.887 29.1C106.447 28.66 105.834 28.44 105.047 28.44C104.274 28.44 103.66 28.66 103.207 29.1C102.754 29.54 102.527 30.1867 102.527 31.04V33.96C102.527 34.8133 102.754 35.46 103.207 35.9C103.66 36.34 104.274 36.56 105.047 36.56ZM117.019 38.2C115.752 38.2 114.739 37.8267 113.979 37.08C113.219 36.32 112.839 35.2933 112.839 34V27H114.639V34C114.639 34.8 114.852 35.44 115.279 35.92C115.706 36.3867 116.286 36.62 117.019 36.62C117.766 36.62 118.352 36.3867 118.779 35.92C119.219 35.44 119.439 34.8 119.439 34V27H121.239V34C121.239 35.2933 120.852 36.32 120.079 37.08C119.306 37.8267 118.286 38.2 117.019 38.2ZM128.391 38.2C127.298 38.2 126.418 37.8333 125.751 37.1C125.098 36.3667 124.771 35.3733 124.771 34.12V30.9C124.771 29.6333 125.098 28.6333 125.751 27.9C126.405 27.1667 127.285 26.8 128.391 26.8C129.218 26.8 129.898 27.0067 130.431 27.42C130.978 27.8333 131.305 28.3933 131.411 29.1H131.431L131.391 26.6V23.4H133.191V38H131.391V35.9H131.371C131.278 36.62 130.965 37.1867 130.431 37.6C129.898 38 129.218 38.2 128.391 38.2ZM128.991 36.64C129.738 36.64 130.325 36.4067 130.751 35.94C131.178 35.4733 131.391 34.8267 131.391 34V31C131.391 30.1733 131.178 29.5267 130.751 29.06C130.325 28.5933 129.738 28.36 128.991 28.36C128.231 28.36 127.638 28.56 127.211 28.96C126.785 29.3467 126.571 29.9933 126.571 30.9V34.1C126.571 34.9933 126.785 35.64 127.211 36.04C127.638 36.44 128.231 36.64 128.991 36.64ZM148.856 38V23.4H152.636C153.582 23.4 154.396 23.58 155.076 23.94C155.769 24.3 156.302 24.8067 156.676 25.46C157.062 26.1133 157.256 26.8867 157.256 27.78V33.6C157.256 34.4933 157.062 35.2733 156.676 35.94C156.302 36.5933 155.769 37.1 155.076 37.46C154.396 37.82 153.582 38 152.636 38H148.856ZM150.656 36.4H152.636C153.516 36.4 154.202 36.1533 154.696 35.66C155.202 35.1667 155.456 34.48 155.456 33.6V27.78C155.456 26.9133 155.202 26.2333 154.696 25.74C154.202 25.2467 153.516 25 152.636 25H150.656V36.4ZM164.048 38.2C162.914 38.2 162.014 37.8867 161.348 37.26C160.681 36.62 160.348 35.7867 160.348 34.76C160.348 34.08 160.501 33.4867 160.808 32.98C161.114 32.4733 161.541 32.08 162.088 31.8C162.634 31.5067 163.261 31.36 163.968 31.36H167.368V30.5C167.368 29.0733 166.588 28.36 165.028 28.36C164.334 28.36 163.774 28.4867 163.348 28.74C162.921 28.9933 162.694 29.3467 162.668 29.8H160.868C160.934 28.9333 161.334 28.22 162.068 27.66C162.814 27.0867 163.801 26.8 165.028 26.8C166.361 26.8 167.381 27.12 168.088 27.76C168.808 28.4 169.168 29.2933 169.168 30.44V38H167.388V36H167.348C167.241 36.68 166.901 37.22 166.328 37.62C165.754 38.0067 164.994 38.2 164.048 38.2ZM164.488 36.68C165.368 36.68 166.068 36.4667 166.588 36.04C167.108 35.6133 167.368 35.0333 167.368 34.3V32.76H164.168C163.581 32.76 163.101 32.94 162.728 33.3C162.368 33.6467 162.188 34.1133 162.188 34.7C162.188 35.3133 162.388 35.8 162.788 36.16C163.201 36.5067 163.768 36.68 164.488 36.68ZM178.1 38C177.193 38 176.467 37.74 175.92 37.22C175.373 36.6867 175.1 35.98 175.1 35.1V28.64H171.94V27H175.1V23.9H176.9V27H181.4V28.64H176.9V35.1C176.9 35.4733 177.007 35.78 177.22 36.02C177.447 36.2467 177.74 36.36 178.1 36.36H181.3V38H178.1ZM188.032 38.2C186.899 38.2 185.999 37.8867 185.332 37.26C184.666 36.62 184.332 35.7867 184.332 34.76C184.332 34.08 184.486 33.4867 184.792 32.98C185.099 32.4733 185.526 32.08 186.072 31.8C186.619 31.5067 187.246 31.36 187.952 31.36H191.352V30.5C191.352 29.0733 190.572 28.36 189.012 28.36C188.319 28.36 187.759 28.4867 187.332 28.74C186.906 28.9933 186.679 29.3467 186.652 29.8H184.852C184.919 28.9333 185.319 28.22 186.052 27.66C186.799 27.0867 187.786 26.8 189.012 26.8C190.346 26.8 191.366 27.12 192.072 27.76C192.792 28.4 193.152 29.2933 193.152 30.44V38H191.372V36H191.332C191.226 36.68 190.886 37.22 190.312 37.62C189.739 38.0067 188.979 38.2 188.032 38.2ZM188.472 36.68C189.352 36.68 190.052 36.4667 190.572 36.04C191.092 35.6133 191.352 35.0333 191.352 34.3V32.76H188.152C187.566 32.76 187.086 32.94 186.712 33.3C186.352 33.6467 186.172 34.1133 186.172 34.7C186.172 35.3133 186.372 35.8 186.772 36.16C187.186 36.5067 187.752 36.68 188.472 36.68ZM213.057 38.2C211.643 38.2 210.517 37.8267 209.677 37.08C208.837 36.3333 208.417 35.3067 208.417 34H210.217C210.217 34.8133 210.477 35.4533 210.997 35.92C211.517 36.3733 212.203 36.6 213.057 36.6C213.883 36.6 214.543 36.36 215.037 35.88C215.53 35.4 215.777 34.7733 215.777 34C215.777 33.4133 215.617 32.9067 215.297 32.48C214.99 32.04 214.543 31.74 213.957 31.58L211.737 30.96C210.817 30.6933 210.09 30.22 209.557 29.54C209.037 28.8467 208.777 28.0333 208.777 27.1C208.777 26.3267 208.95 25.6467 209.297 25.06C209.643 24.4733 210.13 24.02 210.757 23.7C211.383 23.3667 212.103 23.2 212.917 23.2C213.743 23.2 214.47 23.3667 215.097 23.7C215.737 24.02 216.237 24.4733 216.597 25.06C216.957 25.6333 217.137 26.3 217.137 27.06H215.337C215.337 26.3933 215.11 25.8533 214.657 25.44C214.203 25.0133 213.623 24.8 212.917 24.8C212.21 24.8 211.637 25.0133 211.197 25.44C210.757 25.8533 210.537 26.3933 210.537 27.06C210.537 27.5933 210.677 28.0533 210.957 28.44C211.25 28.8133 211.657 29.0733 212.177 29.22L214.457 29.86C215.43 30.1267 216.183 30.6333 216.717 31.38C217.263 32.1133 217.537 32.9867 217.537 34C217.537 35.28 217.13 36.3 216.317 37.06C215.503 37.82 214.417 38.2 213.057 38.2ZM226.069 38C225.162 38 224.435 37.74 223.889 37.22C223.342 36.6867 223.069 35.98 223.069 35.1V28.64H219.909V27H223.069V23.9H224.869V27H229.369V28.64H224.869V35.1C224.869 35.4733 224.975 35.78 225.189 36.02C225.415 36.2467 225.709 36.36 226.069 36.36H229.269V38H226.069ZM236.001 38.2C234.868 38.2 233.968 37.8867 233.301 37.26C232.634 36.62 232.301 35.7867 232.301 34.76C232.301 34.08 232.454 33.4867 232.761 32.98C233.068 32.4733 233.494 32.08 234.041 31.8C234.588 31.5067 235.214 31.36 235.921 31.36H239.321V30.5C239.321 29.0733 238.541 28.36 236.981 28.36C236.288 28.36 235.728 28.4867 235.301 28.74C234.874 28.9933 234.648 29.3467 234.621 29.8H232.821C232.888 28.9333 233.288 28.22 234.021 27.66C234.768 27.0867 235.754 26.8 236.981 26.8C238.314 26.8 239.334 27.12 240.041 27.76C240.761 28.4 241.121 29.2933 241.121 30.44V38H239.341V36H239.301C239.194 36.68 238.854 37.22 238.281 37.62C237.708 38.0067 236.948 38.2 236.001 38.2ZM236.441 36.68C237.321 36.68 238.021 36.4667 238.541 36.04C239.061 35.6133 239.321 35.0333 239.321 34.3V32.76H236.121C235.534 32.76 235.054 32.94 234.681 33.3C234.321 33.6467 234.141 34.1133 234.141 34.7C234.141 35.3133 234.341 35.8 234.741 36.16C235.154 36.5067 235.721 36.68 236.441 36.68ZM249.113 38.2C247.78 38.2 246.713 37.8267 245.913 37.08C245.113 36.3333 244.713 35.3067 244.713 34V31C244.713 29.6933 245.113 28.6667 245.913 27.92C246.713 27.1733 247.78 26.8 249.113 26.8C250.38 26.8 251.4 27.14 252.173 27.82C252.96 28.5 253.373 29.4267 253.413 30.6H251.613C251.573 29.8933 251.333 29.3533 250.893 28.98C250.453 28.5933 249.86 28.4 249.113 28.4C248.326 28.4 247.693 28.6267 247.213 29.08C246.746 29.52 246.513 30.1533 246.513 30.98V34C246.513 34.8267 246.746 35.4667 247.213 35.92C247.693 36.3733 248.326 36.6 249.113 36.6C249.86 36.6 250.453 36.4067 250.893 36.02C251.333 35.6333 251.573 35.0933 251.613 34.4H253.413C253.373 35.5733 252.96 36.5 252.173 37.18C251.4 37.86 250.38 38.2 249.113 38.2ZM256.885 38V23.4H258.685V31.54H260.785L263.865 27H265.925L262.385 32.24L266.125 38H264.025L260.825 33.1H258.685V38H256.885Z" fill="white"/>
</svg>
