<svg width="1261" height="414" viewBox="0 0 1261 414" fill="none" xmlns="http://www.w3.org/2000/svg">
<path d="M392.406 270.879C382.067 286.964 363.422 298.184 341.749 299.788V299.988H72.6376V299.727C51.998 297.923 34.1081 286.872 23.4032 270.879H392.406ZM398.533 225.598C400.179 230.732 401.062 236.158 401.062 241.77C401.062 247.381 400.179 252.807 398.533 257.941H16.7606C14.221 251.151 12.8348 243.824 12.8348 236.183C12.8348 232.577 13.1445 229.041 13.7372 225.598H398.533ZM168.321 99.457C207.276 99.457 240.792 120.894 255.721 151.656C258.838 151.36 262.007 151.207 265.219 151.207C294.741 151.207 320.709 164.08 335.714 183.554C335.934 183.552 336.154 183.551 336.375 183.551C360.318 183.551 381.222 195.259 392.407 212.66H17.4501C26.5674 190.375 48.255 174.255 74.0262 172.531C81.7757 131.032 121.044 99.4571 168.321 99.457Z" fill="white"/>
<path d="M520 187.266C528.719 187.266 535.484 189.562 540.297 194.156C545.109 198.75 547.781 203.969 548.312 209.812H539.219C538.188 205.375 536.125 201.859 533.031 199.266C529.969 196.672 525.656 195.375 520.094 195.375C513.312 195.375 507.828 197.766 503.641 202.547C499.484 207.297 497.406 214.594 497.406 224.438C497.406 232.5 499.281 239.047 503.031 244.078C506.812 249.078 512.438 251.578 519.906 251.578C526.781 251.578 532.016 248.938 535.609 243.656C537.516 240.875 538.938 237.219 539.875 232.688H548.969C548.156 239.938 545.469 246.016 540.906 250.922C535.438 256.828 528.062 259.781 518.781 259.781C510.781 259.781 504.062 257.359 498.625 252.516C491.469 246.109 487.891 236.219 487.891 222.844C487.891 212.688 490.578 204.359 495.953 197.859C501.766 190.797 509.781 187.266 520 187.266ZM559.469 189.141H567.906V258H559.469V189.141ZM600.531 252.562C606.125 252.562 609.953 250.453 612.016 246.234C614.109 241.984 615.156 237.266 615.156 232.078C615.156 227.391 614.406 223.578 612.906 220.641C610.531 216.016 606.438 213.703 600.625 213.703C595.469 213.703 591.719 215.672 589.375 219.609C587.031 223.547 585.859 228.297 585.859 233.859C585.859 239.203 587.031 243.656 589.375 247.219C591.719 250.781 595.438 252.562 600.531 252.562ZM600.859 206.344C607.328 206.344 612.797 208.5 617.266 212.812C621.734 217.125 623.969 223.469 623.969 231.844C623.969 239.938 622 246.625 618.062 251.906C614.125 257.188 608.016 259.828 599.734 259.828C592.828 259.828 587.344 257.5 583.281 252.844C579.219 248.156 577.188 241.875 577.188 234C577.188 225.562 579.328 218.844 583.609 213.844C587.891 208.844 593.641 206.344 600.859 206.344ZM642.484 207.797V241.125C642.484 243.688 642.891 245.781 643.703 247.406C645.203 250.406 648 251.906 652.094 251.906C657.969 251.906 661.969 249.281 664.094 244.031C665.25 241.219 665.828 237.359 665.828 232.453V207.797H674.266V258H666.297L666.391 250.594C665.297 252.5 663.938 254.109 662.312 255.422C659.094 258.047 655.188 259.359 650.594 259.359C643.438 259.359 638.562 256.969 635.969 252.188C634.562 249.625 633.859 246.203 633.859 241.922V207.797H642.484ZM692.828 233.484C692.828 238.859 693.969 243.359 696.25 246.984C698.531 250.609 702.188 252.422 707.219 252.422C711.125 252.422 714.328 250.75 716.828 247.406C719.359 244.031 720.625 239.203 720.625 232.922C720.625 226.578 719.328 221.891 716.734 218.859C714.141 215.797 710.938 214.266 707.125 214.266C702.875 214.266 699.422 215.891 696.766 219.141C694.141 222.391 692.828 227.172 692.828 233.484ZM705.531 206.906C709.375 206.906 712.594 207.719 715.188 209.344C716.688 210.281 718.391 211.922 720.297 214.266V188.906H728.406V258H720.812V251.016C718.844 254.109 716.516 256.344 713.828 257.719C711.141 259.094 708.062 259.781 704.594 259.781C699 259.781 694.156 257.438 690.062 252.75C685.969 248.031 683.922 241.766 683.922 233.953C683.922 226.641 685.781 220.312 689.5 214.969C693.25 209.594 698.594 206.906 705.531 206.906ZM795.203 250.031C798.359 250.031 800.953 249.703 802.984 249.047C806.609 247.828 809.578 245.484 811.891 242.016C813.734 239.234 815.062 235.672 815.875 231.328C816.344 228.734 816.578 226.328 816.578 224.109C816.578 215.578 814.875 208.953 811.469 204.234C808.094 199.516 802.641 197.156 795.109 197.156H778.562V250.031H795.203ZM769.188 189.141H797.078C806.547 189.141 813.891 192.5 819.109 199.219C823.766 205.281 826.094 213.047 826.094 222.516C826.094 229.828 824.719 236.438 821.969 242.344C817.125 252.781 808.797 258 796.984 258H769.188V189.141ZM843.484 244.641C843.484 247.078 844.375 249 846.156 250.406C847.938 251.812 850.047 252.516 852.484 252.516C855.453 252.516 858.328 251.828 861.109 250.453C865.797 248.172 868.141 244.438 868.141 239.25V232.453C867.109 233.109 865.781 233.656 864.156 234.094C862.531 234.531 860.938 234.844 859.375 235.031L854.266 235.688C851.203 236.094 848.906 236.734 847.375 237.609C844.781 239.078 843.484 241.422 843.484 244.641ZM863.922 227.578C865.859 227.328 867.156 226.516 867.812 225.141C868.188 224.391 868.375 223.312 868.375 221.906C868.375 219.031 867.344 216.953 865.281 215.672C863.25 214.359 860.328 213.703 856.516 213.703C852.109 213.703 848.984 214.891 847.141 217.266C846.109 218.578 845.438 220.531 845.125 223.125H837.25C837.406 216.938 839.406 212.641 843.25 210.234C847.125 207.797 851.609 206.578 856.703 206.578C862.609 206.578 867.406 207.703 871.094 209.953C874.75 212.203 876.578 215.703 876.578 220.453V249.375C876.578 250.25 876.75 250.953 877.094 251.484C877.469 252.016 878.234 252.281 879.391 252.281C879.766 252.281 880.188 252.266 880.656 252.234C881.125 252.172 881.625 252.094 882.156 252V258.234C880.844 258.609 879.844 258.844 879.156 258.938C878.469 259.031 877.531 259.078 876.344 259.078C873.438 259.078 871.328 258.047 870.016 255.984C869.328 254.891 868.844 253.344 868.562 251.344C866.844 253.594 864.375 255.547 861.156 257.203C857.938 258.859 854.391 259.688 850.516 259.688C845.859 259.688 842.047 258.281 839.078 255.469C836.141 252.625 834.672 249.078 834.672 244.828C834.672 240.172 836.125 236.562 839.031 234C841.938 231.438 845.75 229.859 850.469 229.266L863.922 227.578ZM892.141 193.781H900.672V207.797H908.688V214.688H900.672V247.453C900.672 249.203 901.266 250.375 902.453 250.969C903.109 251.312 904.203 251.484 905.734 251.484C906.141 251.484 906.578 251.484 907.047 251.484C907.516 251.453 908.062 251.406 908.688 251.344V258C907.719 258.281 906.703 258.484 905.641 258.609C904.609 258.734 903.484 258.797 902.266 258.797C898.328 258.797 895.656 257.797 894.25 255.797C892.844 253.766 892.141 251.141 892.141 247.922V214.688H885.344V207.797H892.141V193.781ZM923.641 244.641C923.641 247.078 924.531 249 926.312 250.406C928.094 251.812 930.203 252.516 932.641 252.516C935.609 252.516 938.484 251.828 941.266 250.453C945.953 248.172 948.297 244.438 948.297 239.25V232.453C947.266 233.109 945.938 233.656 944.312 234.094C942.688 234.531 941.094 234.844 939.531 235.031L934.422 235.688C931.359 236.094 929.062 236.734 927.531 237.609C924.938 239.078 923.641 241.422 923.641 244.641ZM944.078 227.578C946.016 227.328 947.312 226.516 947.969 225.141C948.344 224.391 948.531 223.312 948.531 221.906C948.531 219.031 947.5 216.953 945.438 215.672C943.406 214.359 940.484 213.703 936.672 213.703C932.266 213.703 929.141 214.891 927.297 217.266C926.266 218.578 925.594 220.531 925.281 223.125H917.406C917.562 216.938 919.562 212.641 923.406 210.234C927.281 207.797 931.766 206.578 936.859 206.578C942.766 206.578 947.562 207.703 951.25 209.953C954.906 212.203 956.734 215.703 956.734 220.453V249.375C956.734 250.25 956.906 250.953 957.25 251.484C957.625 252.016 958.391 252.281 959.547 252.281C959.922 252.281 960.344 252.266 960.812 252.234C961.281 252.172 961.781 252.094 962.312 252V258.234C961 258.609 960 258.844 959.312 258.938C958.625 259.031 957.688 259.078 956.5 259.078C953.594 259.078 951.484 258.047 950.172 255.984C949.484 254.891 949 253.344 948.719 251.344C947 253.594 944.531 255.547 941.312 257.203C938.094 258.859 934.547 259.688 930.672 259.688C926.016 259.688 922.203 258.281 919.234 255.469C916.297 252.625 914.828 249.078 914.828 244.828C914.828 240.172 916.281 236.562 919.188 234C922.094 231.438 925.906 229.859 930.625 229.266L944.078 227.578ZM1004.55 235.781C1004.77 239.688 1005.69 242.859 1007.31 245.297C1010.41 249.859 1015.86 252.141 1023.67 252.141C1027.17 252.141 1030.36 251.641 1033.23 250.641C1038.8 248.703 1041.58 245.234 1041.58 240.234C1041.58 236.484 1040.41 233.812 1038.06 232.219C1035.69 230.656 1031.97 229.297 1026.91 228.141L1017.58 226.031C1011.48 224.656 1007.17 223.141 1004.64 221.484C1000.27 218.609 998.078 214.312 998.078 208.594C998.078 202.406 1000.22 197.328 1004.5 193.359C1008.78 189.391 1014.84 187.406 1022.69 187.406C1029.91 187.406 1036.03 189.156 1041.06 192.656C1046.12 196.125 1048.66 201.688 1048.66 209.344H1039.89C1039.42 205.656 1038.42 202.828 1036.89 200.859C1034.05 197.266 1029.22 195.469 1022.41 195.469C1016.91 195.469 1012.95 196.625 1010.55 198.938C1008.14 201.25 1006.94 203.938 1006.94 207C1006.94 210.375 1008.34 212.844 1011.16 214.406C1013 215.406 1017.17 216.656 1023.67 218.156L1033.33 220.359C1037.98 221.422 1041.58 222.875 1044.11 224.719C1048.48 227.938 1050.67 232.609 1050.67 238.734C1050.67 246.359 1047.89 251.812 1042.33 255.094C1036.8 258.375 1030.36 260.016 1023.02 260.016C1014.45 260.016 1007.75 257.828 1002.91 253.453C998.062 249.109 995.688 243.219 995.781 235.781H1004.55ZM1063.05 193.781H1071.58V207.797H1079.59V214.688H1071.58V247.453C1071.58 249.203 1072.17 250.375 1073.36 250.969C1074.02 251.312 1075.11 251.484 1076.64 251.484C1077.05 251.484 1077.48 251.484 1077.95 251.484C1078.42 251.453 1078.97 251.406 1079.59 251.344V258C1078.62 258.281 1077.61 258.484 1076.55 258.609C1075.52 258.734 1074.39 258.797 1073.17 258.797C1069.23 258.797 1066.56 257.797 1065.16 255.797C1063.75 253.766 1063.05 251.141 1063.05 247.922V214.688H1056.25V207.797H1063.05V193.781ZM1094.55 244.641C1094.55 247.078 1095.44 249 1097.22 250.406C1099 251.812 1101.11 252.516 1103.55 252.516C1106.52 252.516 1109.39 251.828 1112.17 250.453C1116.86 248.172 1119.2 244.438 1119.2 239.25V232.453C1118.17 233.109 1116.84 233.656 1115.22 234.094C1113.59 234.531 1112 234.844 1110.44 235.031L1105.33 235.688C1102.27 236.094 1099.97 236.734 1098.44 237.609C1095.84 239.078 1094.55 241.422 1094.55 244.641ZM1114.98 227.578C1116.92 227.328 1118.22 226.516 1118.88 225.141C1119.25 224.391 1119.44 223.312 1119.44 221.906C1119.44 219.031 1118.41 216.953 1116.34 215.672C1114.31 214.359 1111.39 213.703 1107.58 213.703C1103.17 213.703 1100.05 214.891 1098.2 217.266C1097.17 218.578 1096.5 220.531 1096.19 223.125H1088.31C1088.47 216.938 1090.47 212.641 1094.31 210.234C1098.19 207.797 1102.67 206.578 1107.77 206.578C1113.67 206.578 1118.47 207.703 1122.16 209.953C1125.81 212.203 1127.64 215.703 1127.64 220.453V249.375C1127.64 250.25 1127.81 250.953 1128.16 251.484C1128.53 252.016 1129.3 252.281 1130.45 252.281C1130.83 252.281 1131.25 252.266 1131.72 252.234C1132.19 252.172 1132.69 252.094 1133.22 252V258.234C1131.91 258.609 1130.91 258.844 1130.22 258.938C1129.53 259.031 1128.59 259.078 1127.41 259.078C1124.5 259.078 1122.39 258.047 1121.08 255.984C1120.39 254.891 1119.91 253.344 1119.62 251.344C1117.91 253.594 1115.44 255.547 1112.22 257.203C1109 258.859 1105.45 259.688 1101.58 259.688C1096.92 259.688 1093.11 258.281 1090.14 255.469C1087.2 252.625 1085.73 249.078 1085.73 244.828C1085.73 240.172 1087.19 236.562 1090.09 234C1093 231.438 1096.81 229.859 1101.53 229.266L1114.98 227.578ZM1160.88 206.344C1166.53 206.344 1171.12 207.719 1174.66 210.469C1178.22 213.219 1180.36 217.953 1181.08 224.672H1172.88C1172.38 221.578 1171.23 219.016 1169.45 216.984C1167.67 214.922 1164.81 213.891 1160.88 213.891C1155.5 213.891 1151.66 216.516 1149.34 221.766C1147.84 225.172 1147.09 229.375 1147.09 234.375C1147.09 239.406 1148.16 243.641 1150.28 247.078C1152.41 250.516 1155.75 252.234 1160.31 252.234C1163.81 252.234 1166.58 251.172 1168.61 249.047C1170.67 246.891 1172.09 243.953 1172.88 240.234H1181.08C1180.14 246.891 1177.8 251.766 1174.05 254.859C1170.3 257.922 1165.5 259.453 1159.66 259.453C1153.09 259.453 1147.86 257.062 1143.95 252.281C1140.05 247.469 1138.09 241.469 1138.09 234.281C1138.09 225.469 1140.23 218.609 1144.52 213.703C1148.8 208.797 1154.25 206.344 1160.88 206.344ZM1189.33 189.141H1197.44V229.125L1219.09 207.797H1229.88L1210.66 226.594L1230.95 258H1220.17L1204.52 232.688L1197.44 239.156V258H1189.33V189.141Z" fill="white"/>
</svg>
