<svg width="1282" height="414" viewBox="0 0 1282 414" fill="none" xmlns="http://www.w3.org/2000/svg">
<path d="M392.406 270.879C382.067 286.964 363.422 298.184 341.749 299.788V299.988H72.6376V299.727C51.998 297.923 34.1081 286.872 23.4032 270.879H392.406ZM398.533 225.598C400.179 230.732 401.062 236.158 401.062 241.77C401.062 247.381 400.179 252.807 398.533 257.941H16.7606C14.221 251.151 12.8348 243.824 12.8348 236.183C12.8348 232.577 13.1445 229.041 13.7372 225.598H398.533ZM168.321 99.457C207.276 99.457 240.792 120.894 255.721 151.656C258.838 151.36 262.007 151.207 265.219 151.207C294.741 151.207 320.709 164.08 335.714 183.554C335.934 183.552 336.154 183.551 336.375 183.551C360.318 183.551 381.222 195.259 392.407 212.66H17.4501C26.5674 190.375 48.255 174.255 74.0262 172.531C81.7757 131.032 121.044 99.4571 168.321 99.457Z" fill="white"/>
<path d="M505.5 187.266C514.219 187.266 520.984 189.562 525.797 194.156C530.609 198.75 533.281 203.969 533.812 209.812H524.719C523.688 205.375 521.625 201.859 518.531 199.266C515.469 196.672 511.156 195.375 505.594 195.375C498.812 195.375 493.328 197.766 489.141 202.547C484.984 207.297 482.906 214.594 482.906 224.438C482.906 232.5 484.781 239.047 488.531 244.078C492.312 249.078 497.938 251.578 505.406 251.578C512.281 251.578 517.516 248.938 521.109 243.656C523.016 240.875 524.438 237.219 525.375 232.688H534.469C533.656 239.938 530.969 246.016 526.406 250.922C520.938 256.828 513.562 259.781 504.281 259.781C496.281 259.781 489.562 257.359 484.125 252.516C476.969 246.109 473.391 236.219 473.391 222.844C473.391 212.688 476.078 204.359 481.453 197.859C487.266 190.797 495.281 187.266 505.5 187.266ZM544.969 189.141H553.406V258H544.969V189.141ZM586.031 252.562C591.625 252.562 595.453 250.453 597.516 246.234C599.609 241.984 600.656 237.266 600.656 232.078C600.656 227.391 599.906 223.578 598.406 220.641C596.031 216.016 591.938 213.703 586.125 213.703C580.969 213.703 577.219 215.672 574.875 219.609C572.531 223.547 571.359 228.297 571.359 233.859C571.359 239.203 572.531 243.656 574.875 247.219C577.219 250.781 580.938 252.562 586.031 252.562ZM586.359 206.344C592.828 206.344 598.297 208.5 602.766 212.812C607.234 217.125 609.469 223.469 609.469 231.844C609.469 239.938 607.5 246.625 603.562 251.906C599.625 257.188 593.516 259.828 585.234 259.828C578.328 259.828 572.844 257.5 568.781 252.844C564.719 248.156 562.688 241.875 562.688 234C562.688 225.562 564.828 218.844 569.109 213.844C573.391 208.844 579.141 206.344 586.359 206.344ZM627.984 207.797V241.125C627.984 243.688 628.391 245.781 629.203 247.406C630.703 250.406 633.5 251.906 637.594 251.906C643.469 251.906 647.469 249.281 649.594 244.031C650.75 241.219 651.328 237.359 651.328 232.453V207.797H659.766V258H651.797L651.891 250.594C650.797 252.5 649.438 254.109 647.812 255.422C644.594 258.047 640.688 259.359 636.094 259.359C628.938 259.359 624.062 256.969 621.469 252.188C620.062 249.625 619.359 246.203 619.359 241.922V207.797H627.984ZM678.328 233.484C678.328 238.859 679.469 243.359 681.75 246.984C684.031 250.609 687.688 252.422 692.719 252.422C696.625 252.422 699.828 250.75 702.328 247.406C704.859 244.031 706.125 239.203 706.125 232.922C706.125 226.578 704.828 221.891 702.234 218.859C699.641 215.797 696.438 214.266 692.625 214.266C688.375 214.266 684.922 215.891 682.266 219.141C679.641 222.391 678.328 227.172 678.328 233.484ZM691.031 206.906C694.875 206.906 698.094 207.719 700.688 209.344C702.188 210.281 703.891 211.922 705.797 214.266V188.906H713.906V258H706.312V251.016C704.344 254.109 702.016 256.344 699.328 257.719C696.641 259.094 693.562 259.781 690.094 259.781C684.5 259.781 679.656 257.438 675.562 252.75C671.469 248.031 669.422 241.766 669.422 233.953C669.422 226.641 671.281 220.312 675 214.969C678.75 209.594 684.094 206.906 691.031 206.906ZM780.703 250.031C783.859 250.031 786.453 249.703 788.484 249.047C792.109 247.828 795.078 245.484 797.391 242.016C799.234 239.234 800.562 235.672 801.375 231.328C801.844 228.734 802.078 226.328 802.078 224.109C802.078 215.578 800.375 208.953 796.969 204.234C793.594 199.516 788.141 197.156 780.609 197.156H764.062V250.031H780.703ZM754.688 189.141H782.578C792.047 189.141 799.391 192.5 804.609 199.219C809.266 205.281 811.594 213.047 811.594 222.516C811.594 229.828 810.219 236.438 807.469 242.344C802.625 252.781 794.297 258 782.484 258H754.688V189.141ZM828.984 244.641C828.984 247.078 829.875 249 831.656 250.406C833.438 251.812 835.547 252.516 837.984 252.516C840.953 252.516 843.828 251.828 846.609 250.453C851.297 248.172 853.641 244.438 853.641 239.25V232.453C852.609 233.109 851.281 233.656 849.656 234.094C848.031 234.531 846.438 234.844 844.875 235.031L839.766 235.688C836.703 236.094 834.406 236.734 832.875 237.609C830.281 239.078 828.984 241.422 828.984 244.641ZM849.422 227.578C851.359 227.328 852.656 226.516 853.312 225.141C853.688 224.391 853.875 223.312 853.875 221.906C853.875 219.031 852.844 216.953 850.781 215.672C848.75 214.359 845.828 213.703 842.016 213.703C837.609 213.703 834.484 214.891 832.641 217.266C831.609 218.578 830.938 220.531 830.625 223.125H822.75C822.906 216.938 824.906 212.641 828.75 210.234C832.625 207.797 837.109 206.578 842.203 206.578C848.109 206.578 852.906 207.703 856.594 209.953C860.25 212.203 862.078 215.703 862.078 220.453V249.375C862.078 250.25 862.25 250.953 862.594 251.484C862.969 252.016 863.734 252.281 864.891 252.281C865.266 252.281 865.688 252.266 866.156 252.234C866.625 252.172 867.125 252.094 867.656 252V258.234C866.344 258.609 865.344 258.844 864.656 258.938C863.969 259.031 863.031 259.078 861.844 259.078C858.938 259.078 856.828 258.047 855.516 255.984C854.828 254.891 854.344 253.344 854.062 251.344C852.344 253.594 849.875 255.547 846.656 257.203C843.438 258.859 839.891 259.688 836.016 259.688C831.359 259.688 827.547 258.281 824.578 255.469C821.641 252.625 820.172 249.078 820.172 244.828C820.172 240.172 821.625 236.562 824.531 234C827.438 231.438 831.25 229.859 835.969 229.266L849.422 227.578ZM877.641 193.781H886.172V207.797H894.188V214.688H886.172V247.453C886.172 249.203 886.766 250.375 887.953 250.969C888.609 251.312 889.703 251.484 891.234 251.484C891.641 251.484 892.078 251.484 892.547 251.484C893.016 251.453 893.562 251.406 894.188 251.344V258C893.219 258.281 892.203 258.484 891.141 258.609C890.109 258.734 888.984 258.797 887.766 258.797C883.828 258.797 881.156 257.797 879.75 255.797C878.344 253.766 877.641 251.141 877.641 247.922V214.688H870.844V207.797H877.641V193.781ZM909.141 244.641C909.141 247.078 910.031 249 911.812 250.406C913.594 251.812 915.703 252.516 918.141 252.516C921.109 252.516 923.984 251.828 926.766 250.453C931.453 248.172 933.797 244.438 933.797 239.25V232.453C932.766 233.109 931.438 233.656 929.812 234.094C928.188 234.531 926.594 234.844 925.031 235.031L919.922 235.688C916.859 236.094 914.562 236.734 913.031 237.609C910.438 239.078 909.141 241.422 909.141 244.641ZM929.578 227.578C931.516 227.328 932.812 226.516 933.469 225.141C933.844 224.391 934.031 223.312 934.031 221.906C934.031 219.031 933 216.953 930.938 215.672C928.906 214.359 925.984 213.703 922.172 213.703C917.766 213.703 914.641 214.891 912.797 217.266C911.766 218.578 911.094 220.531 910.781 223.125H902.906C903.062 216.938 905.062 212.641 908.906 210.234C912.781 207.797 917.266 206.578 922.359 206.578C928.266 206.578 933.062 207.703 936.75 209.953C940.406 212.203 942.234 215.703 942.234 220.453V249.375C942.234 250.25 942.406 250.953 942.75 251.484C943.125 252.016 943.891 252.281 945.047 252.281C945.422 252.281 945.844 252.266 946.312 252.234C946.781 252.172 947.281 252.094 947.812 252V258.234C946.5 258.609 945.5 258.844 944.812 258.938C944.125 259.031 943.188 259.078 942 259.078C939.094 259.078 936.984 258.047 935.672 255.984C934.984 254.891 934.5 253.344 934.219 251.344C932.5 253.594 930.031 255.547 926.812 257.203C923.594 258.859 920.047 259.688 916.172 259.688C911.516 259.688 907.703 258.281 904.734 255.469C901.797 252.625 900.328 249.078 900.328 244.828C900.328 240.172 901.781 236.562 904.688 234C907.594 231.438 911.406 229.859 916.125 229.266L929.578 227.578ZM990.047 235.781C990.266 239.688 991.188 242.859 992.812 245.297C995.906 249.859 1001.36 252.141 1009.17 252.141C1012.67 252.141 1015.86 251.641 1018.73 250.641C1024.3 248.703 1027.08 245.234 1027.08 240.234C1027.08 236.484 1025.91 233.812 1023.56 232.219C1021.19 230.656 1017.47 229.297 1012.41 228.141L1003.08 226.031C996.984 224.656 992.672 223.141 990.141 221.484C985.766 218.609 983.578 214.312 983.578 208.594C983.578 202.406 985.719 197.328 990 193.359C994.281 189.391 1000.34 187.406 1008.19 187.406C1015.41 187.406 1021.53 189.156 1026.56 192.656C1031.62 196.125 1034.16 201.688 1034.16 209.344H1025.39C1024.92 205.656 1023.92 202.828 1022.39 200.859C1019.55 197.266 1014.72 195.469 1007.91 195.469C1002.41 195.469 998.453 196.625 996.047 198.938C993.641 201.25 992.438 203.938 992.438 207C992.438 210.375 993.844 212.844 996.656 214.406C998.5 215.406 1002.67 216.656 1009.17 218.156L1018.83 220.359C1023.48 221.422 1027.08 222.875 1029.61 224.719C1033.98 227.938 1036.17 232.609 1036.17 238.734C1036.17 246.359 1033.39 251.812 1027.83 255.094C1022.3 258.375 1015.86 260.016 1008.52 260.016C999.953 260.016 993.25 257.828 988.406 253.453C983.562 249.109 981.188 243.219 981.281 235.781H990.047ZM1048.55 193.781H1057.08V207.797H1065.09V214.688H1057.08V247.453C1057.08 249.203 1057.67 250.375 1058.86 250.969C1059.52 251.312 1060.61 251.484 1062.14 251.484C1062.55 251.484 1062.98 251.484 1063.45 251.484C1063.92 251.453 1064.47 251.406 1065.09 251.344V258C1064.12 258.281 1063.11 258.484 1062.05 258.609C1061.02 258.734 1059.89 258.797 1058.67 258.797C1054.73 258.797 1052.06 257.797 1050.66 255.797C1049.25 253.766 1048.55 251.141 1048.55 247.922V214.688H1041.75V207.797H1048.55V193.781ZM1080.05 244.641C1080.05 247.078 1080.94 249 1082.72 250.406C1084.5 251.812 1086.61 252.516 1089.05 252.516C1092.02 252.516 1094.89 251.828 1097.67 250.453C1102.36 248.172 1104.7 244.438 1104.7 239.25V232.453C1103.67 233.109 1102.34 233.656 1100.72 234.094C1099.09 234.531 1097.5 234.844 1095.94 235.031L1090.83 235.688C1087.77 236.094 1085.47 236.734 1083.94 237.609C1081.34 239.078 1080.05 241.422 1080.05 244.641ZM1100.48 227.578C1102.42 227.328 1103.72 226.516 1104.38 225.141C1104.75 224.391 1104.94 223.312 1104.94 221.906C1104.94 219.031 1103.91 216.953 1101.84 215.672C1099.81 214.359 1096.89 213.703 1093.08 213.703C1088.67 213.703 1085.55 214.891 1083.7 217.266C1082.67 218.578 1082 220.531 1081.69 223.125H1073.81C1073.97 216.938 1075.97 212.641 1079.81 210.234C1083.69 207.797 1088.17 206.578 1093.27 206.578C1099.17 206.578 1103.97 207.703 1107.66 209.953C1111.31 212.203 1113.14 215.703 1113.14 220.453V249.375C1113.14 250.25 1113.31 250.953 1113.66 251.484C1114.03 252.016 1114.8 252.281 1115.95 252.281C1116.33 252.281 1116.75 252.266 1117.22 252.234C1117.69 252.172 1118.19 252.094 1118.72 252V258.234C1117.41 258.609 1116.41 258.844 1115.72 258.938C1115.03 259.031 1114.09 259.078 1112.91 259.078C1110 259.078 1107.89 258.047 1106.58 255.984C1105.89 254.891 1105.41 253.344 1105.12 251.344C1103.41 253.594 1100.94 255.547 1097.72 257.203C1094.5 258.859 1090.95 259.688 1087.08 259.688C1082.42 259.688 1078.61 258.281 1075.64 255.469C1072.7 252.625 1071.23 249.078 1071.23 244.828C1071.23 240.172 1072.69 236.562 1075.59 234C1078.5 231.438 1082.31 229.859 1087.03 229.266L1100.48 227.578ZM1146.38 206.344C1152.03 206.344 1156.62 207.719 1160.16 210.469C1163.72 213.219 1165.86 217.953 1166.58 224.672H1158.38C1157.88 221.578 1156.73 219.016 1154.95 216.984C1153.17 214.922 1150.31 213.891 1146.38 213.891C1141 213.891 1137.16 216.516 1134.84 221.766C1133.34 225.172 1132.59 229.375 1132.59 234.375C1132.59 239.406 1133.66 243.641 1135.78 247.078C1137.91 250.516 1141.25 252.234 1145.81 252.234C1149.31 252.234 1152.08 251.172 1154.11 249.047C1156.17 246.891 1157.59 243.953 1158.38 240.234H1166.58C1165.64 246.891 1163.3 251.766 1159.55 254.859C1155.8 257.922 1151 259.453 1145.16 259.453C1138.59 259.453 1133.36 257.062 1129.45 252.281C1125.55 247.469 1123.59 241.469 1123.59 234.281C1123.59 225.469 1125.73 218.609 1130.02 213.703C1134.3 208.797 1139.75 206.344 1146.38 206.344ZM1174.83 189.141H1182.94V229.125L1204.59 207.797H1215.38L1196.16 226.594L1216.45 258H1205.67L1190.02 232.688L1182.94 239.156V258H1174.83V189.141Z" fill="white"/>
</svg>
