<svg width="41" height="42" viewBox="0 0 41 42" fill="none" xmlns="http://www.w3.org/2000/svg">
<g clip-path="url(#clip0_3_4)">
<path d="M40.6 31.1V23.7L39.8 23.2L20.6 33.7L2.4 23.7V19.4L20.6 29.3L40.7 18.4V11.1L39.9 10.6L20.6 21.2L3.1 11.6L20.6 2L34.7 9.7L35.8 9.1V8.3L20.6 0L0.5 10.9V12L20.6 23L38.8 13V17.4L20.6 27.4L1.3 16.8L0.5 17.3V24.7L20.6 35.6L38.8 25.7V30L20.6 40L1.3 29.5L0.5 30V31.1L20.6 42L40.6 31.1Z" fill="white"/>
</g>
<defs>
<clipPath id="clip0_3_4">
<rect width="40.1" height="42" fill="white" transform="translate(0.5)"/>
</clipPath>
</defs>
</svg>
