<svg width="24" height="10" viewBox="0 0 24 10" fill="none" xmlns="http://www.w3.org/2000/svg">
<path d="M15.6139 1.90125V8.02567H14.3727V7.40104C14.2429 7.62007 14.0564 7.79855 13.8292 7.9121C13.5859 8.03377 13.31 8.09867 13.0343 8.09867C12.6936 8.1068 12.3529 8.00944 12.069 7.81474C11.777 7.62007 11.5498 7.3524 11.4038 7.03602C11.2416 6.671 11.1604 6.28162 11.1685 5.88414C11.1604 5.48667 11.2416 5.0973 11.4038 4.7404C11.5498 4.43212 11.777 4.16444 12.0609 3.97787C12.3529 3.79129 12.6936 3.70207 13.0343 3.71017C13.302 3.71017 13.5696 3.76697 13.8049 3.88865C14.0321 4.0022 14.2186 4.17255 14.3484 4.38347V2.31495L15.6139 1.90125ZM14.1213 6.81702C14.2835 6.6061 14.3727 6.29785 14.3727 5.90037C14.3727 5.5029 14.2916 5.20275 14.1213 4.99185C13.9509 4.78095 13.6832 4.65927 13.4074 4.66737C13.1316 4.65114 12.864 4.77282 12.6854 4.98375C12.5152 5.19465 12.4258 5.49479 12.4258 5.88414C12.4258 6.28162 12.5152 6.58987 12.6854 6.8089C12.8558 7.02792 13.1316 7.1496 13.4074 7.1415C13.7157 7.1415 13.959 7.02792 14.1213 6.81702ZM20.0511 3.96977C20.343 4.15632 20.5702 4.42402 20.7081 4.73227C20.8703 5.0892 20.9514 5.47855 20.9433 5.87605C20.9514 6.27352 20.8703 6.67099 20.7081 7.02792C20.562 7.34427 20.335 7.61197 20.0429 7.80665C19.759 7.99322 19.4183 8.09057 19.0776 8.08245C18.8018 8.09057 18.526 8.02567 18.2826 7.89587C18.0556 7.78232 17.8689 7.60384 17.7472 7.38484V8.01755H16.4981V2.31495L17.7554 1.90125V4.39967C17.877 4.18067 18.0636 4.0022 18.2907 3.88865C18.5341 3.75885 18.8018 3.69397 19.0776 3.70207C19.4183 3.69397 19.759 3.7913 20.0511 3.96977ZM19.4345 6.8089C19.6049 6.58987 19.686 6.28162 19.686 5.87605C19.686 5.48667 19.6049 5.18652 19.4345 4.97562C19.2641 4.76472 19.0289 4.65927 18.7207 4.65927C18.4449 4.64305 18.1772 4.76472 17.9987 4.98375C17.8284 5.20275 17.7472 5.5029 17.7472 5.89227C17.7472 6.28975 17.8284 6.598 17.9987 6.8089C18.1691 7.02792 18.4368 7.1496 18.7207 7.13337C18.9965 7.1496 19.2641 7.02792 19.4345 6.8089ZM22.6793 4.7485V6.38707C22.6793 6.62232 22.7442 6.79267 22.8578 6.89812C22.9876 7.01169 23.1579 7.06847 23.3364 7.06037C23.4743 7.06037 23.6203 7.03602 23.7501 7.00357V7.977C23.5148 8.05812 23.2715 8.09867 23.0281 8.09057C22.509 8.09057 22.1115 7.94455 21.8356 7.65252C21.5599 7.3605 21.4219 6.94679 21.4219 6.41142V2.81787L22.6793 2.4123V3.80752H23.7501V4.7485H22.6793Z" fill="white"/>
<path d="M8.84042 0.887295C9.05132 1.09009 9.18922 1.35779 9.22167 1.64982C9.22167 1.77149 9.18923 1.85262 9.11623 2.00672C9.04323 2.16085 8.1428 3.71832 7.87512 4.14824C7.721 4.39972 7.63987 4.69987 7.63987 4.99187C7.63987 5.29202 7.721 5.58404 7.87512 5.83552C8.1428 6.26544 9.04323 7.83102 9.11623 7.98515C9.18923 8.13927 9.22167 8.21227 9.22167 8.33394C9.18922 8.62597 9.05943 8.89367 8.84853 9.08834C8.64573 9.29924 8.37805 9.43717 8.09412 9.46149C7.97245 9.46149 7.89133 9.42904 7.74533 9.35604C7.5993 9.28302 6.0094 8.40694 5.57947 8.13927C5.54702 8.12304 5.51457 8.09869 5.47402 8.08247L3.34873 6.82514C3.39738 7.23074 3.57585 7.62012 3.86788 7.90402C3.92465 7.96079 3.98145 8.00947 4.04633 8.05815C3.99765 8.08247 3.94087 8.10682 3.8922 8.13927C3.46227 8.40694 1.8967 9.30737 1.74258 9.38037C1.58846 9.45337 1.51545 9.48582 1.38566 9.48582C1.09363 9.45337 0.82594 9.32359 0.631255 9.11269C0.420347 8.90989 0.282447 8.64219 0.25 8.35017C0.258113 8.22849 0.29056 8.10682 0.355455 8.00137C0.42846 7.84724 1.32887 6.28164 1.59656 5.85172C1.75069 5.60027 1.8318 5.30824 1.8318 5.00809C1.8318 4.70797 1.75069 4.41595 1.59656 4.16447C1.32887 3.71832 0.420348 2.15274 0.355455 1.99862C0.29056 1.89317 0.258113 1.77149 0.25 1.64982C0.282447 1.35779 0.412237 1.09009 0.623145 0.887295C0.82594 0.676395 1.09363 0.546595 1.38566 0.514145C1.50733 0.52227 1.62901 0.55472 1.74258 0.61962C1.87237 0.676395 3.01613 1.34157 3.62453 1.69849L3.76242 1.77959C3.81107 1.81204 3.85165 1.83637 3.8841 1.85262L3.949 1.89317L6.11485 3.17485C6.06618 2.68812 5.8147 2.24197 5.42535 1.94184C5.47403 1.91749 5.5308 1.89317 5.57947 1.86072C6.0094 1.59302 7.57498 0.684495 7.7291 0.61962C7.83455 0.55472 7.95623 0.52227 8.08603 0.514145C8.36993 0.546595 8.63762 0.676395 8.84042 0.887295ZM4.8494 5.57594L5.31178 5.11354C5.37668 5.04867 5.37668 4.95132 5.31178 4.88642L4.8494 4.42405C4.7845 4.35915 4.68717 4.35915 4.62227 4.42405L4.1599 4.88642C4.095 4.95132 4.095 5.04867 4.1599 5.11354L4.62227 5.57594C4.67905 5.63272 4.7845 5.63272 4.8494 5.57594Z" fill="white"/>
</svg>
