<svg width="22" height="24" viewBox="0 0 22 24" fill="none" xmlns="http://www.w3.org/2000/svg">
<path d="M9.22262 7.49378C8.98347 7.46048 8.76682 7.4913 8.65722 7.57425C8.59552 7.62095 8.57647 7.67503 8.57137 7.7123C8.55759 7.81093 8.62672 7.91993 8.66914 7.97618C8.78924 8.13538 8.96474 8.24483 9.13847 8.26895C9.16362 8.27243 9.18864 8.27413 9.21354 8.27413C9.50324 8.27413 9.76654 8.04858 9.78977 7.8821C9.81879 7.6736 9.51612 7.53463 9.22262 7.49378Z" fill="white"/>
<path d="M17.1468 7.50035C17.124 7.33693 16.8331 7.29033 16.5571 7.32868C16.2815 7.3671 16.0143 7.49148 16.0366 7.65528C16.0545 7.78265 16.2844 8.0001 16.5567 8.00005C16.5797 8.00005 16.6029 7.99853 16.6263 7.99525C16.808 7.97008 16.9414 7.85468 17.0047 7.78815C17.1012 7.68683 17.157 7.5738 17.1468 7.50035Z" fill="white"/>
<path d="M21.6934 14.5003C21.5922 14.1942 21.2665 14.0957 20.7252 14.2075C19.1182 14.5392 18.5427 14.3094 18.3537 14.1703C19.6028 12.2673 20.6304 9.96723 21.1847 7.8211C21.4473 6.80453 21.5924 5.86045 21.6042 5.09098C21.6173 4.24625 21.4735 3.62565 21.1768 3.24653C19.9806 1.71804 18.225 0.898178 16.0999 0.875646C14.639 0.859236 13.4046 1.23315 13.1653 1.33827C12.6614 1.21294 12.112 1.136 11.514 1.12619C10.4172 1.10846 9.46922 1.37103 8.6843 1.90621C8.34337 1.77935 7.46225 1.47689 6.38477 1.30333C4.52185 1.00335 3.04155 1.23062 1.98512 1.97903C0.724597 2.87208 0.142669 4.46843 0.255437 6.72363C0.293377 7.48243 0.725652 9.81653 1.40794 12.0519C2.306 14.994 3.28217 16.6595 4.30935 17.0021C4.42955 17.0422 4.56822 17.0703 4.72105 17.0703C5.09575 17.0703 5.5551 16.9014 6.03307 16.3268C6.82697 15.3717 7.5682 14.5714 7.84142 14.2806C8.24522 14.4973 8.68872 14.6183 9.14247 14.6305C9.14327 14.6423 9.1445 14.6542 9.14555 14.666C9.05452 14.774 8.97985 14.8686 8.91622 14.9494C8.60187 15.3484 8.53645 15.4315 7.52455 15.6399C7.23677 15.6992 6.4722 15.8568 6.46107 16.3927C6.44887 16.9781 7.36467 17.224 7.46905 17.2501C7.83267 17.3411 8.18295 17.386 8.51702 17.386C9.32955 17.3859 10.0445 17.119 10.6159 16.6023C10.5983 18.6895 10.6854 20.7463 10.936 21.3729C11.1412 21.8859 11.6426 23.1397 13.2266 23.1396C13.4589 23.1396 13.7148 23.1125 13.9962 23.0522C15.6492 22.6978 16.367 21.9672 16.6448 20.3565C16.7933 19.4957 17.0484 17.4401 17.1682 16.3375C17.4214 16.4164 17.7473 16.4526 18.0996 16.4525C18.8343 16.4525 19.6821 16.2965 20.2138 16.0497C20.811 15.7723 21.8888 15.0916 21.6934 14.5003ZM17.7568 7.0494C17.7513 7.37493 17.7065 7.67045 17.659 7.97893C17.608 8.31068 17.5551 8.65368 17.5418 9.07005C17.5286 9.47528 17.5793 9.89658 17.6282 10.3039C17.7271 11.1268 17.8286 11.974 17.4357 12.81C17.3747 12.7015 17.3157 12.5832 17.2617 12.4522C17.2129 12.3338 17.1069 12.1437 16.9601 11.8806C16.389 10.8563 15.0515 8.4578 15.7362 7.47905C15.9401 7.18768 16.4576 6.8882 17.7568 7.0494ZM16.1821 1.53483C18.0861 1.57688 19.5923 2.2892 20.6588 3.65188C21.4767 4.69713 20.576 9.4531 17.9687 13.5561C17.943 13.5234 17.9167 13.4904 17.8896 13.4565C17.8788 13.4429 17.8677 13.4291 17.8566 13.4152C18.5303 12.3025 18.3986 11.2016 18.2813 10.2255C18.2332 9.8249 18.1877 9.44655 18.1992 9.09123C18.2112 8.71445 18.261 8.39145 18.3092 8.07908C18.3684 7.69408 18.4286 7.29578 18.412 6.8262C18.4244 6.77698 18.4294 6.71878 18.4229 6.6497C18.3805 6.19938 17.8664 4.85183 16.8186 3.632C16.2455 2.9649 15.4095 2.21828 14.2683 1.71471C14.7592 1.61298 15.4305 1.5181 16.1821 1.53483ZM5.5273 15.9062C5.00072 16.5393 4.63705 16.418 4.51747 16.3782C3.73825 16.1183 2.83415 14.4714 2.03705 11.8599C1.34731 9.60018 0.944217 7.32793 0.912347 6.69075C0.811612 4.67563 1.30009 3.27123 2.36425 2.51653C4.0961 1.28835 6.94347 2.02346 8.0876 2.39632C8.07112 2.41252 8.05402 2.42772 8.03772 2.44418C6.1603 4.3403 6.20482 7.57983 6.20942 7.77783C6.20927 7.85423 6.21565 7.9624 6.22445 8.1112C6.25675 8.65605 6.31685 9.67015 6.15627 10.8186C6.007 11.8858 6.33595 12.9303 7.05867 13.6844C7.1335 13.7624 7.2116 13.8357 7.29227 13.9047C6.97055 14.2492 6.27142 15.011 5.5273 15.9062ZM7.53357 13.2293C6.95107 12.6215 6.68655 11.7761 6.8077 10.9097C6.9773 9.69648 6.91467 8.6399 6.88105 8.07228C6.87635 7.99285 6.8722 7.92325 6.8697 7.86833C7.144 7.62518 8.41502 6.94408 9.32142 7.15178C9.73512 7.24655 9.9871 7.52818 10.0919 8.0127C10.6342 10.5209 10.1637 11.5664 9.78562 12.4064C9.70767 12.5795 9.63407 12.7431 9.57117 12.9124L9.52247 13.0432C9.3991 13.374 9.28432 13.6815 9.2132 13.9736C8.59402 13.9717 7.99162 13.7072 7.53357 13.2293ZM7.62862 16.612C7.44782 16.5668 7.2852 16.4883 7.1898 16.4233C7.26947 16.3857 7.41132 16.3348 7.65727 16.2841C8.84767 16.039 9.03145 15.8661 9.43292 15.3563C9.525 15.2395 9.62932 15.107 9.7738 14.9456C9.98905 14.7047 10.0876 14.7453 10.2661 14.8194C10.4108 14.8793 10.5517 15.0606 10.6088 15.2601C10.6359 15.3544 10.6663 15.5333 10.5669 15.6725C9.72827 16.8467 8.50625 16.8316 7.62862 16.612ZM13.8583 22.4091C12.4021 22.7211 11.8865 21.9781 11.5467 21.1287C11.3274 20.5803 11.2196 18.1074 11.2961 15.3766C11.2971 15.3402 11.2919 15.3052 11.2819 15.2722C11.2732 15.2085 11.2598 15.1441 11.2412 15.0792C11.1275 14.6819 10.8504 14.3495 10.5179 14.2117C10.3858 14.157 10.1434 14.0566 9.85205 14.1311C9.91422 13.8751 10.022 13.5861 10.1387 13.2731L10.1878 13.1413C10.243 12.9929 10.3121 12.8391 10.3854 12.6764C10.781 11.7974 11.3229 10.5935 10.7348 7.87365C10.5145 6.85495 9.77892 6.35753 8.66377 6.47303C7.9952 6.5422 7.38362 6.81195 7.07857 6.96663C7.01297 6.99985 6.95297 7.03195 6.89695 7.06323C6.98205 6.0368 7.30377 4.11863 8.5071 2.905C9.2647 2.14092 10.2737 1.76358 11.5031 1.78389C13.9254 1.82357 15.4788 3.06668 16.3554 4.10258C17.1108 4.99525 17.5198 5.89443 17.6831 6.37935C16.4554 6.25458 15.6205 6.49693 15.1972 7.10203C14.2764 8.41828 15.701 10.9731 16.3857 12.2009C16.5112 12.426 16.6196 12.6204 16.6537 12.7031C16.8766 13.2434 17.1652 13.6041 17.376 13.8675C17.4406 13.9482 17.5033 14.0264 17.5509 14.0948C17.1791 14.202 16.5112 14.4496 16.5721 15.6876C16.523 16.3089 16.1739 19.2172 15.9966 20.2448C15.7625 21.6023 15.2629 22.1079 13.8583 22.4091ZM19.9368 15.4531C19.5566 15.6296 18.9203 15.762 18.3158 15.7904C17.6482 15.8216 17.3084 15.7156 17.2285 15.6504C17.1909 14.8789 17.4781 14.7983 17.782 14.7129C17.8297 14.6995 17.8764 14.6864 17.9213 14.6707C17.9493 14.6935 17.9799 14.716 18.0134 14.7382C18.55 15.0923 19.5071 15.1305 20.8582 14.8517C20.8632 14.8506 20.8682 14.8497 20.8731 14.8487C20.6909 15.019 20.379 15.2477 19.9368 15.4531Z" fill="white"/>
</svg>
