<svg width="25" height="24" viewBox="0 0 25 24" fill="none" xmlns="http://www.w3.org/2000/svg">
<g clip-path="url(#clip0_3_2)">
<path d="M9.94913 15.0974C10.6973 15.1505 11.29 15.7633 11.3055 16.5149L11.3059 16.545V22.2452C11.3059 23.0485 10.648 23.6994 9.8403 23.6994C9.03847 23.6994 8.38872 23.0641 8.3732 22.2742L8.3729 22.2452V19.0566L5.58155 20.6523C4.88163 21.0559 3.98648 20.817 3.58008 20.1232C3.1808 19.4366 3.4088 18.5591 4.08877 18.1501L4.11585 18.1342L9.09813 15.2872C9.36565 15.1327 9.66308 15.0732 9.94913 15.0974ZM15.8657 15.2675L15.9007 15.2872L20.882 18.1342C21.5839 18.5359 21.8221 19.4276 21.4186 20.1232C21.0195 20.808 20.1413 21.0496 19.4447 20.6677L19.4173 20.6523L16.6278 19.0566V22.2452C16.6278 23.0485 15.972 23.6994 15.1604 23.6994C14.3586 23.6994 13.7105 23.0641 13.695 22.2742L13.6947 22.2452V16.545C13.6947 15.7797 14.2916 15.1512 15.0514 15.0974C15.3242 15.0742 15.6074 15.1277 15.8657 15.2675ZM2.92297 7.87475L2.95044 7.89005L7.92898 10.7389C8.27903 10.939 8.51262 11.2563 8.61125 11.6114C8.644 11.7258 8.65895 11.84 8.66473 11.9544C8.66845 12.1124 8.64775 12.2724 8.598 12.4277C8.49642 12.7539 8.28 13.0455 7.96222 13.2377L7.92898 13.2572L2.95044 16.108C2.24764 16.5089 1.35165 16.2717 0.948298 15.578C0.547104 14.8896 0.775223 14.0163 1.45726 13.6067L1.48406 13.591L4.26607 12.0009L1.48406 10.4063C0.781255 10.0044 0.541045 9.1175 0.948298 8.42302C1.34641 7.73657 2.22445 7.49542 2.92297 7.87475ZM24.0524 8.42302C24.4587 9.1175 24.2184 10.0044 23.5158 10.4063L20.7336 12.0009L23.5158 13.591C24.2184 13.9936 24.4587 14.8807 24.0524 15.578C23.647 16.2717 22.7502 16.5089 22.0501 16.108L17.0678 13.2572C16.7356 13.0656 16.5049 12.7651 16.4025 12.4277C16.3538 12.2724 16.3312 12.1124 16.3368 11.9544C16.3397 11.84 16.3565 11.7258 16.3884 11.6114C16.4881 11.2563 16.7217 10.9391 17.0678 10.7389L22.0501 7.89005C22.7502 7.48915 23.647 7.72755 24.0524 8.42302ZM12.8034 9.28202C12.8878 9.28202 13.0041 9.32947 13.0633 9.38987L15.1341 11.4393C15.1932 11.4978 15.241 11.6141 15.241 11.6979V12.3022C15.241 12.3841 15.1932 12.5002 15.1341 12.5579L13.0633 14.6075C13.0041 14.6677 12.8897 14.717 12.8034 14.717H12.1945C12.1108 14.717 11.9946 14.6677 11.9345 14.6075L9.86475 12.5579C9.8055 12.5002 9.75762 12.3841 9.75762 12.3022V11.6979C9.75762 11.6141 9.8055 11.4978 9.86475 11.4393L11.9345 9.38987C11.9946 9.32947 12.1108 9.28202 12.1945 9.28202H12.8034ZM12.5105 11.0312H12.4872C12.4037 11.0312 12.2874 11.0796 12.2291 11.138L11.6296 11.7295C11.5695 11.7907 11.5235 11.9061 11.5235 11.9889V12.0121C11.5235 12.0939 11.5695 12.2083 11.6296 12.2678L12.2291 12.861C12.2882 12.9196 12.4037 12.9679 12.4872 12.9679H12.5105C12.5942 12.9679 12.7106 12.9196 12.7697 12.861L13.3693 12.2678C13.4284 12.2083 13.4789 12.0939 13.4789 12.0121V11.9889C13.4789 11.9061 13.4284 11.7907 13.3693 11.7295L12.7697 11.138C12.7106 11.0796 12.5942 11.0312 12.5105 11.0312ZM15.1604 0.300659C15.9623 0.300659 16.612 0.936132 16.6275 1.72397L16.6278 1.75286V4.94242L19.4173 3.34487C20.1182 2.9433 21.0142 3.1815 21.4186 3.87582C21.8169 4.56425 21.59 5.43822 20.9091 5.84727L20.882 5.86317L15.9007 8.7129C15.6332 8.86547 15.3366 8.92587 15.0514 8.9025C14.3016 8.8477 13.7104 8.2339 13.695 7.4831L13.6947 7.45297V1.75286C13.6947 0.951727 14.3488 0.300659 15.1604 0.300659ZM9.8403 0.300659C10.6383 0.300659 11.29 0.936132 11.3055 1.72397L11.3059 1.75286V7.45297C11.3059 8.21745 10.7073 8.84697 9.94913 8.9025C9.67553 8.92487 9.3915 8.87057 9.13317 8.73227L9.09813 8.7129L4.11585 5.86317C3.4149 5.46125 3.17555 4.57332 3.58008 3.87582C3.9812 3.19052 4.85845 2.94955 5.55417 3.32955L5.58155 3.34487L8.3729 4.94242V1.75286C8.3729 0.951727 9.02867 0.300659 9.8403 0.300659Z" fill="white"/>
</g>
<defs>
<clipPath id="clip0_3_2">
<rect width="24" height="24" fill="white" transform="translate(0.5)"/>
</clipPath>
</defs>
</svg>
