<svg width="24" height="6" viewBox="0 0 24 6" fill="none" xmlns="http://www.w3.org/2000/svg">
<path opacity="0.98" d="M2.42035 0.829651C1.22209 0.829651 0.25 1.80175 0.25 3C0.25 4.19825 1.22209 5.17035 2.42035 5.17035C3.6186 5.17035 4.59067 4.19825 4.59067 3C4.59067 1.80175 3.6186 0.829651 2.42035 0.829651ZM2.30726 4.73975V3.3784H1.55047L2.63783 1.26025V2.6216H3.36632L2.30726 4.73975Z" fill="white"/>
<path d="M6.32397 4.86055V1.11247H8.58472V1.56137H6.8486V2.69175H8.39V3.13525H6.8486V4.86055H6.32397ZM9.8737 4.49817L9.9509 4.4979C10.0384 4.49727 10.1173 4.49557 10.1874 4.49277C10.2811 4.48555 10.3587 4.47475 10.4199 4.46032V3.622C10.3839 3.60397 10.3244 3.58955 10.2415 3.57872C10.1621 3.56432 10.0648 3.5571 9.94942 3.5571C9.8737 3.5571 9.79257 3.5625 9.70605 3.57332C9.62312 3.58415 9.5456 3.60757 9.47347 3.64365C9.40497 3.6761 9.34727 3.72297 9.3004 3.78425C9.25352 3.84195 9.2301 3.91947 9.2301 4.01682C9.2301 4.1971 9.2878 4.3233 9.40317 4.39542C9.51855 4.46392 9.6754 4.49817 9.8737 4.49817ZM9.83042 1.97782C10.0197 1.97782 10.1805 2.0016 10.3128 2.04912L10.3388 2.05895C10.4701 2.10607 10.5762 2.1736 10.6572 2.26155L10.6741 2.2807C10.7607 2.37445 10.822 2.48802 10.858 2.62145C10.8941 2.75125 10.9121 2.89547 10.9121 3.05412V4.81187L10.8148 4.82875C10.7888 4.83335 10.76 4.83855 10.7282 4.84432L10.6694 4.85242C10.6086 4.86055 10.5416 4.86865 10.4686 4.87677C10.3713 4.88757 10.2649 4.8966 10.1495 4.9038C10.0377 4.91462 9.92597 4.92002 9.8142 4.92002C9.65557 4.92002 9.50952 4.9038 9.37612 4.87135C9.24272 4.8389 9.12732 4.78842 9.02997 4.71992C8.93262 4.6478 8.85692 4.55407 8.80282 4.43867C8.74875 4.3233 8.7217 4.18447 8.7217 4.02222C8.7217 3.8672 8.75235 3.73377 8.81365 3.622C8.87855 3.51022 8.96507 3.4201 9.07325 3.35157C9.18142 3.28307 9.30762 3.2326 9.45185 3.20015C9.59607 3.1677 9.7475 3.15147 9.90615 3.15147C9.95662 3.15147 10.0089 3.15507 10.063 3.16227C10.1171 3.1659 10.1676 3.1731 10.2144 3.18392L10.2625 3.19112C10.2853 3.19472 10.3064 3.19835 10.3256 3.20195L10.3992 3.21695C10.4076 3.21882 10.4145 3.22042 10.4199 3.22177V3.08115C10.4199 2.99822 10.4109 2.9171 10.3929 2.83777C10.3749 2.75485 10.3424 2.68272 10.2956 2.62145C10.2487 2.55652 10.1838 2.50605 10.1008 2.47C10.0215 2.43035 9.91697 2.4105 9.78717 2.4105C9.63512 2.4105 9.49975 2.4211 9.38105 2.44232L9.29842 2.45775C9.20085 2.47672 9.1258 2.49705 9.07325 2.51867L9.01375 2.10222C9.07865 2.07337 9.18682 2.04632 9.33827 2.0211C9.47455 1.99512 9.62107 1.98085 9.77782 1.97827L9.83042 1.97782ZM12.3967 4.49817C12.6022 4.49817 12.7536 4.47112 12.851 4.41705C12.9519 4.36297 13.0024 4.27642 13.0024 4.15745C13.0024 4.03485 12.9537 3.9375 12.8564 3.86537C12.759 3.79327 12.5986 3.71215 12.375 3.622C12.2669 3.57872 12.1623 3.53547 12.0613 3.4922C11.964 3.44532 11.8792 3.39125 11.8071 3.32995C11.735 3.26865 11.6773 3.19472 11.6341 3.1082C11.5908 3.02167 11.5692 2.9153 11.5692 2.7891C11.5692 2.5403 11.6611 2.3438 11.845 2.19957C12.0289 2.05175 12.2795 1.97782 12.5968 1.97782C12.6761 1.97782 12.7554 1.98325 12.8347 1.99405C12.9141 2.00127 12.988 2.01207 13.0565 2.0265C13.1152 2.03577 13.1673 2.04637 13.2128 2.0583L13.2732 2.07485C13.309 2.08497 13.3377 2.0941 13.3594 2.10222L13.2674 2.5349C13.2133 2.50605 13.1286 2.4772 13.0132 2.44837C12.8978 2.41592 12.759 2.3997 12.5968 2.3997C12.4562 2.3997 12.3336 2.42852 12.229 2.48622C12.1244 2.5403 12.0722 2.62685 12.0722 2.74582C12.0722 2.80712 12.083 2.86122 12.1046 2.90807C12.1298 2.95495 12.1659 2.99822 12.2128 3.0379C12.2633 3.07395 12.3245 3.1082 12.3967 3.14065C12.4688 3.1731 12.5553 3.20735 12.6563 3.2434C12.7897 3.2939 12.9087 3.34437 13.0132 3.39485C13.1178 3.44172 13.2061 3.4976 13.2782 3.5625C13.354 3.62742 13.4116 3.70672 13.4513 3.80047C13.491 3.89062 13.5108 4.0024 13.5108 4.1358C13.5108 4.39542 13.4135 4.59192 13.2187 4.72532C13.0276 4.85875 12.7536 4.92545 12.3967 4.92545C12.1603 4.92545 11.9728 4.90592 11.834 4.86687L11.7208 4.83405C11.6295 4.80695 11.5645 4.78515 11.5259 4.7686L11.6178 4.33592L11.6869 4.36115C11.7406 4.3804 11.8095 4.40442 11.8937 4.43327C12.0124 4.474 12.168 4.49555 12.3602 4.49795L12.3967 4.49817ZM14.6213 2.04815H15.6867V2.47H14.6213V3.76802C14.6213 3.90865 14.632 4.02582 14.6537 4.11957C14.6753 4.20972 14.7078 4.28185 14.751 4.33592C14.7943 4.3864 14.8484 4.42245 14.9133 4.4441C14.9782 4.46572 15.0539 4.47655 15.1404 4.47655C15.2919 4.47655 15.4127 4.46032 15.5028 4.42787L15.6975 4.35215L15.7949 4.7686C15.7444 4.79385 15.6561 4.8245 15.5299 4.86055C15.4037 4.9002 15.2595 4.92002 15.0972 4.92002C14.9061 4.92002 14.7475 4.8966 14.6213 4.84972C14.4987 4.79925 14.3995 4.72532 14.3238 4.62797C14.248 4.53062 14.194 4.41165 14.1615 4.27102C14.1327 4.1268 14.1182 3.96092 14.1182 3.77345V1.2639L14.6213 1.17737V2.04815ZM18.8633 4.86055C18.802 4.6983 18.7444 4.53965 18.6903 4.3846C18.6362 4.22595 18.5803 4.0655 18.5226 3.90325H16.8244L16.4836 4.86055H15.9373L16.0588 4.5281C16.1283 4.33852 16.1956 4.15665 16.2606 3.98242L16.4183 3.56142C16.5181 3.29605 16.6156 3.04222 16.7108 2.79992C16.8198 2.5307 16.9273 2.27287 17.0334 2.02645L17.0732 1.93455C17.1921 1.65692 17.3165 1.3829 17.4463 1.11247H17.9277C18.0359 1.33782 18.1402 1.56567 18.2409 1.79605L18.3008 1.93455C18.4198 2.2086 18.5388 2.49705 18.6578 2.79992C18.7682 3.0725 18.88 3.3597 18.9932 3.66147L19.1134 3.98242C19.2156 4.2562 19.3233 4.54892 19.4366 4.86055H18.8633ZM18.3712 3.47057C18.2558 3.15687 18.1404 2.854 18.025 2.56195C17.9132 2.26627 17.7961 1.98325 17.6735 1.71282C17.5473 1.98325 17.4265 2.26627 17.3111 2.56195C17.1993 2.854 17.0875 3.15687 16.9758 3.47057H18.3712ZM20.9354 1.07462C21.448 1.07462 21.8443 1.17032 22.1244 1.36175L22.1469 1.3775C22.4317 1.5758 22.5742 1.87327 22.5742 2.26987C22.5742 2.48622 22.5345 2.67192 22.4552 2.82695C22.3795 2.9784 22.2677 3.1028 22.1198 3.20015C21.9756 3.2939 21.7989 3.3624 21.5898 3.40567C21.3807 3.44892 21.1445 3.47057 20.8813 3.47057H20.4648V4.86055H19.9402V1.16655C20.0881 1.1305 20.2521 1.10707 20.4324 1.09625C20.5979 1.08327 20.7503 1.07612 20.8895 1.07482L20.9354 1.07462ZM20.9786 1.53432L20.8767 1.53475C20.7023 1.53617 20.565 1.54145 20.4648 1.55055V3.02167H20.8596C21.0399 3.02167 21.2022 3.01085 21.3464 2.98922C21.4906 2.96397 21.6114 2.9243 21.7088 2.87022C21.8097 2.81252 21.8873 2.73502 21.9414 2.63767C21.9954 2.5403 22.0225 2.41592 22.0225 2.26447C22.0225 2.12927 21.9971 2.01625 21.9464 1.9254L21.9359 1.90752C21.8818 1.81377 21.8061 1.73985 21.7088 1.68577C21.615 1.62807 21.5051 1.58842 21.3789 1.56677C21.2527 1.54515 21.1193 1.53432 20.9786 1.53432ZM23.2255 1.11247H23.75V4.86055H23.2255V1.11247Z" fill="white"/>
</svg>
