<svg width="24" height="14" viewBox="0 0 24 14" fill="none" xmlns="http://www.w3.org/2000/svg">
<path d="M12.8954 9.53075H15.1931V10.0837H13.5289V11.0591H15.0976V11.592H13.5289V13.0903H12.8954V9.53075ZM15.7562 9.28942H16.3595V13.0903H15.7562V9.28942ZM17.0181 9.85755C17.0181 9.7604 17.054 9.6758 17.1261 9.60365C17.1981 9.53163 17.2896 9.49555 17.4002 9.49555C17.5108 9.49555 17.6038 9.52995 17.6792 9.59857C17.7547 9.66727 17.7924 9.7537 17.7924 9.85748C17.7924 9.96145 17.7547 10.0477 17.6792 10.1164C17.6038 10.1851 17.5108 10.2193 17.4002 10.2193C17.2895 10.2193 17.1982 10.1834 17.1261 10.1113C17.054 10.0394 17.0181 9.95477 17.0181 9.85755ZM17.1035 10.677H17.7068V13.0903H17.1035V10.677ZM18.4409 10.677H19.014V11.0641H19.0242C19.0777 10.9435 19.1707 10.8372 19.3032 10.745C19.4356 10.6528 19.5923 10.6066 19.7733 10.6066C19.9308 10.6066 20.0657 10.6343 20.178 10.6896C20.2903 10.7449 20.3824 10.8177 20.4546 10.9082C20.5266 10.9987 20.5794 11.1028 20.613 11.2199C20.6464 11.3373 20.6633 11.458 20.6633 11.582V13.0903H20.0599V11.753C20.0599 11.6826 20.0549 11.6089 20.0449 11.5318C20.0348 11.4547 20.013 11.3851 19.9795 11.3231C19.946 11.2611 19.8999 11.21 19.8413 11.1698C19.7825 11.1296 19.7046 11.1094 19.6074 11.1094C19.5102 11.1094 19.4264 11.1288 19.3561 11.1672C19.2856 11.2058 19.2279 11.2553 19.1826 11.3155C19.1374 11.3758 19.1029 11.4455 19.0796 11.5242C19.0561 11.603 19.0445 11.6826 19.0445 11.763V13.0903H18.4411L18.4409 10.677ZM21.377 9.28942H21.9803V11.6926H21.9954L22.9104 10.677H23.6846L22.6389 11.768L23.75 13.0903H22.9506L21.9954 11.8535H21.9803V13.0903H21.377L21.377 9.28942Z" fill="white"/>
<path d="M7.9259 12.9127C7.76505 12.9107 7.60455 12.9102 7.44382 12.9102L7.02892 12.9106C7.02892 12.9106 5.8426 12.9101 5.27542 12.9101C5.1865 12.9101 5.0971 12.9104 5.00792 12.9107C4.91877 12.9109 4.8296 12.9113 4.7402 12.9113C4.68445 12.9113 4.6287 12.9112 4.57305 12.9108C4.23567 12.9088 3.91315 12.8682 3.61462 12.79C2.42545 12.4789 1.52516 11.7735 0.938234 10.6937C0.656959 10.176 0.497064 9.59697 0.463302 8.97307C0.448322 8.6956 0.462469 8.41125 0.505504 8.12807C0.510617 8.0943 0.516797 8.06055 0.522862 8.02655L0.536532 7.94927L0.559714 7.9721C0.571959 7.98422 0.575764 7.99682 0.578497 8.00632C0.590147 8.04402 0.600847 8.0823 0.611784 8.12022C0.634372 8.19927 0.657912 8.28107 0.685492 8.35952C0.887709 8.93635 1.19478 9.47667 1.62419 10.0122C1.64119 10.0334 1.65391 10.0568 1.66128 10.0795C1.80691 10.5278 2.06001 10.915 2.41333 11.2315C2.75702 11.5391 3.16905 11.7695 3.63972 11.9175C3.33787 11.7884 3.05837 11.6233 2.80707 11.4251C2.39728 11.1019 2.10174 10.7064 1.92936 10.2494C1.91212 10.2035 1.89761 10.1481 1.92103 10.0868C1.92864 10.0658 1.93411 10.0442 1.93982 10.0224C1.9435 10.0075 1.94719 9.9925 1.95194 9.97762C2.04479 9.67412 2.18578 9.43612 2.38289 9.25042C2.56667 9.07735 2.80065 8.95072 3.09832 8.86322C3.37627 8.78145 3.66635 8.7446 3.9468 8.70892L4.0671 8.69347C4.22402 8.6729 4.38332 8.64865 4.53705 8.62487L4.62965 8.6106C4.66412 8.60537 4.69835 8.5979 4.7339 8.59015L4.82032 8.5721L4.79762 8.61072C4.79585 8.61405 4.79442 8.6168 4.79192 8.61965C4.64617 8.78275 4.52407 8.96405 4.42862 9.15912C4.42065 9.17565 4.4033 9.19087 4.38652 9.19622C4.36585 9.203 4.34527 9.20965 4.32472 9.21655C4.2592 9.23855 4.19167 9.26065 4.12297 9.27432C4.04902 9.28907 3.9733 9.29977 3.89995 9.31C3.84122 9.31832 3.7826 9.32652 3.72412 9.33722C3.52772 9.37217 3.37555 9.4353 3.26072 9.5317C3.28592 9.52565 3.31195 9.52185 3.33752 9.51815C3.37307 9.51305 3.40967 9.50757 3.4432 9.49605C3.62425 9.43302 3.82302 9.4038 4.06887 9.4038L4.10205 9.4039C4.14602 9.40437 4.19015 9.4064 4.23472 9.40855L4.32115 9.41212L4.3146 9.4334C4.13842 10.0094 4.14342 10.5745 4.32875 11.1164C4.25125 10.7489 4.2371 10.4076 4.28512 10.0777C4.35847 9.57355 4.58067 9.13905 4.94562 8.78632C5.1916 8.54842 5.50045 8.3487 5.88932 8.1761C6.22707 8.02595 6.57895 7.93582 6.91027 7.85617L6.97292 7.84085C7.20927 7.78402 7.45382 7.7253 7.6905 7.65575C8.0456 7.55172 8.35422 7.38065 8.6078 7.14645C8.64572 7.11137 8.689 7.07155 8.723 7.02757C8.96517 6.71372 9.2475 6.49105 9.58585 6.34672C9.5956 6.34257 9.60665 6.33222 9.61367 6.32045C9.72447 6.13975 9.85725 6.00672 10.0198 5.9134C10.056 5.8926 10.092 5.88215 10.1271 5.88215C10.1716 5.88215 10.216 5.89915 10.2594 5.9322C10.2758 5.9448 10.2908 5.958 10.304 5.97142C10.3609 6.0286 10.4065 6.09897 10.448 6.19242C10.4531 6.2036 10.4577 6.20717 10.4702 6.2087C10.5116 6.21417 10.554 6.21977 10.5963 6.2281C11.2876 6.36515 11.7688 6.8968 11.8523 7.61605C11.8546 7.63517 11.856 7.65455 11.8577 7.67382C11.8612 7.71947 11.865 7.76655 11.8786 7.80897C11.8958 7.8626 11.9215 7.9155 11.9468 7.96602C11.9578 7.9885 11.9692 8.01145 11.9795 8.03437C11.9884 8.05412 11.9978 8.07362 12.0071 8.09312C12.0291 8.13935 12.0515 8.18655 12.0702 8.23495C12.0988 8.30877 12.1022 8.3851 12.0802 8.46177C12.0707 8.49482 12.0507 8.4997 12.0396 8.4997C12.0312 8.4997 12.0222 8.49685 12.0129 8.49112C11.9939 8.47887 11.9761 8.46532 11.9585 8.4513C11.9502 8.4444 11.9415 8.4381 11.9329 8.4317C11.9234 8.42432 11.9141 8.41707 11.9049 8.40935C11.8825 8.39197 11.862 8.3751 11.8387 8.36237C11.8303 8.35775 11.8215 8.35512 11.8131 8.35512C11.8043 8.35512 11.7959 8.35775 11.788 8.36285L11.8206 8.39197C11.8787 8.44357 11.9369 8.4953 11.9938 8.54772C12.0058 8.55865 12.0138 8.57887 12.0127 8.59527C12.0059 8.70322 11.9682 8.79272 11.9004 8.8617C11.8195 8.94347 11.7348 8.98317 11.6414 8.98317C11.6215 8.98317 11.601 8.98127 11.5803 8.9776C11.5766 9.01385 11.5688 9.0274 11.5386 9.04357C11.3477 9.14712 11.1615 9.19752 10.9697 9.19752L10.9398 9.1973C10.8091 9.1973 10.6819 9.23437 10.5394 9.31392C10.4902 9.34115 10.4468 9.3598 10.4064 9.3705C10.2838 9.40307 10.16 9.41532 10.0481 9.42055C10.0961 9.4272 10.1462 9.43042 10.2001 9.43042C10.2345 9.43042 10.2699 9.429 10.308 9.4265L10.33 9.42425C10.3462 9.4227 10.3626 9.42127 10.3783 9.42127C10.3993 9.42127 10.4167 9.42387 10.4313 9.42995C10.5312 9.47085 10.6289 9.5203 10.7206 9.56712C10.7385 9.5764 10.7515 9.5802 10.7634 9.5802C10.7701 9.5802 10.7764 9.5789 10.7833 9.5764L10.8101 9.56642C10.8601 9.54752 10.9117 9.52802 10.9612 9.50615C11.0784 9.45395 11.1797 9.42935 11.2796 9.42935C11.3063 9.42935 11.3329 9.43137 11.3596 9.43495C11.4279 9.4442 11.5079 9.4599 11.58 9.50425C11.6155 9.52612 11.6628 9.56262 11.6672 9.63072C11.6675 9.63192 11.6697 9.63597 11.6753 9.6412C11.6841 9.64917 11.6931 9.65677 11.7024 9.66437C11.7117 9.672 11.7212 9.67995 11.7301 9.6884C11.786 9.73962 11.8106 9.80455 11.8037 9.88145C11.8014 9.90297 11.7967 9.95337 11.7535 9.95337C11.7406 9.95337 11.7252 9.94862 11.7038 9.9378C11.695 9.93317 11.6867 9.9295 11.6792 9.92735C11.7004 9.9402 11.7208 9.95315 11.7409 9.96682C11.7886 9.99927 11.8119 10.049 11.8096 10.1145C11.8051 10.2571 11.6549 10.3922 11.5004 10.3922C11.4821 10.3922 11.4639 10.3899 11.4468 10.3863C11.4013 10.3762 11.3447 10.3572 11.3106 10.298C11.3095 10.2963 11.3056 10.2937 11.3048 10.2935L11.2785 10.2947C11.2476 10.2959 11.2157 10.2972 11.1861 10.304L11.1774 10.306C11.1271 10.3176 11.0754 10.3292 11.0223 10.3292C11.001 10.3292 10.9813 10.3273 10.962 10.3236C10.9384 10.3192 10.9149 10.3133 10.8909 10.3074L10.8736 10.3032C10.8462 10.3923 10.8018 10.4759 10.7417 10.5522C10.6073 10.7233 10.428 10.8437 10.194 10.9204C10.0245 10.9762 9.84205 11.0042 9.6517 11.0042C9.55172 11.0042 9.44675 10.9967 9.33987 10.9815C8.91832 10.9212 8.6241 10.692 8.46515 10.3004C8.43827 10.2348 8.42032 10.1651 8.40285 10.0976C8.3944 10.065 8.38572 10.0317 8.37622 9.99927C8.3263 9.8294 8.2634 9.6796 8.18375 9.5405C8.03907 9.28812 7.86027 9.10825 7.6369 8.99067C7.45832 8.89665 7.2629 8.84897 7.05627 8.84897C6.96972 8.84897 6.87925 8.85717 6.78712 8.8737C6.76845 8.87702 6.74992 8.88107 6.731 8.8851C6.79605 8.88807 6.85775 8.89165 6.92027 8.8977C7.20927 8.92695 7.47247 9.01575 7.70252 9.1615C8.01552 9.36015 8.20752 9.60695 8.28945 9.91582C8.33532 10.0884 8.4006 10.2603 8.4837 10.4269C8.53172 10.5234 8.59282 10.6352 8.6808 10.7296C8.80527 10.8626 8.96552 10.9535 9.18497 11.0152C9.24502 11.0322 9.3047 11.0507 9.36402 11.0697C9.39682 11.0803 9.41965 11.103 9.4338 11.1396C9.46815 11.2287 9.47672 11.3196 9.45912 11.4093C9.43332 11.5412 9.37067 11.6633 9.26737 11.7825C9.1858 11.8765 9.08465 11.9449 8.98667 12.0111C8.93747 12.044 8.89122 12.0791 8.84912 12.1151C8.81312 12.146 8.79445 12.1865 8.7966 12.229C8.79955 12.2992 8.8048 12.3018 8.818 12.3018C8.82892 12.3018 8.84605 12.2976 8.87397 12.2886C8.88765 12.2841 8.9012 12.2786 8.91465 12.2726L8.9963 12.2375C9.04292 12.2174 9.08927 12.1972 9.13635 12.1777C9.23812 12.1353 9.3388 12.1135 9.43535 12.1135C9.48705 12.1135 9.53852 12.1196 9.58882 12.1317C9.76965 12.1749 9.88827 12.2823 9.94155 12.451C9.9557 12.4966 9.9538 12.5356 9.935 12.5674C9.92265 12.5884 9.89422 12.606 9.8707 12.6067C9.84882 12.6067 9.8285 12.5873 9.81267 12.5701C9.804 12.5605 9.80175 12.5479 9.8002 12.5369C9.79947 12.5334 9.79887 12.5295 9.79805 12.5262C9.782 12.4662 9.75977 12.427 9.72625 12.4007C9.78617 12.4821 9.81292 12.5691 9.80805 12.6658C9.80317 12.7617 9.73125 12.8287 9.63317 12.8287C9.62925 12.8287 9.62532 12.8284 9.62092 12.8282C9.5837 12.8259 9.55992 12.8058 9.55612 12.7728C9.55352 12.75 9.55352 12.7264 9.5534 12.7038C9.5534 12.6944 9.5534 12.685 9.55315 12.6757C9.55292 12.6633 9.55305 12.6513 9.55315 12.6389C9.55315 12.6125 9.55327 12.5877 9.55007 12.5632C9.5427 12.5104 9.5113 12.4747 9.45675 12.4573C9.45295 12.4558 9.44912 12.4549 9.4451 12.4545C9.46162 12.4639 9.47577 12.4769 9.486 12.4957C9.5062 12.5331 9.52332 12.5672 9.53282 12.604C9.55707 12.7016 9.53317 12.7777 9.46375 12.8243C9.42772 12.8482 9.3816 12.8571 9.34095 12.8628C9.32442 12.8652 9.30825 12.8659 9.29197 12.8659C9.23122 12.8659 9.17177 12.8516 9.1146 12.838L9.08535 12.831C9.03102 12.8187 8.983 12.8123 8.93675 12.8121C8.89727 12.8121 8.85615 12.8197 8.81645 12.8271L8.79812 12.8304C8.497 12.8847 8.2262 12.9109 7.97082 12.9109L7.9259 12.9127Z" fill="white"/>
<path opacity="0.2" d="M10.3769 9.39842C10.3769 9.39842 9.933 9.92815 9.1788 9.62465C8.4881 9.34635 8.74 8.5804 8.74 8.5804C8.74 8.5804 8.86233 9.05545 9.21983 9.23542C9.7373 9.49615 10.3769 9.39842 10.3769 9.39842Z" fill="white"/>
<path opacity="0.2" d="M8.18929 9.62527C8.28546 9.723 8.28726 9.823 8.31746 9.94485C8.37439 10.174 8.44441 10.373 8.59041 10.5616C8.73081 10.7428 8.89879 10.8709 9.11574 10.9543C9.30369 11.0263 9.54526 11.005 9.50936 11.2849L9.44649 11.5205C8.96606 11.5205 8.51621 11.3013 8.33291 10.8246C8.17219 10.4063 8.36144 9.90097 7.87439 9.19387C7.91326 9.24152 8.13949 9.57427 8.18929 9.62527Z" fill="white"/>
<path opacity="0.2" d="M7.99905 9.4177C8.00642 9.44743 8.01295 9.47763 8.01972 9.5077C8.00177 9.48558 7.9925 9.45765 7.99905 9.4177Z" fill="white"/>
<path d="M2.40257 11.245C0.590688 11.066 0.377413 9.26228 0.377413 9.26228C0.377413 9.26228 0.27898 8.4263 0.50866 7.60625C0.656193 9.09823 1.8531 10.1312 1.8531 10.1312C1.8531 10.1312 2.11607 10.9813 2.40257 11.245Z" fill="url(#paint0_linear_6_145)"/>
<path opacity="0.2" d="M1.9507 10.5582C1.9507 10.5582 1.57064 10.5943 1.06372 9.97885C1.55245 10.8659 2.18597 10.8839 2.18597 10.8839L1.9507 10.5582Z" fill="white"/>
<path d="M2.92987 11.5938C2.8349 9.92582 3.81412 10.6998 4.31962 9.81528C4.46167 9.04135 4.888 8.5518 4.888 8.5518C4.888 8.5518 1.85578 7.9833 1.80823 10.1944C1.9138 10.6731 2.37779 11.1361 2.66845 11.3866C2.61153 11.2584 1.88764 9.2665 4.29845 9.4289C3.46627 9.35805 2.26497 10.2273 2.8375 11.5296C2.89505 11.5715 2.92987 11.5938 2.92987 11.5938Z" fill="url(#paint1_linear_6_145)"/>
<path opacity="0.2" d="M3.74973 9.1883C3.12298 9.42393 2.05852 9.42285 2.36143 11.0222C2.31292 11.0586 2.07076 10.6829 2.13115 10.7194C1.85249 9.28958 3.1042 9.3722 3.74973 9.1883Z" fill="white"/>
<path opacity="0.6" d="M4.5433 8.61553C5.1528 8.37443 4.6579 9.058 4.57135 9.16738C4.37115 9.42035 3.86508 9.33808 3.59523 9.4225C3.44008 9.471 2.81833 9.56218 2.61218 10.151C2.52053 10.4118 2.48616 10.8383 2.68125 11.3572C2.63285 11.3938 2.31224 11.0426 2.37287 11.0788C1.85846 8.78065 4.28533 9.60558 4.5433 8.61553Z" fill="white"/>
<path d="M11.2121 7.8583C11.2345 7.84915 11.2675 7.81337 11.2812 7.79232C11.2912 7.77722 11.2884 7.7676 11.3097 7.7682C11.3655 7.76975 11.3659 7.845 11.3631 7.88387C11.3598 7.93357 11.3397 7.97923 11.3324 8.02808C11.3144 8.02355 11.3044 8.00085 11.2839 7.99515C11.2679 7.9904 11.2447 7.99265 11.2277 7.99335C11.2031 7.99442 11.1687 8.01108 11.1464 8.00158L11.2121 7.8583Z" fill="white"/>
<path d="M3.9906 5.41355C3.9989 5.40392 4.00117 5.40107 4.00367 5.39835C4.2456 5.17247 4.37375 4.88737 4.4427 4.56867C4.488 4.36002 4.43032 4.176 4.3363 3.99612C4.33462 3.99315 4.33167 3.99017 4.32845 3.98615C4.30967 4.04487 4.29255 4.10252 4.27257 4.15922C4.22347 4.29905 4.16405 4.43432 4.06965 4.55012C4.03195 4.59625 2.45142 5.4718 2.61417 7.4109C2.61512 7.4229 2.61715 7.43432 2.6188 7.44775C2.64805 7.42052 2.6736 7.39235 2.7031 7.36917C2.8083 7.2869 2.92967 7.23447 3.05652 7.19905C3.28847 7.13437 3.52182 7.07495 3.75567 7.01775C4.0215 6.9526 4.28897 6.89222 4.54565 6.79402C4.6908 6.73862 4.8255 6.66562 4.95437 6.57765C5.14612 6.4464 5.31185 6.28937 5.4545 6.10747C5.5376 6.00155 5.57635 5.9207 5.6138 5.79625C5.63747 5.86007 5.6251 6.03865 5.58945 6.15252C5.55235 6.2701 5.48982 6.37282 5.40825 6.4671C5.42775 6.4609 5.44915 6.4577 5.46662 6.44772C5.69275 6.31885 5.89307 6.16015 6.04095 5.94257C6.1401 5.79682 6.2005 5.6373 6.20892 5.45967C6.20905 5.4572 6.21025 5.4547 6.21095 5.45077C6.25802 5.66867 6.25125 6.0396 6.00565 6.30315C6.09242 6.2726 6.171 6.2418 6.25125 6.21792C6.3177 6.19817 6.36157 6.1593 6.3982 6.10092C6.5594 5.84582 6.69302 5.57832 6.7653 5.28337C6.8213 5.0556 6.8352 4.82687 6.77255 4.59802C6.70145 4.33935 6.54525 4.1402 6.3327 3.98197C6.18505 3.87202 6.02217 3.79045 5.85122 3.72365C5.84087 3.7196 5.83052 3.71592 5.8203 3.7114C5.81865 3.7108 5.8178 3.7089 5.8114 3.70177C5.8706 3.71805 5.92362 3.73185 5.97615 3.74742C6.22117 3.82017 6.45572 3.91505 6.66355 4.06697C6.849 4.2025 6.99095 4.37155 7.06192 4.59387C7.12527 4.79287 7.1198 4.99402 7.07427 5.19517C7.0077 5.48857 6.871 5.74975 6.70467 5.99715C6.69955 6.005 6.69457 6.0125 6.6897 6.02022C6.68897 6.02127 6.6891 6.0233 6.68815 6.0277C6.69505 6.0251 6.7005 6.0233 6.7055 6.0207C7.05407 5.84247 7.36375 5.6146 7.61055 5.30835C7.85022 5.01115 8.0245 4.68017 8.10747 4.30522C8.21175 3.83207 8.0975 3.41195 7.79102 3.04137C7.59735 2.80682 7.3578 2.62945 7.09282 2.4849C6.7508 2.29872 6.3869 2.177 6.00172 2.121C5.78275 2.08902 5.56352 2.08295 5.34465 2.12505C5.22435 2.14787 5.14637 2.17947 5.0131 2.25652C5.02997 2.24215 5.04602 2.22692 5.06375 2.21397C5.18345 2.12302 5.32147 2.07605 5.4664 2.0467C5.70605 1.9982 5.94775 1.99877 6.18942 2.02695C6.56367 2.0707 6.92032 2.17437 7.2583 2.34152C7.29135 2.35817 7.32405 2.37517 7.36055 2.39395C7.36055 2.36327 7.35865 2.33652 7.36102 2.31002C7.364 2.26912 7.38467 2.2457 7.4169 2.2419C7.44757 2.2381 7.46552 2.24962 7.47157 2.27982C7.47645 2.30537 7.47777 2.33165 7.48145 2.35732C7.48965 2.41582 7.51687 2.4654 7.55705 2.50842C7.56097 2.51282 7.56585 2.51662 7.57072 2.51997C7.5731 2.52175 7.5762 2.52162 7.58475 2.5233C7.58475 2.50225 7.58487 2.48287 7.58475 2.46362C7.58417 2.4245 7.5825 2.38527 7.58345 2.34615C7.58367 2.33652 7.59057 2.32107 7.59712 2.31917C7.60627 2.31667 7.62292 2.32132 7.62875 2.32857C7.64407 2.34877 7.6606 2.37065 7.6675 2.39467C7.68282 2.44555 7.68985 2.4988 7.70565 2.54932C7.71625 2.58202 7.73277 2.61435 7.75357 2.64147C7.77627 2.67117 7.79945 2.66465 7.80812 2.62827C7.81622 2.59427 7.8192 2.55895 7.8243 2.52425C7.8261 2.51225 7.82657 2.49987 7.83025 2.4887C7.8331 2.47907 7.84022 2.4711 7.84535 2.4622C7.8532 2.46945 7.86485 2.4748 7.86817 2.48382C7.87612 2.50402 7.88397 2.5258 7.88505 2.54707C7.88755 2.59415 7.88302 2.64157 7.88647 2.68842C7.88837 2.7134 7.8967 2.74002 7.90882 2.76165C7.92237 2.78577 7.94425 2.78292 7.95162 2.75595C7.96245 2.71742 7.9678 2.6776 7.97552 2.63825C7.981 2.61162 7.98657 2.58512 7.993 2.55255C8.0245 2.5794 8.0321 2.60925 8.0352 2.63812C8.04317 2.71505 8.0472 2.79232 8.05387 2.86935C8.05922 2.92715 8.07895 2.9779 8.11307 3.02722C8.175 3.117 8.2298 3.21197 8.28532 3.30612C8.31375 3.3544 8.34012 3.3588 8.36687 3.3091C8.39707 3.25265 8.41955 3.19237 8.4451 3.13327C8.45627 3.10747 8.46555 3.0812 8.47732 3.05577C8.4828 3.0434 8.49207 3.03295 8.5005 3.0201C8.53082 3.0421 8.53807 3.07087 8.53225 3.0994C8.52357 3.14232 8.50775 3.18405 8.49657 3.22647C8.48445 3.27285 8.47175 3.3191 8.46447 3.3664C8.46175 3.38542 8.4703 3.40825 8.47887 3.42667C8.49122 3.45342 8.51072 3.45665 8.53152 3.43572C8.55292 3.41455 8.56935 3.38875 8.59002 3.36725C8.6018 3.35487 8.61785 3.34737 8.6321 3.33765C8.64007 3.355 8.65625 3.37307 8.65482 3.3897C8.65185 3.42502 8.6434 3.46105 8.63045 3.49407C8.60392 3.56125 8.5685 3.62522 8.5458 3.69332C8.5294 3.7428 8.5263 3.79687 8.52095 3.8493C8.5194 3.86215 8.53022 3.88485 8.54032 3.88855C8.55092 3.89222 8.57182 3.88175 8.58122 3.87142C8.62437 3.8241 8.66492 3.77405 8.70735 3.72542C8.71757 3.7133 8.7315 3.70475 8.74362 3.69427C8.74777 3.69642 8.7517 3.6981 8.75597 3.70035C8.75182 3.7278 8.75302 3.75752 8.74302 3.7831C8.7259 3.82552 8.70497 3.86725 8.68072 3.9059C8.64232 3.96735 8.59847 4.02502 8.55922 4.08565C8.48647 4.19775 8.43822 4.3202 8.40812 4.4505C8.38625 4.54417 8.35547 4.63582 8.32837 4.72797C8.32527 4.73937 8.321 4.75042 8.32065 4.76315C8.3443 4.72547 8.36747 4.68695 8.39197 4.64937C8.4432 4.57045 8.5023 4.49792 8.5817 4.44562C8.62165 4.41947 8.66457 4.39592 8.70927 4.37952C8.93907 4.295 9.17135 4.21642 9.39035 4.1062C9.45262 4.07447 9.5122 4.0363 9.5689 3.99495C9.6407 3.94287 9.6671 3.87022 9.6457 3.78225C9.63072 3.72115 9.61575 3.66017 9.60017 3.59657C9.56307 3.65577 9.53027 3.71282 9.49292 3.76632C9.4556 3.81982 9.40925 3.86522 9.3404 3.8958C9.3467 3.88402 9.34837 3.8789 9.35157 3.87475C9.44812 3.74172 9.50362 3.5905 9.5468 3.43392C9.5512 3.41777 9.5462 3.39827 9.54335 3.3808C9.5236 3.26667 9.53312 3.1523 9.53822 3.03782C9.53955 3.0151 9.53955 2.99145 9.5362 2.96887C9.53477 2.9584 9.52635 2.94532 9.51742 2.9414C9.51137 2.93867 9.49555 2.947 9.4902 2.95425C9.46797 2.9854 9.44325 3.01595 9.42837 3.0503C9.36857 3.18927 9.3114 3.32942 9.25422 3.46925C9.18312 3.64387 9.10312 3.8134 8.9809 3.95915C8.92562 4.02512 8.86285 4.08255 8.78557 4.12262C8.77097 4.1301 8.75515 4.13617 8.73862 4.1414C8.8581 4.01787 8.88485 3.86155 8.8902 3.70165C8.89732 3.49695 8.89317 3.29175 8.89532 3.0868C8.89745 2.8652 8.91577 2.6455 8.98185 2.432C8.98435 2.42355 8.98007 2.4112 8.97545 2.40275C8.9569 2.36637 8.93325 2.33237 8.91777 2.2948C8.88545 2.21597 8.85822 2.13515 8.82637 2.05585C8.80792 2.00925 8.80152 2.0058 8.75157 2.00937C8.69797 2.01317 8.66575 1.98237 8.63735 1.94422C8.61547 1.91532 8.60655 1.91605 8.59157 1.94992C8.57527 1.98677 8.56245 2.0247 8.54485 2.06095C8.53877 2.07332 8.52322 2.0814 8.51215 2.0914C8.5036 2.0788 8.48945 2.06642 8.4879 2.053C8.4834 2.00912 8.48457 1.9649 8.48137 1.92092C8.47982 1.89905 8.47697 1.87692 8.4696 1.85647C8.46602 1.84685 8.4513 1.8364 8.4406 1.83555C8.4331 1.83497 8.4199 1.84792 8.4167 1.85767C8.40575 1.88895 8.39945 1.92152 8.38947 1.95302C8.38162 1.97835 8.3702 1.98107 8.35512 1.9604C8.24515 1.8106 8.09857 1.70442 7.94165 1.61005C7.89527 1.58222 7.84987 1.5531 7.80385 1.52505C7.80065 1.5261 7.79745 1.5273 7.79447 1.52812C7.8004 1.57912 7.80647 1.63002 7.81217 1.6809C7.80802 1.68315 7.80385 1.68505 7.79982 1.6872C7.7852 1.67482 7.76855 1.6646 7.75642 1.6501C7.726 1.61407 7.6984 1.5758 7.6675 1.5399C7.60627 1.4681 7.52935 1.41675 7.4553 1.39975C7.47872 1.47997 7.50107 1.55595 7.52305 1.63215C7.51972 1.63392 7.5158 1.63537 7.51235 1.6369C7.50475 1.6274 7.49572 1.6186 7.48942 1.60825C7.47157 1.57912 7.45387 1.55012 7.43735 1.52017C7.36672 1.39237 7.25782 1.31865 7.11492 1.2981C7.0178 1.28407 6.91925 1.2748 6.82142 1.26812C6.7496 1.26315 6.68055 1.25257 6.6148 1.22105C6.56915 1.20025 6.5197 1.18587 6.47117 1.16982C6.4631 1.16697 6.45227 1.17042 6.4429 1.171C6.4436 1.18135 6.44135 1.19335 6.4455 1.20192C6.46832 1.24662 6.49317 1.29025 6.51612 1.33495C6.52457 1.351 6.53002 1.3687 6.5367 1.3857C6.53442 1.3882 6.5323 1.39047 6.53015 1.39295C6.51552 1.3881 6.50032 1.38475 6.48665 1.3781C6.4234 1.34742 6.35932 1.31855 6.2981 1.28407C6.2358 1.24887 6.1672 1.24602 6.0998 1.24032C5.8889 1.2226 5.68037 1.23675 5.4765 1.29845C5.3525 1.33577 5.2379 1.39212 5.1371 1.47927C5.1498 1.47797 5.163 1.47797 5.17537 1.4757C5.29842 1.45037 5.42157 1.4266 5.5483 1.43077C5.63462 1.4335 5.71865 1.4473 5.7944 1.49105C5.80652 1.49792 5.81412 1.51245 5.82387 1.52325C5.80687 1.5292 5.78905 1.54062 5.77275 1.53847C5.7334 1.53385 5.695 1.51922 5.6553 1.516C5.52905 1.5047 5.40755 1.53385 5.28735 1.567C4.99632 1.6469 4.73277 1.78277 4.488 1.95765C4.42832 2.0001 4.36637 2.03945 4.30432 2.07892C4.18352 2.1557 4.08582 2.25497 4.00855 2.37517C3.9995 2.38942 3.99117 2.40477 3.98535 2.42057C3.96955 2.46457 3.9812 2.5013 4.0227 2.52317C4.0524 2.53887 4.08535 2.55005 4.11827 2.558C4.55325 2.66405 4.87722 3.0226 4.92737 3.46615C4.94627 3.63247 4.96947 3.79925 4.96115 3.96795C4.942 4.35515 4.8034 4.69255 4.54482 4.9807C4.3911 5.15212 4.20945 5.2885 4.01045 5.40322C4.00652 5.40582 4.00225 5.4075 3.9906 5.41355Z" fill="url(#paint2_linear_6_145)"/>
<path opacity="0.2" d="M9.5648 2.84335C9.37992 4.28635 8.73962 3.95977 8.3207 4.76532C8.29775 4.73487 8.24485 4.9812 8.35042 4.52387C8.4561 4.06605 8.75902 4.2728 9.04565 3.74922C9.40857 3.08752 9.33617 3.0282 9.5648 2.84335Z" fill="white"/>
<path opacity="0.3" d="M7.65147 2.87055C7.58275 3.28355 6.9988 3.2649 6.49915 3.08965C5.95622 2.8992 4.82802 2.8381 4.73732 3.06528C4.69202 3.11735 4.60107 2.90325 4.60107 2.90325C4.60107 2.90325 5.45785 1.96848 6.89217 2.95508C6.8338 2.86425 7.40765 2.59843 7.40765 2.59843C7.40765 2.59843 7.58015 2.5459 7.65147 2.87055Z" fill="white"/>
<path opacity="0.2" d="M4.67969 6.83587C4.71084 6.91315 4.96454 6.86107 4.98832 6.7404C4.61407 6.31647 5.59937 5.53745 4.69062 4.52065C5.28517 6.0894 4.01919 6.15325 4.67969 6.83587Z" fill="white"/>
<path opacity="0.6" d="M4.67969 6.836C4.71084 6.91328 4.70524 6.89115 4.72892 6.7705C4.35467 6.34643 5.35149 5.72813 4.69062 4.52075C5.28517 6.08953 4.01919 6.15338 4.67969 6.836Z" fill="white"/>
<path d="M6.04315 6.5265C7.8417 4.634 5.5681 4.95105 4.8271 3.66655C4.8284 3.64443 4.82995 3.62303 4.82995 3.60033C4.82995 3.42175 4.78668 3.25365 4.7113 3.10458C5.40488 4.13328 7.163 3.2262 6.82158 5.3291C6.7908 5.43718 6.54613 6.50283 6.04315 6.5265Z" fill="url(#paint3_linear_6_145)"/>
<path d="M6.04313 6.52633C5.30273 6.88975 4.65543 6.90045 4.68598 6.79263C6.15715 5.79438 4.96963 4.76567 4.69275 3.79667C4.71165 3.71845 4.82995 3.68932 4.82995 3.60052C4.82995 3.591 4.82875 3.58197 4.82853 3.57257C4.84993 3.66875 4.90055 3.70215 4.94918 3.7509C5.633 4.44065 7.80663 4.67118 6.04313 6.52633Z" fill="url(#paint4_linear_6_145)"/>
<path d="M5.81142 6.49815C6.95019 4.79718 4.82422 4.47408 4.83957 3.93483C4.67027 5.04398 6.70814 5.5188 4.79332 6.84635C4.76277 6.95408 5.07089 6.8617 5.81142 6.49815Z" fill="white"/>
<path d="M8.99385 3.54352C9.08432 3.69462 8.98385 3.87295 8.87852 4.03998C8.78127 4.1943 8.5465 4.14377 8.38717 4.51575L8.40085 4.2259C8.57727 3.91837 8.27877 3.49502 8.19555 3.20887C8.0542 2.72145 7.90025 2.27172 8.08785 1.77717C8.10045 1.744 8.11125 1.70763 8.1241 1.6735C8.21765 1.74258 8.28827 1.81143 8.36875 1.91638C8.4219 1.98605 8.40335 1.73662 8.47325 1.78907C8.52472 1.82697 8.47075 2.0034 8.51985 2.04418C8.57467 2.09055 8.60782 1.82212 8.64755 1.88155C8.74037 2.02112 8.79365 1.93255 8.83322 1.9744C8.86902 2.01233 8.9527 2.30465 8.98647 2.34425C9.0194 2.38265 9.05102 2.42222 9.08217 2.46205C9.0634 2.67485 9.02202 2.91405 8.95355 3.10605C8.889 3.28732 8.88602 3.36295 8.99385 3.54352Z" fill="url(#paint5_linear_6_145)"/>
<path d="M6.46206 1.32157C6.46763 1.3236 6.47228 1.32442 6.47513 1.3243C6.52493 1.32347 6.34078 1.092 6.39368 1.092C6.48308 1.092 6.60911 1.18425 6.69648 1.19102C6.88111 1.20517 7.07238 1.20102 7.23586 1.2758C7.39243 1.3476 7.46208 1.5705 7.49716 1.5799C7.53258 1.58965 7.41191 1.32227 7.44651 1.33417C7.50513 1.3539 7.55196 1.3829 7.59061 1.415C7.74516 1.63625 7.79543 2.7327 7.56848 2.7044C7.33026 2.67467 7.94438 2.78857 7.94688 2.77942C8.15231 2.0042 7.69473 1.52747 7.71543 1.55435C7.74253 1.59 7.76428 1.6177 7.78746 1.62662C7.83621 1.6454 7.75703 1.43972 7.80161 1.46695C7.94343 1.55362 8.04401 1.61472 8.12663 1.6763C8.12913 1.67987 8.12986 1.68845 8.13388 1.68677C8.19488 1.66145 8.57053 1.57312 8.28463 2.92267C8.71878 2.04402 8.37891 1.69925 8.41218 1.73527C8.56638 1.90172 8.59788 2.30805 8.61773 2.54902C8.63641 2.77502 8.49423 3.29025 8.31008 3.46062C8.18026 3.58045 8.18286 3.43207 8.13426 3.31747C8.05423 3.1293 7.90753 2.9776 7.77438 2.82257C7.67523 2.70725 7.55493 2.62297 7.44591 2.51977C7.32716 2.40732 7.26463 2.25015 7.15846 2.12675C7.06348 2.01642 6.94686 1.92857 6.85661 1.8135C6.75533 1.68462 6.68768 1.53722 6.57593 1.41857C6.54051 1.38052 6.50081 1.352 6.46206 1.32157Z" fill="white"/>
<path d="M7.29475 1.19828C7.5601 1.19745 7.72675 1.32452 7.94622 1.44602C8.1281 1.5472 8.35172 1.54815 8.50545 1.68748C8.70967 1.8728 8.798 2.05648 8.8363 2.32778C8.88015 2.63662 8.8855 3.03038 8.82702 3.33815C8.79705 3.49603 8.68495 3.81963 8.56667 3.93505L8.42472 3.8447C8.14487 3.12177 7.30092 2.82518 6.9816 2.11473C6.88745 1.90563 6.85202 1.63385 6.84975 1.40538C6.84727 1.16618 7.10145 1.19898 7.29475 1.19828Z" fill="url(#paint6_linear_6_145)"/>
<path d="M4.6544 3.00475C4.5001 2.76497 4.2558 2.58867 3.9688 2.5246C3.89583 2.5083 3.76493 2.4629 3.8945 2.30705C4.033 2.09092 4.23203 2.00792 4.33913 1.92852C4.76985 1.60872 4.59175 1.57602 4.84295 1.54702C4.94115 1.53562 4.91523 1.52705 4.96505 1.54702C5.01485 1.567 4.92678 1.533 4.89525 1.5122C4.61493 1.32662 4.63515 1.69682 4.75558 1.6168C5.11448 1.33935 5.94095 1.1446 6.17265 1.18432C6.2063 1.19002 6.43918 1.3246 6.47498 1.324C6.52478 1.32317 6.34075 1.0917 6.39365 1.0917C6.48283 1.0917 6.60908 1.18395 6.69645 1.19072C6.87728 1.20465 7.4271 1.4568 7.42305 2.12062C7.42188 2.32345 7.43435 2.46562 7.407 2.59795C7.20668 3.56897 5.17713 2.20635 4.6544 3.00475Z" fill="white"/>
<path d="M7.0839 2.40623C6.98987 2.28875 6.37845 2.07703 6.37845 2.07703C6.37845 2.07703 5.36332 1.72715 4.42712 2.7235C4.9055 2.34368 5.74647 2.50298 6.35455 2.57313C6.43492 2.58253 6.18087 2.50145 6.24745 2.47683C6.4732 2.39325 6.68245 2.62745 6.9076 2.58228C7.0127 2.56135 7.0757 2.5043 7.0839 2.40623Z" fill="white"/>
<path d="M6.30521 2.2419C5.93241 2.1437 5.55972 2.28745 5.48792 2.29183C5.52179 2.24108 5.57684 2.12398 5.85287 2.08355C5.91637 2.07418 6.04356 2.08438 6.11026 2.08428C6.22961 2.08403 6.30367 2.1128 6.40902 2.16355C6.47617 2.1959 6.63869 2.23038 6.69017 2.2223C6.69017 2.2223 7.26164 2.26533 7.07236 2.4591C6.88321 2.65278 6.60729 2.20933 6.00159 2.35115C6.00184 2.33143 6.14021 2.23263 6.30521 2.2419Z" fill="white"/>
<path d="M5.74002 1.43845C5.50452 1.28248 5.09247 1.41623 5.0391 1.41553C5.0379 1.41005 5.04122 1.40398 5.05075 1.39793C5.40977 1.12045 5.9414 1.14518 6.1731 1.18488C6.1749 1.18513 6.17727 1.18595 6.18 1.1869C6.18107 1.18725 6.18275 1.18785 6.18417 1.18845C6.23432 1.2077 6.3984 1.30008 6.45807 1.3204C6.80735 1.51835 7.35907 1.93633 7.4077 2.5985C7.2093 2.5103 7.06662 2.42435 6.95702 2.34065C6.92005 2.31248 6.08537 1.44 3.87595 2.4883C3.87595 2.4883 3.8145 2.45455 3.84955 2.3756C4.3485 1.57388 5.25937 1.3436 6.7101 2.1029C6.50432 1.85763 6.4047 1.63558 5.74002 1.43845Z" fill="white"/>
<path d="M7.15251 5.94432C7.97078 5.10752 8.30423 4.48232 7.90813 3.8091C7.26663 2.71787 5.29106 3.85605 4.43188 2.7552C4.52296 2.85922 4.71661 3.06525 4.90373 3.16652C5.54058 3.58262 6.73928 3.44875 7.12126 3.77045C7.61283 4.18405 7.73826 5.01835 7.15251 5.94432Z" fill="url(#paint7_linear_6_145)"/>
<path d="M4.48636 4.19527C4.48541 4.25137 4.61378 4.5751 4.59371 4.64962C4.42133 5.286 3.67438 5.5982 3.67438 5.5982C3.67438 5.5982 2.83781 5.93487 2.70478 7.47367C2.55226 7.5834 2.57341 7.3497 2.57816 7.24577C2.67303 5.22775 4.35201 5.45327 4.48636 4.19527Z" fill="url(#paint8_linear_6_145)"/>
<path d="M7.33275 7.5301C7.31898 7.52367 7.30578 7.51548 7.29128 7.5113C7.21803 7.49085 7.1442 7.47207 7.07073 7.45115C7.04755 7.4445 7.02545 7.43393 7.00273 7.42525C7.00298 7.42025 7.0032 7.41538 7.0032 7.41063C7.02973 7.40585 7.05565 7.39755 7.08215 7.39717C7.1876 7.396 7.29305 7.39742 7.39863 7.39765C7.5477 7.39802 7.69725 7.3973 7.84098 7.3538C7.91113 7.3324 7.9796 7.3003 8.0439 7.2645C8.72308 6.88647 9.203 6.33317 9.49178 5.61265C9.55085 5.46535 9.59615 5.31305 9.6311 5.1585C9.63337 5.14995 9.6342 5.14102 9.6368 5.12617C9.62552 5.13307 9.61827 5.1364 9.6115 5.1408C9.19587 5.42553 8.74198 5.61857 8.24673 5.71237C8.06958 5.7458 7.89078 5.76255 7.71055 5.76777C7.69713 5.76815 7.6799 5.77325 7.67098 5.78253C7.40158 6.05715 7.08345 6.2602 6.74025 6.42912C6.46623 6.56382 6.17698 6.64525 5.87953 6.70315C5.49828 6.7772 5.11608 6.8476 4.73483 6.92095C4.26655 7.01092 3.80065 7.11092 3.34795 7.26402C3.06073 7.36105 2.78253 7.47768 2.52813 7.6447C2.33661 7.7707 2.16613 7.91955 2.04559 8.11773C2.00326 8.18763 1.97319 8.26503 1.93669 8.3386C1.93003 8.3518 1.92302 8.3656 1.91279 8.3757C1.66029 8.62262 1.56078 8.92302 1.59954 9.2716C1.62831 9.52945 1.72068 9.76533 1.8524 9.98728C1.86798 10.0133 1.88117 10.0404 1.89342 10.0633C1.89972 10.0071 1.90471 9.94412 1.91351 9.8817C1.96926 9.48452 2.17374 9.18875 2.52183 8.99115C2.72428 8.87585 2.94233 8.79962 3.1683 8.7497C3.41605 8.69502 3.66595 8.649 3.91573 8.60373C4.219 8.54893 4.52393 8.50315 4.81875 8.41018C4.87605 8.39223 4.93275 8.37143 4.9891 8.35003C5.06163 8.3228 5.1294 8.28773 5.19253 8.2409C5.4015 8.08693 5.6306 7.969 5.87193 7.87463C5.87858 7.87213 5.88478 7.86927 5.8913 7.86677C5.89155 7.86582 5.89168 7.8645 5.89263 7.862C5.8887 7.86165 5.88525 7.86117 5.88168 7.86117C5.6117 7.86105 5.34113 7.8626 5.07113 7.86105C4.82945 7.85952 4.5886 7.867 4.34905 7.8985C4.01725 7.9425 3.69615 8.02845 3.38338 8.14745C3.01448 8.2882 2.66543 8.4683 2.32686 8.6704C2.31783 8.67587 2.30855 8.6811 2.29631 8.68325C2.30273 8.67815 2.30855 8.67243 2.31474 8.66768C2.6853 8.38675 3.07985 8.14685 3.5151 7.97863C3.81825 7.86178 4.13103 7.78497 4.45438 7.75075C4.73923 7.72065 5.02418 7.72352 5.30925 7.7442C5.5557 7.76215 5.80215 7.7801 6.04895 7.79698C6.07035 7.79878 6.09318 7.79555 6.11398 7.7895C6.3578 7.7153 6.60733 7.67167 6.85925 7.6359C7.00808 7.61485 7.15478 7.5792 7.30233 7.54982C7.3123 7.54767 7.3217 7.54245 7.3312 7.53852C7.33168 7.53592 7.33228 7.53295 7.33275 7.5301Z" fill="url(#paint9_linear_6_145)"/>
<path opacity="0.2" d="M2.79321 8.36158C3.75911 7.20783 6.26491 7.81257 7.33271 7.53035C6.65676 7.91872 6.10669 7.85168 6.10669 7.85168C6.10669 7.85168 3.79931 7.5968 2.79321 8.36158Z" fill="white"/>
<path d="M10.178 3.9833C10.1453 3.9889 10.1211 3.99045 10.099 3.99757C10.0121 4.0248 9.92143 4.04502 9.83975 4.08425C9.76213 4.1217 9.6902 4.17482 9.62303 4.22952C9.49248 4.33555 9.36803 4.44837 9.23938 4.55572C9.13395 4.64357 9.0222 4.72217 8.88905 4.76295C8.84613 4.77602 8.80155 4.7835 8.75673 4.79087C8.93018 4.7035 9.0273 4.54777 9.128 4.388C9.11943 4.38952 9.11635 4.38917 9.11408 4.39025C8.84945 4.5197 8.5903 4.65797 8.35468 4.83712C8.2919 4.88502 8.2422 4.93947 8.2069 5.01377C8.1502 5.13195 8.0785 5.2431 8.01348 5.357C8.01063 5.3621 8.0074 5.3671 7.99958 5.38077C8.0565 5.36877 8.10645 5.3608 8.15555 5.34832C8.36288 5.2953 8.5557 5.20555 8.74495 5.10805C9.0405 4.95505 9.322 4.77815 9.59498 4.5883C9.60328 4.5826 9.61173 4.57712 9.62255 4.5738C9.62005 4.57725 9.61815 4.58105 9.61518 4.5839C9.29123 4.9069 8.92793 5.17297 8.50315 5.34927C8.31948 5.42582 8.12915 5.47682 7.9311 5.4974C7.92373 5.49847 7.9141 5.50072 7.90993 5.50585C7.86583 5.55922 7.82278 5.6132 7.77393 5.67345C7.89483 5.64755 8.0086 5.62485 8.12155 5.59857C8.43778 5.5251 8.74793 5.43177 9.04395 5.2972C9.2627 5.19782 9.4712 5.08095 9.64668 4.91475C9.87825 4.6953 10.0487 4.43565 10.1483 4.13155C10.1628 4.08685 10.1673 4.03847 10.178 3.9833Z" fill="white"/>
<path opacity="0.6" d="M4.70728 6.9197C4.80108 6.88817 4.90795 6.8492 5.02195 6.80545C6.36593 6.38638 6.81018 6.03687 6.81018 6.03687L8.16033 5.0373C8.16033 5.0373 8.38085 5.20625 8.66653 4.98535C8.47193 5.21895 7.87478 5.40073 7.87478 5.40073C7.87478 5.40073 7.8473 5.58452 7.65258 5.7273C8.18375 5.54672 9.07655 5.59855 9.69593 5.04075C9.22753 6.36557 8.06415 5.35568 6.93988 6.17965C6.81018 6.25763 5.09543 6.69582 5.94758 6.66575C6.79973 6.6358 7.36108 7.21738 8.07283 7.02668C7.40483 7.26908 6.81435 6.88082 5.88373 6.81542C6.02853 6.84442 6.22683 6.9242 6.31135 7.03323C5.97398 6.79238 5.3138 6.7813 5.1569 6.83635C5.01448 6.85443 4.8648 6.88165 4.70728 6.9197Z" fill="white"/>
<path opacity="0.2" d="M7.93107 7.3286C6.95185 7.7176 3.49082 6.59082 1.93679 8.33887C1.93679 8.33887 1.82041 8.2868 2.43931 7.59312C4.8726 6.42985 6.68352 7.52987 7.93107 7.3286Z" fill="white"/>
<path opacity="0.7" d="M9.44516 5.77885C9.73489 5.61588 9.49949 6.01425 9.20991 6.2495C8.06924 7.04603 7.55351 6.13965 6.42236 6.57583C8.15291 5.6218 8.32256 6.81075 9.44516 5.77885Z" fill="url(#paint10_radial_6_145)"/>
<path opacity="0.2" d="M9.35649 6.0051C9.64631 5.8421 9.49949 6.01438 9.20991 6.24975C8.06924 7.04625 7.55351 6.1399 6.42236 6.57607C7.53581 5.95647 8.23411 7.03675 9.35649 6.0051Z" fill="white"/>
<g opacity="0.7">
<path d="M3.72553 5.5779C3.19793 6.0608 3.61153 7.11825 3.61153 7.11825L3.23608 7.19872C3.23608 7.19872 2.85721 6.17635 3.72553 5.5779Z" fill="url(#paint11_radial_6_145)"/>
<path d="M4.63612 4.7677C5.03379 5.4754 3.97917 6.44892 4.54542 6.79355C4.53649 6.84005 4.22157 6.99793 4.23632 6.95228C3.53742 5.87983 4.69009 5.62412 4.53877 4.95362C3.73059 6.05625 3.72192 6.27452 4.11459 6.9726C4.10982 6.9764 4.06667 7.03275 4.02364 7.00065C3.40962 6.54035 3.23677 6.02298 4.63612 4.7677Z" fill="url(#paint12_radial_6_145)"/>
</g>
<path opacity="0.2" d="M5.93573 6.20582C5.96093 6.53727 6.19241 5.99887 6.22746 5.62722C6.25766 4.23655 4.84761 4.57287 4.78316 3.44777C4.64598 4.72777 6.17171 4.6996 5.93573 6.20582Z" fill="white"/>
<path opacity="0.3" d="M7.30295 5.6544C7.32793 5.98585 7.99343 5.13275 8.0286 4.76125C7.80523 2.37515 5.34935 3.82635 4.70728 2.9471C5.23773 3.91027 8.67045 2.57047 7.30295 5.6544Z" fill="white"/>
<path d="M11.7963 10.3005C11.7603 10.3322 11.7307 10.3609 11.6981 10.3859C11.6719 10.4057 11.6433 10.4233 11.6138 10.438C11.542 10.4727 11.4697 10.4772 11.3972 10.4387C11.2841 10.3788 11.1628 10.3742 11.039 10.3878C11.003 10.3916 10.9794 10.4087 10.9629 10.4424C10.8389 10.6975 10.6323 10.8613 10.3735 10.965C10.3439 10.9769 10.33 10.9906 10.3248 11.0229C10.3117 11.1041 10.3061 11.1839 10.3253 11.2649C10.3567 11.3944 10.4372 11.4872 10.5458 11.5587C10.6593 11.6336 10.786 11.6777 10.9168 11.7105C11.0741 11.7493 11.2333 11.7756 11.3958 11.7752C11.4784 11.775 11.5602 11.7654 11.6396 11.7414C11.817 11.6878 11.9266 11.5692 11.9668 11.3901C11.9928 11.2737 12.0174 11.1561 12.0293 11.0378C12.0565 10.7667 11.9839 10.5233 11.8046 10.3146C11.8015 10.3105 11.7993 10.3055 11.7963 10.3005Z" fill="url(#paint13_linear_6_145)"/>
<path opacity="0.3" d="M11.2834 10.3206C11.2968 10.402 11.4497 10.4242 11.5207 10.4218C11.6456 10.4176 11.7265 10.3447 11.8077 10.2501C11.8207 10.2347 11.831 10.2194 11.8399 10.2039C11.9812 10.3167 12.0604 10.4694 12.0386 10.6253C12.0001 10.8999 11.6619 11.0791 11.2835 11.0259C11.0218 10.9891 10.8094 10.8506 10.7162 10.6778C10.7854 10.5894 10.8125 10.4771 10.9037 10.4005C10.9926 10.3263 11.1681 10.3156 11.2834 10.3206Z" fill="white"/>
<path d="M2.08201 7.7383C2.1638 7.77872 2.22099 7.78752 2.27175 7.76922C2.21338 7.472 2.18282 7.1723 2.19317 6.8707C2.20482 6.53687 2.26259 6.21185 2.40906 5.90752C2.4276 5.86887 2.44912 5.83142 2.47432 5.79577C2.47278 5.8017 2.47183 5.80777 2.46957 5.81325C2.39075 6.01117 2.35437 6.2178 2.34248 6.42987C2.3237 6.76037 2.36269 7.08565 2.43414 7.4077C2.43592 7.41555 2.43818 7.42315 2.44151 7.43455C2.48823 7.40317 2.53365 7.37322 2.57798 7.3417C2.58333 7.3378 2.58345 7.3234 2.58228 7.31425C2.55968 7.1187 2.56123 6.92325 2.58228 6.72767C2.61248 6.4483 2.68143 6.17905 2.77973 5.9168C2.91668 5.55062 3.10238 5.21062 3.32908 4.89285C3.33443 4.88547 3.33978 4.87812 3.34478 4.87062C3.34585 4.86895 3.34573 4.86695 3.34728 4.86087C3.31435 4.87252 3.28343 4.8831 3.2524 4.89427C3.04365 4.9699 2.83918 5.05525 2.6423 5.15845C2.6115 5.17437 2.5818 5.19445 2.55563 5.2174C2.27864 5.46277 2.11518 5.77305 2.04135 6.13292C2.03042 6.18642 2.02257 6.24087 2.00771 6.2946C2.01092 6.23492 2.01258 6.175 2.01782 6.11532C2.04254 5.83132 2.09568 5.55252 2.19138 5.2835C2.21575 5.21515 2.19875 5.15345 2.18841 5.08925C2.1852 5.06927 2.17105 5.05097 2.16178 5.03182C2.14645 5.0467 2.12754 5.05917 2.11649 5.07677C2.03779 5.20195 1.98702 5.33937 1.94553 5.48037C1.88193 5.69602 1.84401 5.91785 1.81274 6.14065C1.78374 6.3487 1.76531 6.55792 1.76614 6.76822C1.76721 6.9809 1.7835 7.19167 1.85423 7.39472C1.88788 7.49127 1.93317 7.58172 1.99844 7.6608C2.02162 7.68907 2.05051 7.71322 2.07642 7.73937C2.07833 7.7389 2.07999 7.73865 2.08201 7.7383Z" fill="url(#paint14_linear_6_145)"/>
<path opacity="0.2" d="M3.04605 4.86832C3.04605 4.86832 2.5175 4.94262 2.2946 5.30615C2.07157 5.66945 2.0075 6.2943 2.0075 6.2943C2.0075 6.2943 1.89337 7.22622 2.27165 7.76892C2.03199 5.77882 3.04605 4.86832 3.04605 4.86832Z" fill="white"/>
<path d="M2.08207 7.73827C2.08005 7.73865 2.07838 7.73888 2.07648 7.73913C1.96747 7.69655 1.88223 7.6232 1.81256 7.53107C1.71116 7.39675 1.6579 7.24135 1.62497 7.07885C1.57622 6.83657 1.57206 6.59155 1.59275 6.34665C1.60476 6.20673 1.62509 6.06727 1.64209 5.92807C1.64268 5.92307 1.6428 5.9182 1.64327 5.9081C1.63471 5.91548 1.62865 5.91963 1.62378 5.92475C1.21958 6.3438 0.915595 6.82658 0.716585 7.37403C0.711355 7.3883 0.713138 7.40755 0.717538 7.42253C0.83642 7.80225 1.00821 8.15758 1.21886 8.49403C1.30779 8.63598 1.40575 8.7722 1.49978 8.91095C1.50715 8.92187 1.51583 8.93175 1.52927 8.94935C1.53259 8.87955 1.56992 8.8231 1.54115 8.75473C1.50442 8.6676 1.48076 8.57592 1.48564 8.4794C1.48766 8.44372 1.4961 8.41045 1.52094 8.3774C1.54555 8.4473 1.56457 8.51612 1.61938 8.5688C1.63543 8.54015 1.63864 8.51517 1.62841 8.4845C1.59037 8.37062 1.56386 8.25422 1.57111 8.1331C1.57337 8.096 1.58181 8.0595 1.59192 8.02217C1.62497 8.11312 1.67977 8.18755 1.74314 8.259C1.74682 8.25352 1.75027 8.24995 1.75217 8.24568C1.8367 8.07093 1.945 7.9122 2.07398 7.76742C2.07993 7.7604 2.07969 7.74802 2.08207 7.73827Z" fill="url(#paint15_linear_6_145)"/>
<path opacity="0.2" d="M1.67292 8.2043C1.67292 8.2043 1.07851 7.04102 1.3567 6.04205C1.39129 6.01472 1.30094 6.08522 1.19347 6.20897C1.17695 6.22775 0.977698 7.54687 1.38226 8.12845C0.838488 7.4834 1.09599 6.33082 1.07292 6.36447C1.02442 6.43627 0.98079 6.51557 0.9519 6.59842C0.673718 7.9009 1.63476 8.68482 1.63476 8.68482L1.67292 8.2043Z" fill="white"/>
<path d="M10.7692 12.3925C10.7447 12.4298 10.7163 12.4674 10.6937 12.5087C10.6728 12.5463 10.6686 12.5891 10.6824 12.6314C10.6995 12.6837 10.7345 12.7038 10.7889 12.6962C10.8326 12.6895 10.8762 12.6829 10.9202 12.6815C10.9669 12.6799 10.9701 12.6862 10.9754 12.7315C10.9766 12.7435 10.9782 12.7559 10.9827 12.7668C11.0003 12.8116 11.0263 12.8503 11.0784 12.8572C11.129 12.8639 11.1646 12.8355 11.1918 12.7967C11.2732 12.6813 11.2057 12.5255 11.0643 12.5067C11.0204 12.5009 10.9746 12.508 10.9297 12.5092C10.921 12.5096 10.9123 12.5111 10.9038 12.5118C10.9016 12.5093 10.8995 12.5065 10.8972 12.504C10.9093 12.4898 10.9187 12.4711 10.934 12.4621C10.9662 12.444 11.0008 12.4365 11.0405 12.441C11.2826 12.4687 11.5135 12.44 11.7189 12.2949C11.8329 12.2141 11.9172 12.1082 11.9815 11.9853C11.982 11.9845 11.9827 11.9836 11.9832 11.9828C11.9913 11.9604 12.0078 11.9332 11.9857 11.9162C11.973 11.9063 11.9436 11.9107 11.9242 11.917C11.8338 11.9467 11.7459 11.9843 11.6543 12.0093C11.5205 12.0459 11.3819 12.0471 11.2442 12.0396C11.0582 12.0296 10.8752 12 10.6995 11.934C10.5027 11.8601 10.3249 11.7557 10.1707 11.612C10.153 11.5954 10.1351 11.5791 10.1151 11.5657C10.0816 11.5433 10.0585 11.5543 10.0573 11.595C10.0564 11.6238 10.0592 11.6534 10.0656 11.6817C10.1316 11.969 10.3059 12.1711 10.5635 12.3046C10.631 12.34 10.7036 12.3649 10.7692 12.3925Z" fill="white"/>
<path d="M0.539057 7.0441C0.528595 8.08087 0.86206 8.98057 1.55645 9.7445C1.5467 9.67412 1.53374 9.60375 1.5278 9.5335C1.51793 9.41355 1.51151 9.29322 1.50569 9.17267C1.5045 9.1482 1.49832 9.12882 1.48453 9.1092C1.22453 8.73412 0.986055 8.3461 0.795842 7.93012C0.69931 7.7191 0.616804 7.5024 0.572582 7.27365C0.558314 7.19972 0.55035 7.1247 0.539057 7.0441Z" fill="url(#paint16_linear_6_145)"/>
<path d="M9.01796 3.6349C9.14231 3.41983 9.27058 3.21285 9.31613 2.96903C9.32373 2.92825 9.32148 2.88485 9.31885 2.84278C9.3053 2.60763 9.32968 2.37808 9.40588 2.1541C9.41266 2.13425 9.42073 2.11333 9.42026 2.0931C9.42003 2.07635 9.41123 2.05698 9.40006 2.04378C9.38591 2.027 9.3664 2.03295 9.3481 2.0434C9.28948 2.07658 9.24693 2.12533 9.21281 2.18203C9.14338 2.29603 9.1063 2.42218 9.0806 2.55128C9.00988 2.90495 8.99918 3.26255 9.01308 3.62205C9.01333 3.62395 9.01451 3.62563 9.01796 3.6349Z" fill="url(#paint17_linear_6_145)"/>
<path opacity="0.4" d="M9.09108 2.26477C9.11365 2.21675 9.20663 2.11165 9.24395 2.08135L9.328 2.02773C9.24348 2.24315 9.21328 2.46235 9.21328 2.6918C9.21328 2.8851 9.27273 3.06463 9.28223 3.25698C9.28973 3.41545 9.22065 3.4951 9.1385 3.62407C9.1014 3.6821 9.05078 3.80775 8.97018 3.80822C8.93283 3.71657 8.93878 3.60172 8.93795 3.50365C8.93688 3.38632 8.9181 3.27183 8.92273 3.1533C8.9314 2.92958 9.05233 2.34717 9.09108 2.26477Z" fill="white"/>
<path d="M11.9849 11.5311C11.9814 11.5339 11.9802 11.5344 11.9798 11.5352C11.8884 11.7231 11.7259 11.8051 11.5295 11.8216C11.2051 11.8492 10.8938 11.7885 10.5985 11.6527C10.4741 11.5954 10.3677 11.5122 10.3077 11.3843C10.2817 11.329 10.2692 11.2674 10.2499 11.2067C10.1854 11.2063 10.1087 11.27 10.1037 11.3388C10.102 11.3611 10.1114 11.386 10.1215 11.407C10.1622 11.4913 10.2277 11.5551 10.2992 11.6129C10.4829 11.7611 10.6932 11.8547 10.9212 11.9098C11.2206 11.9824 11.52 11.9845 11.8162 11.8948C11.8864 11.8735 11.9527 11.8378 12.018 11.8031C12.0684 11.7761 12.0941 11.73 12.0865 11.67C12.0785 11.6053 12.045 11.5589 11.9849 11.5311Z" fill="white"/>
<path opacity="0.4" d="M11.9849 11.5311C11.9814 11.5339 11.9802 11.5344 11.9798 11.5352C11.8884 11.7231 11.7259 11.8051 11.5295 11.8216C11.2051 11.8492 10.8938 11.7885 10.5985 11.6527C10.4741 11.5954 10.3677 11.5122 10.3077 11.3843C10.2817 11.329 10.2692 11.2674 10.2499 11.2067C10.1854 11.2063 10.1087 11.27 10.1037 11.3388C10.102 11.3611 10.1114 11.386 10.1215 11.407C10.1622 11.4913 10.2277 11.5551 10.2992 11.6129C10.4829 11.7611 10.6932 11.8547 10.9212 11.9098C11.2206 11.9824 11.52 11.9845 11.8162 11.8948C11.8864 11.8735 11.9527 11.8378 12.018 11.8031C12.0684 11.7761 12.0941 11.73 12.0865 11.67C12.0785 11.6053 12.045 11.5589 11.9849 11.5311Z" fill="white"/>
<path d="M8.72732 8.54823C8.72504 8.66438 8.74942 8.77363 8.79934 8.8773C8.90077 9.08545 9.06767 9.22158 9.27689 9.31085C9.45939 9.38885 9.65092 9.41535 9.84837 9.40512C9.85087 9.405 9.85337 9.40395 9.86179 9.40133C9.72367 9.38005 9.59527 9.3457 9.47104 9.29613C9.25587 9.21018 9.06624 9.08795 8.91882 8.9057C8.83977 8.80822 8.78022 8.69967 8.73954 8.58057C8.73612 8.56962 8.73159 8.55893 8.72732 8.54823Z" fill="white"/>
<path d="M10.3391 6.88635C10.5516 6.75665 10.5975 6.45195 10.4612 6.2778C10.4933 6.49535 10.4493 6.69733 10.3391 6.88635Z" fill="white"/>
<path d="M10.8239 7.69453C10.8239 7.80638 10.9146 7.8971 11.0262 7.8971C11.1382 7.8971 11.2289 7.80638 11.2289 7.69453C11.2289 7.58265 11.1382 7.49195 11.0262 7.49195C10.9146 7.49195 10.8239 7.58265 10.8239 7.69453Z" fill="#898686"/>
<path d="M10.9623 7.74438C10.9667 7.74438 10.9711 7.74318 10.975 7.74075L11.0228 7.71085C11.0298 7.70647 11.0341 7.69882 11.0341 7.69057V7.63078C11.0341 7.62253 11.0298 7.61485 11.0228 7.61047L10.975 7.58057C10.9711 7.57817 10.9667 7.57695 10.9623 7.57695C10.9579 7.57695 10.9535 7.57817 10.9496 7.58057L10.9018 7.61047C10.8948 7.61485 10.8906 7.62253 10.8906 7.63078V7.69057C10.8906 7.69882 10.8948 7.70647 10.9018 7.71085L10.9496 7.74075C10.9535 7.74318 10.9579 7.74438 10.9623 7.74438Z" fill="white"/>
<path d="M11.7296 11.1079C11.7656 11.1302 11.8214 11.1207 11.8422 11.0813C11.9287 10.917 11.9207 10.7256 11.8362 10.5622C11.7877 10.4685 11.6424 10.5442 11.6908 10.6375C11.7483 10.7491 11.7602 10.8863 11.7028 10.9958C11.6823 11.0349 11.6897 11.0832 11.7296 11.1079Z" fill="white"/>
<path opacity="0.2" d="M2.93417 11.5809C2.88292 10.1164 3.78597 10.5928 4.18767 9.97447C4.22035 9.93595 4.23972 9.89267 4.25447 9.85915C3.80367 10.1075 2.53985 9.94167 2.93417 11.5809Z" fill="white"/>
<path opacity="0.2" d="M2.24648 8.72568C3.48665 7.65813 5.9348 7.77463 6.11395 7.78973C5.08705 8.52215 2.00633 7.8336 1.8934 10.063C1.69344 9.42983 1.95094 8.9802 2.24648 8.72568Z" fill="white"/>
<path opacity="0.2" d="M4.22869 9.9174C4.22869 9.9174 4.22847 10.241 4.22869 10.4696C4.22869 10.6981 3.94147 10.5735 3.83057 10.2598C4.10744 10.1512 4.22869 9.9174 4.22869 9.9174Z" fill="white"/>
<path opacity="0.2" d="M4.07512 10.0257C4.2828 9.65923 4.0694 9.34215 4.03635 9.3286C4.1543 9.32243 4.381 9.10108 4.4351 9.02735C4.5195 8.91193 4.5246 8.7443 4.53162 8.60723C4.69912 8.59975 4.81695 8.49715 4.96947 8.46078C4.83977 8.58215 4.66405 8.72575 4.58535 8.88935C4.51532 9.0346 4.45612 9.20188 4.40917 9.35643C4.37077 9.48303 4.33487 9.60883 4.31122 9.73948C4.29362 9.8367 4.2362 9.9676 4.24665 10.0624C4.24665 10.0624 4.22525 10.9149 4.39622 11.3358C4.0725 11.2256 3.90285 10.9615 3.8439 10.8592C3.77707 10.7436 3.65142 10.456 3.80702 10.2728C3.9075 10.2362 4.01745 10.1274 4.07512 10.0257Z" fill="white"/>
<path d="M1.04294 11.1331C1.69453 12.0311 2.56617 12.6081 3.64967 12.8588C4.0106 12.9424 4.37758 12.9654 4.74778 12.9639C5.65343 12.96 6.55895 12.9623 7.4646 12.9621C8.07363 12.9619 8.6829 12.9621 9.29195 12.9606C9.43685 12.9604 9.58143 12.9507 9.72003 12.9025C9.85605 12.8554 9.9609 12.7721 10.0195 12.6371C10.1032 12.4423 10.0318 12.1971 9.85093 12.0651C9.71838 11.9683 9.56607 11.9401 9.40582 11.9473C9.36267 11.9494 9.31965 11.956 9.27672 11.9604C9.26697 11.9615 9.25627 11.9638 9.247 11.9616C9.2331 11.9587 9.22003 11.9518 9.2067 11.9468C9.2143 11.9356 9.21978 11.922 9.22978 11.9138C9.39538 11.773 9.50937 11.5994 9.56395 11.3887C9.58392 11.3121 9.58975 11.2342 9.5825 11.1556C9.58203 11.1494 9.58155 11.1434 9.5813 11.1375C9.57962 11.0969 9.59368 11.0843 9.63373 11.0824C9.75213 11.0769 9.87042 11.0723 9.98847 11.063C10.0449 11.0585 10.1006 11.0447 10.1643 11.0407C10.1569 11.0504 10.1514 11.0648 10.1416 11.0693C10.0472 11.1129 9.98563 11.1857 9.9546 11.2827C9.91833 11.3969 9.8929 11.5137 9.89812 11.6348C9.90607 11.8305 9.9823 11.9988 10.1062 12.1473C10.2176 12.2805 10.3548 12.3807 10.5099 12.4568C10.5299 12.4665 10.5352 12.4751 10.5282 12.4976C10.5084 12.5616 10.5109 12.6263 10.5333 12.6903C10.547 12.7293 10.5721 12.7576 10.6079 12.7776C10.6894 12.8231 10.7834 12.8295 10.8723 12.7923C10.8748 12.805 10.877 12.8194 10.8801 12.8317C10.9058 12.9292 10.9687 12.968 11.0637 13.025H11.1301C11.1327 13.025 11.1352 13.018 11.1379 13.0175C11.3052 12.9894 11.3755 12.8365 11.3561 12.6917C11.3511 12.6544 11.3403 12.6176 11.333 12.584C11.4089 12.564 11.487 12.5486 11.5615 12.5224C11.9057 12.4027 12.1329 12.1704 12.229 11.8165C12.2674 11.6749 12.2437 11.548 12.1338 11.443C12.1269 11.4361 12.1265 11.4194 12.128 11.4081C12.1494 11.2744 12.1823 11.1416 12.1909 11.007C12.2116 10.6877 12.1112 10.4077 11.8893 10.1742C11.8762 10.1607 11.8754 10.149 11.8788 10.1322C11.8935 10.0606 11.9102 9.98913 11.919 9.91673C11.9371 9.77075 11.8814 9.64973 11.7841 9.54428C11.7755 9.53488 11.7659 9.52478 11.7617 9.51313C11.7345 9.43193 11.6783 9.37665 11.604 9.33933C11.4542 9.26383 11.2953 9.2485 11.1316 9.27573C11.0244 9.29368 10.9264 9.33885 10.8297 9.38473C10.787 9.40495 10.7478 9.41505 10.7083 9.38045C10.7015 9.37463 10.691 9.3732 10.6847 9.36773C10.6737 9.3574 10.6554 9.343 10.6574 9.33433C10.6601 9.321 10.676 9.3059 10.6896 9.30045C10.7651 9.27073 10.8429 9.25468 10.9247 9.25468C10.986 9.25468 11.0475 9.2529 11.1081 9.24575C11.3015 9.22235 11.4789 9.15255 11.6454 9.05318C11.6566 9.0465 11.6689 9.0408 11.6815 9.03878C11.8968 9.00585 12.0697 8.83668 12.1073 8.62245C12.111 8.60083 12.1105 8.57598 12.1217 8.55873C12.213 8.41775 12.2204 8.26795 12.1677 8.114C12.1343 8.01663 12.0879 7.9233 12.0512 7.82713C12.0315 7.77555 12.0115 7.72218 12.0065 7.66868C11.9933 7.51615 11.9731 7.36505 11.9322 7.21775C11.8448 6.90318 11.6891 6.63058 11.4391 6.41673C11.1867 6.20095 10.8908 6.0873 10.563 6.05245C10.5342 6.0495 10.5189 6.04023 10.5061 6.01168C10.4345 5.8494 10.3168 5.7354 10.1474 5.6762C10.1034 5.66088 10.0596 5.65743 10.0182 5.67608C9.95922 5.7033 9.8992 5.7304 9.8464 5.76775C9.70803 5.86428 9.59842 5.9897 9.50747 6.13153C9.50035 6.14223 9.4925 6.15625 9.48193 6.1598C9.46765 6.16445 9.4465 6.16613 9.43555 6.1585C9.42722 6.1528 9.42532 6.12973 9.42852 6.1163C9.43235 6.1005 9.44457 6.08645 9.45397 6.07255C9.69482 5.72423 9.84808 5.34108 9.91858 4.92343C9.92108 4.91035 9.93035 4.89623 9.94007 4.88635C9.9993 4.82608 10.0604 4.76795 10.1191 4.7072C10.2129 4.6103 10.2704 4.49298 10.3011 4.3628C10.3091 4.32868 10.313 4.2936 10.3153 4.25878C10.316 4.24818 10.3056 4.237 10.3004 4.22608C10.2891 4.2326 10.2744 4.23653 10.2675 4.24593C10.2514 4.2678 10.2403 4.29288 10.2254 4.31548C10.2156 4.33045 10.2029 4.34318 10.1914 4.35755C10.1878 4.34913 10.1888 4.34435 10.1904 4.33998C10.2534 4.17948 10.2973 4.0141 10.3185 3.84268C10.3244 3.7949 10.3285 3.74663 10.3297 3.6986C10.3306 3.66365 10.3073 3.64153 10.284 3.65093C10.2715 3.65593 10.2607 3.6665 10.2511 3.676C10.1574 3.76885 10.047 3.83768 9.93377 3.90283C9.9313 3.89938 9.9294 3.89785 9.92927 3.89605C9.92617 3.87918 9.92307 3.86253 9.9206 3.84565C9.8904 3.6477 9.8382 3.45525 9.77783 3.26433C9.7318 3.11858 9.70578 2.9696 9.7311 2.816C9.7463 2.72448 9.77878 2.6416 9.85653 2.58335C9.86235 2.57895 9.86625 2.57195 9.87315 2.5641C9.86412 2.55948 9.85853 2.55495 9.85213 2.55365C9.74 2.5289 9.6241 2.54343 9.5612 2.67218C9.55395 2.68655 9.54445 2.6995 9.5315 2.72115C9.51735 2.69285 9.50333 2.6743 9.4988 2.6541C9.47645 2.55258 9.47098 2.44925 9.4805 2.34548C9.49263 2.21733 9.5378 2.09998 9.59355 1.98563C9.60792 1.9559 9.6216 1.92535 9.63087 1.89395C9.6474 1.83703 9.61565 1.79493 9.5561 1.79588C9.5265 1.79648 9.49523 1.80113 9.468 1.81145C9.32143 1.86663 9.2098 1.9635 9.1356 2.10225C9.12955 2.11353 9.12395 2.1247 9.11742 2.13828C9.05857 2.08108 9.00495 2.02533 8.97703 1.949C8.9592 1.90015 8.93542 1.85295 8.91105 1.8073C8.89357 1.77448 8.88038 1.7752 8.85898 1.80503C8.85315 1.813 8.84803 1.82193 8.84173 1.82965C8.8252 1.8495 8.8125 1.84963 8.79965 1.82715C8.78813 1.80743 8.77945 1.78565 8.7717 1.76438C8.73342 1.66095 8.67077 1.57513 8.58482 1.50653C8.579 1.50213 8.57235 1.49868 8.55855 1.49023C8.56367 1.52293 8.56782 1.54825 8.57105 1.5737C8.57447 1.59973 8.57758 1.62575 8.5809 1.65323C8.57318 1.65228 8.5708 1.6525 8.56913 1.65155C8.56083 1.6462 8.55225 1.64063 8.54405 1.63468C8.19645 1.39453 7.81637 1.22763 7.40562 1.13015C7.28045 1.10043 7.1492 1.08985 7.03615 1.01888C7.03365 1.0172 7.03045 1.01638 7.0277 1.01508C7.00535 1.00628 6.98895 1.01115 6.9716 1.0285C6.96055 1.03943 6.9408 1.0443 6.925 1.04408C6.87483 1.04288 6.82465 1.03183 6.77472 1.02768C6.72872 1.02385 6.6814 1.0134 6.6373 1.00235C6.56158 0.983201 6.48797 0.909626 6.41367 0.909626H6.35935C6.342 0.909626 6.32142 0.959551 6.30727 0.977026C6.28267 1.00783 6.25248 1.04383 6.21385 1.04633C5.9579 1.06225 5.7048 1.09935 5.4555 1.16153C5.07603 1.25568 4.7196 1.4018 4.40018 1.63148C4.1668 1.79945 3.9666 1.99893 3.82468 2.2518C3.79565 2.30315 3.7726 2.35833 3.74965 2.41253C3.7323 2.4545 3.72803 2.49873 3.74253 2.54258C3.75475 2.5786 3.78187 2.59858 3.8186 2.59288C4.02712 2.56005 4.20378 2.63625 4.36653 2.75455C4.52845 2.87235 4.65185 3.02335 4.72223 3.21213C4.8259 3.49103 4.76978 3.74068 4.57433 3.96168C4.5546 3.98403 4.53225 4.00425 4.50825 4.0285C4.4992 3.9946 4.4916 3.96383 4.4828 3.93303C4.43845 3.78205 4.37545 3.64105 4.26797 3.52348C4.20557 3.45488 4.10475 3.41578 4.19747 3.41935C4.28307 3.4223 4.1667 3.42078 4.156 3.41935C4.26275 3.4927 4.1806 3.5362 4.1964 3.66043C4.23005 3.9246 4.1491 4.1519 3.96517 4.3427C3.954 4.35435 3.93712 4.36173 3.92132 4.3673C3.72755 4.43603 3.53245 4.50118 3.33975 4.57285C2.9957 4.70078 2.66355 4.8546 2.34874 5.04423C2.34446 5.04673 2.33995 5.0491 2.33531 5.0516C2.30547 5.03233 2.29322 5.00358 2.29453 4.97148C2.2962 4.92868 2.30309 4.88588 2.3082 4.8432C2.30868 4.83808 2.31034 4.83333 2.3107 4.82833C2.32092 4.75285 2.29144 4.72823 2.22201 4.762C2.18718 4.779 2.1552 4.80718 2.13012 4.837C2.04999 4.93295 2.0003 5.0466 1.95262 5.1605C1.92742 5.22065 1.90745 5.28293 1.88189 5.34298C1.87274 5.36485 1.85811 5.38708 1.83992 5.40243C1.56733 5.63423 1.31339 5.88365 1.09822 6.17088C0.913715 6.41695 0.756432 6.67863 0.628515 6.95848C0.625425 6.96583 0.62162 6.97298 0.618052 6.98023C0.617102 6.98178 0.61532 6.98273 0.611157 6.98628C0.569192 6.74103 0.56099 6.49685 0.5856 6.25018C0.565982 6.3234 0.54411 6.39628 0.52711 6.4701C0.457205 6.76778 0.43545 7.06903 0.456255 7.37408C0.457325 7.38953 0.453402 7.40618 0.448765 7.42115C0.35794 7.70623 0.295287 7.99763 0.26854 8.29543C0.176049 9.33563 0.428912 10.2869 1.04294 11.1331ZM0.795782 7.92998C0.985995 8.34595 1.22447 8.73398 1.48447 9.10905C1.49814 9.12878 1.50444 9.14815 1.50563 9.17253C1.51145 9.29308 1.51787 9.41328 1.52774 9.53333C1.53368 9.60395 1.54664 9.67433 1.55639 9.74435C0.862 8.9803 0.528535 8.0807 0.538997 7.04395C0.550647 7.12443 0.558255 7.19955 0.572522 7.27328C0.616745 7.50223 0.69925 7.71883 0.795782 7.92998ZM3.34713 4.86068C3.34558 4.86673 3.3457 4.86875 3.34462 4.87043C3.33962 4.87778 3.33427 4.88515 3.32892 4.89265C3.10222 5.21043 2.91653 5.55055 2.77958 5.91658C2.68125 6.17883 2.6123 6.44835 2.5821 6.72748C2.56107 6.92303 2.55952 7.11848 2.5821 7.31405C2.5833 7.3232 2.58318 7.33758 2.57783 7.3415C2.53348 7.37325 2.48783 7.4032 2.44135 7.43435C2.43826 7.42305 2.43576 7.41558 2.43398 7.40748C2.36229 7.08543 2.32354 6.7604 2.34232 6.42968C2.35445 6.21783 2.39059 6.0111 2.46941 5.81303C2.47167 5.80733 2.47262 5.80128 2.47416 5.79555C2.44896 5.83158 2.42744 5.86868 2.4089 5.9073C2.26243 6.21178 2.20454 6.53668 2.193 6.8705C2.18266 7.17198 2.21322 7.4718 2.27159 7.769C2.22083 7.7872 2.164 7.77853 2.08185 7.7381C2.07935 7.74795 2.07959 7.76045 2.07388 7.7671C1.9449 7.91213 1.8366 8.07085 1.75207 8.24538C1.74993 8.24975 1.74672 8.2532 1.74304 8.25868C1.67967 8.18688 1.62487 8.11258 1.59182 8.02188C1.58171 8.05895 1.57327 8.09558 1.57101 8.13278C1.56376 8.25415 1.59027 8.3703 1.62831 8.4842C1.63854 8.51488 1.63533 8.53983 1.61928 8.56848C1.56447 8.51595 1.54545 8.447 1.52084 8.37708C1.496 8.41013 1.48756 8.44365 1.48554 8.47908C1.48066 8.57563 1.50432 8.66728 1.54105 8.75443C1.56982 8.82253 1.53273 8.87925 1.52917 8.94903C1.51573 8.93143 1.50694 8.92168 1.49968 8.91063C1.40565 8.7719 1.30769 8.63578 1.21876 8.4937C1.00822 8.15715 0.836322 7.80218 0.71744 7.42223C0.71304 7.40725 0.711257 7.38798 0.716487 7.37373C0.915497 6.82628 1.21924 6.34348 1.62368 5.92443C1.62855 5.91933 1.63461 5.91515 1.64317 5.90778C1.6427 5.91778 1.64258 5.92275 1.64199 5.92775C1.62499 6.0672 1.60466 6.20665 1.59265 6.34635C1.57184 6.59148 1.57601 6.83625 1.62487 7.07853C1.6578 7.24105 1.71129 7.3963 1.81246 7.53075C1.88213 7.62278 1.96737 7.69625 2.0765 7.7388C2.05023 7.71265 2.0217 7.68865 1.99839 7.66023C1.93313 7.58118 1.88772 7.49058 1.85419 7.39418C1.78322 7.19123 1.76729 6.98058 1.7661 6.76765C1.76503 6.55713 1.78346 6.34825 1.81282 6.14008C1.84409 5.9173 1.88201 5.69583 1.94561 5.4798C1.98722 5.3388 2.03763 5.20138 2.11656 5.0762C2.12762 5.05885 2.14652 5.04613 2.16186 5.03128C2.17101 5.0504 2.18504 5.0687 2.18861 5.08868C2.19907 5.153 2.21583 5.2147 2.19146 5.28293C2.09564 5.55208 2.04262 5.83063 2.01789 6.11475C2.01266 6.17443 2.01111 6.23435 2.00779 6.29403C2.02265 6.2403 2.03037 6.18585 2.04155 6.13235C2.11537 5.7725 2.2786 5.4622 2.55582 5.21685C2.58187 5.1939 2.6116 5.1738 2.64237 5.15788C2.83925 5.05493 3.04373 4.96933 3.25248 4.89373C3.28328 4.88278 3.31383 4.87208 3.34713 4.86068ZM9.42058 2.0931C9.42105 2.1133 9.41285 2.13423 9.40595 2.15408C9.32962 2.37805 9.30525 2.60773 9.31905 2.84275C9.32155 2.88485 9.32393 2.92835 9.31643 2.96903C9.27078 3.21273 9.1425 3.41983 9.01815 3.63488C9.01483 3.6256 9.01353 3.62393 9.01353 3.6225C8.99973 3.26338 9.01042 2.9054 9.08105 2.55173C9.10695 2.4225 9.14383 2.2965 9.21325 2.1825C9.24735 2.1259 9.28993 2.07715 9.34853 2.04388C9.36673 2.03353 9.38597 2.02748 9.40047 2.04423C9.41117 2.05708 9.4201 2.07645 9.42058 2.0931ZM9.56892 3.99748C9.51222 4.03848 9.45268 4.077 9.39038 4.1085C9.17115 4.2187 8.93885 4.29718 8.7093 4.3818C8.6646 4.39823 8.62167 4.42175 8.58175 4.4479C8.50232 4.49998 8.44325 4.57298 8.392 4.6519C8.3675 4.68925 8.34457 4.72775 8.32067 4.76568C8.32137 4.75295 8.3253 4.74178 8.3284 4.73025C8.3555 4.638 8.3863 4.54645 8.40818 4.45278C8.43848 4.32213 8.48652 4.20005 8.55927 4.08805C8.5985 4.02755 8.64237 3.96965 8.68077 3.90818C8.70502 3.86968 8.72617 3.82783 8.74305 3.7855C8.75305 3.76005 8.75185 3.73033 8.75603 3.70263C8.75185 3.70063 8.74793 3.6986 8.74365 3.6967C8.73153 3.70693 8.71763 3.71583 8.7074 3.72773C8.6652 3.7761 8.62465 3.82615 8.58127 3.8737C8.57187 3.88428 8.55095 3.89463 8.54037 3.89083C8.53025 3.88715 8.51945 3.86468 8.521 3.8516C8.52635 3.79918 8.52943 3.74508 8.54583 3.69563C8.56843 3.6275 8.60398 3.56365 8.63048 3.49625C8.64345 3.46345 8.65188 3.42708 8.65485 3.39188C8.65628 3.37523 8.6401 3.35718 8.63215 3.33993C8.618 3.34955 8.6017 3.35728 8.59005 3.36953C8.56937 3.39128 8.55298 3.41673 8.53158 3.43813C8.51053 3.45893 8.49102 3.45548 8.4789 3.42898C8.47035 3.41043 8.46155 3.3876 8.46453 3.36883C8.47178 3.32163 8.4845 3.27525 8.49662 3.22865C8.5078 3.18633 8.5236 3.14448 8.53228 3.1018C8.53823 3.07293 8.53085 3.04428 8.50055 3.0225C8.4921 3.03488 8.48283 3.04545 8.47735 3.05793C8.46548 3.08338 8.45595 3.11 8.44515 3.13545C8.41958 3.19418 8.39713 3.25493 8.36693 3.31128C8.34018 3.36085 8.31402 3.35645 8.28537 3.3083C8.22985 3.21415 8.17505 3.11928 8.1131 3.0294C8.07898 2.98008 8.05925 2.9293 8.0539 2.87153C8.047 2.79473 8.0432 2.71723 8.03522 2.6403C8.03215 2.61165 8.02442 2.58183 7.99302 2.5547C7.98637 2.58718 7.9808 2.6138 7.97555 2.64055C7.96783 2.67978 7.96247 2.71973 7.95167 2.75813C7.9443 2.78523 7.92242 2.78795 7.90887 2.76383C7.89662 2.74195 7.8883 2.7158 7.88653 2.69083C7.8833 2.64375 7.88757 2.59643 7.8851 2.54925C7.88402 2.52785 7.8763 2.50633 7.8682 2.486C7.86487 2.47733 7.85323 2.4715 7.84538 2.46435C7.84028 2.47315 7.83313 2.48125 7.83028 2.49088C7.8266 2.50215 7.82612 2.5144 7.82435 2.52643C7.81922 2.56113 7.81638 2.59668 7.80818 2.63043C7.7995 2.66718 7.7763 2.67335 7.7536 2.64363C7.73268 2.6164 7.71627 2.5842 7.7057 2.55163C7.68965 2.50098 7.68287 2.44795 7.66752 2.39683C7.6604 2.37293 7.64413 2.35108 7.62878 2.33073C7.62295 2.32338 7.60642 2.3186 7.59715 2.32135C7.59037 2.32313 7.58373 2.3387 7.58348 2.34845C7.58253 2.38745 7.5842 2.42668 7.5848 2.46578C7.5849 2.48515 7.5848 2.50455 7.5848 2.52548C7.57622 2.52355 7.57278 2.52368 7.57078 2.52238C7.5659 2.51905 7.56102 2.515 7.5571 2.5106C7.5169 2.46793 7.49005 2.41835 7.48147 2.3595C7.4778 2.33348 7.4765 2.30743 7.47162 2.28188C7.46555 2.25168 7.4476 2.24015 7.41692 2.24395C7.38472 2.24775 7.36438 2.27118 7.36105 2.31208C7.35868 2.3387 7.36058 2.36533 7.36058 2.396C7.32385 2.37723 7.2914 2.35998 7.25835 2.3437C6.92035 2.17643 6.5637 2.07275 6.18948 2.029C5.94778 2.00083 5.7061 2.00013 5.46642 2.04875C5.3215 2.0781 5.1835 2.1253 5.06378 2.216C5.04618 2.2291 5.03 2.2443 5.01312 2.25858C5.1464 2.18143 5.22437 2.14993 5.3447 2.1271C5.5638 2.085 5.783 2.0913 6.00175 2.12305C6.38682 2.17905 6.75083 2.30043 7.09285 2.48708C7.35785 2.63163 7.5974 2.80888 7.79105 3.04343C7.80567 3.0608 7.81935 3.07898 7.83313 3.0968C7.43668 2.90743 6.98882 3.26373 6.54087 3.1056C7.1548 3.42208 7.51832 3.01443 7.86452 3.27823C7.95262 3.34528 7.9683 3.51825 7.76705 3.48925C7.57492 3.46178 8.0564 3.55688 8.1427 4.05725C8.13783 4.13893 8.1263 4.22203 8.10763 4.30703C8.02503 4.68188 7.85038 5.01295 7.6107 5.31015C7.3639 5.6164 7.05387 5.8443 6.70565 6.0225C6.70067 6.0231 6.69508 6.025 6.68818 6.02773C6.68913 6.02345 6.68902 6.02143 6.68972 6.02038C6.6946 6.01263 6.6996 6.00515 6.70458 5.99755C6.87103 5.75015 7.00785 5.48895 7.0742 5.19555C7.11985 4.99465 7.1253 4.79325 7.06182 4.59425C6.99085 4.37205 6.8489 4.2029 6.66345 4.06738C6.45565 3.91543 6.22085 3.82058 5.97608 3.7478C5.92378 3.73223 5.8705 3.71845 5.8113 3.70215C5.81797 3.7093 5.81868 3.7112 5.82035 3.7118C5.83033 3.71608 5.8408 3.72 5.85112 3.72403C6.02207 3.79085 6.18495 3.8724 6.3326 3.9826C6.54518 4.1406 6.70162 4.3396 6.77247 4.59843C6.835 4.82715 6.8211 5.056 6.76533 5.28365C6.69318 5.57873 6.55955 5.84585 6.39835 6.10108C6.36137 6.15945 6.3175 6.19833 6.25117 6.21808C6.17105 6.24185 6.09247 6.27263 6.00567 6.30318C6.2513 6.03963 6.25807 5.6687 6.211 5.45103C6.21027 5.45485 6.20907 5.45733 6.20897 5.45995C6.20052 5.63733 6.14013 5.7971 6.04098 5.94285C5.8931 6.1604 5.69277 6.319 5.46667 6.44798C5.4492 6.45798 5.4278 6.46118 5.4083 6.46748C5.49007 6.3732 5.55273 6.2705 5.58935 6.1528C5.62503 6.0389 5.63738 5.86035 5.61373 5.79628C5.5764 5.92075 5.53752 6.00183 5.45442 6.10775C5.31177 6.2894 5.14605 6.44668 4.95405 6.57745C4.82543 6.66553 4.69048 6.7384 4.54545 6.7938C4.28903 6.89213 4.02153 6.9524 3.75548 7.01755C3.52175 7.07473 3.28815 7.13405 3.0562 7.19885C2.92973 7.23428 2.80798 7.28645 2.70278 7.36898C2.684 7.32713 2.64868 7.17923 2.64738 7.06178C2.63205 5.67728 3.73372 4.93723 4.06945 4.5499C4.16717 4.4371 4.22328 4.29883 4.27238 4.15903C4.29235 4.10233 4.30947 4.04478 4.32837 3.98593C4.33145 3.9901 4.33468 3.99295 4.3361 3.99593C4.4299 4.17603 4.48755 4.35993 4.44263 4.56845C4.37368 4.88743 4.24528 5.17225 4.00348 5.39813C4.00085 5.40063 3.9987 5.40385 3.99038 5.41335C4.00228 5.40728 4.00643 5.40575 4.01025 5.40313C4.20913 5.28853 4.3909 5.15228 4.54462 4.98063C4.80307 4.69245 4.94192 4.35518 4.96095 3.96785C4.96927 3.79918 4.94607 3.63263 4.9273 3.46605C4.877 3.02275 4.5533 2.66385 4.11807 2.55793C4.08537 2.54995 4.05208 2.53865 4.0226 2.52308C3.98075 2.50085 3.96935 2.46448 3.98515 2.4205C3.99085 2.40468 3.9993 2.38935 4.00835 2.37508C4.0855 2.255 4.18357 2.15575 4.30422 2.07883C4.36617 2.03948 4.428 2.00025 4.48768 1.95758C4.73258 1.78258 4.9959 1.6468 5.28715 1.56693C5.40735 1.53398 5.52885 1.50485 5.65522 1.51593C5.69467 1.51948 5.7332 1.5341 5.77255 1.53875C5.78895 1.54088 5.80668 1.52935 5.82403 1.52413C5.81428 1.51318 5.80655 1.49868 5.79455 1.4919C5.71845 1.44815 5.6344 1.4346 5.54845 1.43175C5.42185 1.42748 5.29857 1.45148 5.17527 1.47658C5.16292 1.47905 5.14997 1.47905 5.13725 1.48013C5.23817 1.39288 5.35265 1.33653 5.47652 1.2993C5.68052 1.23738 5.88882 1.22348 6.09982 1.24118C6.16735 1.24688 6.23595 1.24963 6.29812 1.28493C6.35922 1.3194 6.42355 1.3483 6.48667 1.37898C6.50035 1.38563 6.51558 1.38895 6.53018 1.39383C6.53245 1.39133 6.53448 1.38918 6.53673 1.3867C6.53008 1.36958 6.5246 1.35198 6.51615 1.3358C6.49345 1.2911 6.4686 1.24748 6.44555 1.20278C6.44137 1.19435 6.4434 1.1822 6.4428 1.17188C6.45233 1.1714 6.46302 1.16783 6.47122 1.17068C6.51972 1.18685 6.56918 1.20113 6.6153 1.22275C6.68128 1.25413 6.75 1.26483 6.82193 1.2697C6.91988 1.27648 7.01807 1.28575 7.11545 1.29968C7.25835 1.32023 7.36725 1.39395 7.43785 1.52175C7.4545 1.55158 7.47197 1.58083 7.48992 1.60995C7.49635 1.6203 7.50515 1.6291 7.51288 1.63848C7.5162 1.63693 7.52012 1.63563 7.52357 1.63373C7.50122 1.55765 7.47898 1.48168 7.45568 1.40143C7.52963 1.41833 7.60678 1.46955 7.66778 1.54148C7.6988 1.57738 7.72625 1.61578 7.75693 1.65168C7.76918 1.66595 7.7857 1.6764 7.8001 1.68878C7.80412 1.6865 7.8083 1.68473 7.81245 1.68235C7.8065 1.63148 7.80045 1.5807 7.79475 1.52958C7.7977 1.52853 7.80105 1.52733 7.80412 1.5265C7.85025 1.55455 7.8958 1.58345 7.94193 1.6115C8.0986 1.7059 8.24543 1.81218 8.3555 1.96195C8.3706 1.98265 8.3819 1.97968 8.38988 1.9546C8.3996 1.92308 8.40615 1.89053 8.41698 1.85925C8.42005 1.84973 8.43338 1.83678 8.44098 1.83725C8.45158 1.83808 8.4663 1.84855 8.46975 1.85818C8.47713 1.87838 8.48023 1.90063 8.48165 1.9226C8.4846 1.9666 8.48355 2.01083 8.48818 2.05458C8.4896 2.068 8.504 2.08048 8.51243 2.09298C8.52373 2.08298 8.5393 2.07513 8.545 2.06253C8.56248 2.02653 8.57555 1.98835 8.59185 1.95163C8.60683 1.91763 8.61575 1.91703 8.6375 1.9459C8.66602 1.98408 8.69813 2.01488 8.75198 2.01105C8.8019 2.00725 8.8082 2.01095 8.82675 2.05743C8.8585 2.13673 8.88547 2.21755 8.91805 2.29638C8.9335 2.33395 8.95718 2.36818 8.97583 2.40433C8.98048 2.41288 8.9844 2.42513 8.98213 2.43358C8.91593 2.64695 8.89773 2.86678 8.89548 3.08838C8.89345 3.29345 8.8976 3.49853 8.8906 3.70323C8.88525 3.86338 8.85838 4.01958 8.7389 4.14298C8.75543 4.13775 8.77113 4.1318 8.78598 4.1242C8.8629 4.08425 8.92603 4.02683 8.98108 3.96073C9.10315 3.81475 9.18328 3.6457 9.2545 3.47083C9.31145 3.33078 9.36885 3.19085 9.42865 3.052C9.44352 3.01753 9.46825 2.98708 9.49035 2.95583C9.4957 2.94845 9.51153 2.94 9.51758 2.9431C9.5265 2.94703 9.53505 2.96033 9.53638 2.97045C9.53945 2.99303 9.53945 3.0168 9.53837 3.0394C9.53327 3.15388 9.52375 3.26825 9.5435 3.38238C9.54635 3.39985 9.55135 3.41945 9.54695 3.4355C9.50403 3.59208 9.44828 3.7433 9.35163 3.87633C9.34878 3.88048 9.34675 3.8856 9.34068 3.89738C9.4094 3.8667 9.45565 3.82128 9.4931 3.7679C9.53055 3.71428 9.56335 3.65735 9.6002 3.59815C9.6159 3.66163 9.63088 3.72273 9.64585 3.78383C9.66713 3.87253 9.6405 3.94528 9.56892 3.99748ZM9.64668 4.91488C9.47085 5.08083 9.2627 5.19793 9.04395 5.29733C8.74793 5.4319 8.43777 5.52523 8.12155 5.5987C8.0086 5.62495 7.89482 5.64768 7.77392 5.67358C7.82255 5.6133 7.8656 5.55935 7.90992 5.50595C7.9141 5.50085 7.9235 5.4986 7.9311 5.49753C8.12915 5.47695 8.31972 5.42573 8.50315 5.3494C8.92767 5.1732 9.29123 4.9069 9.61518 4.58403C9.61815 4.58105 9.6203 4.57725 9.62255 4.57393C9.6115 4.57725 9.6033 4.58273 9.59498 4.58843C9.32165 4.77815 9.0405 4.95505 8.74498 5.10818C8.5557 5.20568 8.36287 5.29543 8.15555 5.34845C8.10668 5.36093 8.05675 5.36925 7.99958 5.3809C8.00743 5.36735 8.01063 5.36235 8.01348 5.35713C8.0785 5.24323 8.1502 5.13208 8.2069 5.0139C8.2422 4.9396 8.2919 4.88515 8.35468 4.83725C8.59005 4.6581 8.84945 4.51983 9.1141 4.39038C9.1166 4.3893 9.11945 4.38965 9.128 4.3881C9.0273 4.5479 8.93018 4.70338 8.75673 4.791C8.80155 4.78363 8.84612 4.77615 8.88905 4.76308C9.0222 4.7223 9.13417 4.64383 9.2394 4.55585C9.36802 4.4485 9.4925 4.33545 9.62302 4.22965C9.6902 4.17495 9.76213 4.12218 9.83975 4.08438C9.92143 4.04503 10.0119 4.02468 10.099 3.9977C10.1214 3.99033 10.1453 3.98915 10.178 3.98343C10.1673 4.0386 10.1627 4.08698 10.1482 4.13193C10.0487 4.43568 9.87828 4.69555 9.64668 4.91488ZM8.0438 7.26448C7.97948 7.30025 7.911 7.33235 7.84088 7.35375C7.69713 7.39725 7.54757 7.39798 7.3985 7.39763C7.29305 7.3975 7.18747 7.39608 7.08215 7.39725C7.05565 7.39763 7.02937 7.40593 7.00322 7.4107C7.00322 7.41545 7.00297 7.42033 7.00275 7.42533C7.02545 7.434 7.04758 7.44458 7.07075 7.45123C7.14423 7.47215 7.21805 7.49093 7.29128 7.51138C7.30565 7.51555 7.31872 7.52375 7.33275 7.53018C7.33227 7.53303 7.3317 7.536 7.33122 7.53873C7.3217 7.54253 7.31232 7.54788 7.3022 7.55015C7.1548 7.5795 7.0081 7.61518 6.85925 7.6362C6.60745 7.672 6.3578 7.71563 6.11398 7.7898C6.09318 7.796 6.07035 7.79908 6.04895 7.79765C5.8024 7.78043 5.55595 7.76283 5.30937 7.74475C5.0243 7.72395 4.7391 7.7212 4.4545 7.7513C4.13103 7.7854 3.818 7.8622 3.51522 7.97918C3.07997 8.1474 2.68553 8.3873 2.31486 8.66823C2.30856 8.67298 2.3025 8.6787 2.29643 8.6838C2.30868 8.68143 2.31795 8.67643 2.32698 8.67095C2.66557 8.46885 3.0146 8.28853 3.3835 8.148C3.69628 8.029 4.01737 7.94305 4.34917 7.89905C4.58895 7.86733 4.82958 7.86008 5.07128 7.8616C5.34125 7.86305 5.61183 7.8616 5.8818 7.8615C5.88525 7.8615 5.88882 7.86198 5.89275 7.86233C5.89167 7.8647 5.89155 7.8659 5.89108 7.86638C5.88465 7.86875 5.87822 7.8716 5.8717 7.8741C5.63025 7.96848 5.40128 8.08643 5.19228 8.24038C5.12915 8.2872 5.06127 8.32228 4.98887 8.3495C4.93265 8.37078 4.87605 8.3916 4.81865 8.40965C4.52392 8.50275 4.21887 8.5484 3.9155 8.6032C3.66547 8.64825 3.41583 8.6945 3.16808 8.74918C2.94233 8.799 2.7243 8.87545 2.5216 8.99063C2.17375 9.18823 1.96915 9.484 1.91339 9.88118C1.9046 9.9436 1.8996 10.0069 1.8933 10.0628C1.88118 10.0403 1.86798 10.0129 1.85241 9.98675C1.72057 9.76503 1.62831 9.52893 1.59954 9.27108C1.56079 8.92263 1.66017 8.6221 1.91256 8.37518C1.9229 8.36508 1.92992 8.35153 1.93669 8.3381C1.97307 8.26438 2.00315 8.187 2.04535 8.1172C2.16602 7.91928 2.33626 7.7702 2.52802 7.64418C2.78265 7.47715 3.06073 7.3604 3.34783 7.26353C3.80065 7.1104 4.26655 7.01043 4.7347 6.92043C5.1162 6.8472 5.4984 6.7768 5.87967 6.70275C6.1771 6.6452 6.46635 6.56365 6.74013 6.42873C7.08358 6.25968 7.40148 6.05663 7.67075 5.78213C7.67965 5.77285 7.69677 5.76785 7.71032 5.76738C7.89045 5.76228 8.06948 5.7454 8.24638 5.71198C8.74188 5.61808 9.19565 5.42513 9.61125 5.1404C9.61815 5.136 9.62527 5.13268 9.63657 5.12578C9.63407 5.14063 9.63302 5.14955 9.63087 5.1581C9.59592 5.31303 9.5505 5.46495 9.49155 5.61225C9.2029 6.33315 8.72273 6.88655 8.0438 7.26448ZM12.0293 11.0376C12.0173 11.156 11.9927 11.2733 11.9668 11.3898C11.9266 11.569 11.817 11.6875 11.6396 11.7411C11.5602 11.7651 11.4786 11.7746 11.3958 11.7749C11.2333 11.7752 11.0741 11.7491 10.9168 11.7102C10.7858 11.6774 10.6593 11.6333 10.5458 11.5584C10.4374 11.4869 10.3568 11.3941 10.3254 11.2646C10.3061 11.1837 10.3117 11.1037 10.3248 11.0226C10.33 10.9904 10.3439 10.9762 10.3735 10.9647C10.6323 10.8614 10.8389 10.6974 10.9629 10.4421C10.9795 10.4083 11.003 10.3912 11.039 10.3875C11.1628 10.3738 11.2842 10.3784 11.3972 10.4384C11.4698 10.4769 11.5421 10.4725 11.6138 10.4377C11.6433 10.4233 11.672 10.4055 11.6981 10.3856C11.7307 10.3608 11.7603 10.3319 11.7963 10.3003C11.7993 10.3055 11.8015 10.3102 11.8046 10.314C11.9839 10.523 12.0563 10.7663 12.0293 11.0376ZM10.1152 11.5664C10.1352 11.5793 10.153 11.5961 10.1708 11.6125C10.325 11.7562 10.5028 11.8606 10.6996 11.9345C10.8755 12.0005 11.0583 12.0301 11.2444 12.0401C11.382 12.0475 11.5206 12.0463 11.6544 12.0098C11.746 11.9848 11.8339 11.9471 11.9243 11.9174C11.9436 11.9111 11.9727 11.9067 11.9858 11.9167C12.0079 11.9337 11.9914 11.9607 11.9833 11.9833C11.9829 11.9842 11.9821 11.9851 11.9817 11.9858C11.9173 12.1086 11.8331 12.2147 11.7191 12.2953C11.5136 12.4405 11.2828 12.4691 11.0406 12.4414C11.0009 12.4369 10.9665 12.4442 10.934 12.4626C10.9188 12.4713 10.9094 12.4901 10.8973 12.5045C10.8996 12.5069 10.9017 12.5098 10.9039 12.5123C10.9124 12.5113 10.9211 12.5098 10.9298 12.5097C10.9747 12.5083 11.0205 12.5014 11.0644 12.5072C11.2058 12.526 11.2734 12.6821 11.1919 12.7971C11.1647 12.836 11.1291 12.864 11.0785 12.8577C11.0264 12.8508 11.0005 12.8121 10.9828 12.7673C10.9785 12.7564 10.9767 12.744 10.9755 12.732C10.9702 12.6867 10.967 12.6804 10.9203 12.6819C10.8764 12.6833 10.8328 12.69 10.789 12.6967C10.7347 12.7043 10.6996 12.6843 10.6825 12.6319C10.6687 12.5896 10.6729 12.5468 10.6938 12.5092C10.7161 12.4681 10.7448 12.4306 10.7693 12.3929C10.7036 12.3655 10.6312 12.3406 10.5638 12.3057C10.3061 12.1722 10.1316 11.9701 10.0659 11.6827C10.0591 11.6547 10.0565 11.625 10.0574 11.5961C10.0588 11.5548 10.0817 11.5439 10.1152 11.5664ZM10.2497 11.2067C10.2689 11.2675 10.2817 11.3291 10.3074 11.3843C10.3673 11.5123 10.4739 11.5952 10.5983 11.6528C10.8936 11.7885 11.2051 11.8493 11.5293 11.8217C11.7257 11.8051 11.8884 11.723 11.9796 11.5352C11.98 11.5345 11.9813 11.534 11.9847 11.5312C12.0448 11.559 12.0783 11.6053 12.0864 11.6705C12.0938 11.7304 12.0682 11.7768 12.0178 11.8035C11.9527 11.8382 11.8862 11.874 11.816 11.8952C11.5198 11.9849 11.2202 11.9828 10.9209 11.9103C10.6928 11.8551 10.4824 11.7616 10.299 11.6133C10.2273 11.5555 10.162 11.4918 10.1213 11.4074C10.1111 11.3865 10.1018 11.3613 10.1034 11.3392C10.1088 11.2701 10.1852 11.2064 10.2497 11.2067ZM0.840602 9.69823C0.600102 9.27988 0.47492 8.83585 0.47466 8.76773C0.473967 8.55483 0.490492 8.3426 0.522352 8.13123C0.529725 8.08225 0.539472 8.03363 0.547912 7.98478C0.556947 7.9937 0.55992 8.00273 0.562655 8.012C0.5982 8.13005 0.62911 8.24975 0.669767 8.36603C0.883517 8.9753 1.20854 9.5218 1.61131 10.0239C1.62594 10.0422 1.63854 10.0638 1.64579 10.086C1.73329 10.3555 1.85883 10.6001 2.01979 10.8217C1.83921 10.7448 1.63366 10.7171 1.38865 10.4352C1.68954 11.0155 2.40236 11.2454 2.40236 11.2454C2.79895 11.6002 3.26057 11.8348 3.77187 11.9752C3.81325 11.9865 3.85485 11.9955 3.8966 12.0055C3.88755 11.9967 3.87733 11.9931 3.8671 11.9891C3.48658 11.853 3.13597 11.6632 2.81857 11.413C2.42352 11.1015 2.12477 10.7178 1.94621 10.2446C1.92718 10.1937 1.91815 10.1463 1.93776 10.0938C1.95108 10.0581 1.95797 10.0202 1.96903 9.98365C2.05296 9.7094 2.18433 9.46283 2.39558 9.26383C2.59768 9.07315 2.84055 8.95795 3.104 8.8802C3.41953 8.7877 3.7455 8.75358 4.06992 8.71103C4.2581 8.68653 4.44535 8.65683 4.63295 8.62818C4.68335 8.62068 4.73318 8.6082 4.78678 8.59713C4.78273 8.6038 4.78155 8.60678 4.7794 8.60915C4.63295 8.77355 4.51097 8.95415 4.41397 9.1522C4.40815 9.16445 4.3947 9.17658 4.38175 9.1806C4.29508 9.20795 4.20913 9.2404 4.1202 9.25825C3.98838 9.28453 3.85343 9.29463 3.7216 9.32053C3.0146 9.46083 2.7967 9.8397 2.7999 9.83625C3.0146 9.60823 3.35805 9.54393 3.44887 9.5123C3.66037 9.4387 3.8797 9.41873 4.10178 9.42088C4.1668 9.42183 4.2316 9.42563 4.2984 9.42825C4.09905 10.079 4.1252 10.7134 4.3953 11.3348C4.39552 11.323 4.3928 11.3118 4.39008 11.3006C4.28438 10.8993 4.24157 10.4933 4.30197 10.0801C4.37485 9.57828 4.593 9.15078 4.95738 8.79853C5.23045 8.5346 5.55155 8.34463 5.89607 8.1915C6.22335 8.046 6.56728 7.956 6.91418 7.8723C7.17525 7.80943 7.43738 7.74773 7.69513 7.67175C8.04035 7.5706 8.3529 7.4044 8.61907 7.15878C8.66045 7.12075 8.70192 7.08188 8.73605 7.0374C8.96037 6.7471 9.23392 6.51978 9.57047 6.37165C9.59177 6.30045 9.62885 6.22533 9.68688 6.14685C9.76903 6.03678 9.87078 5.94605 9.9804 5.86463C10.0115 5.84168 10.0527 5.82848 10.0914 5.82088C10.1335 5.8122 10.1587 5.83253 10.1732 5.8733C10.177 5.88485 10.1798 5.89638 10.1819 5.90815C10.2043 5.91588 10.2267 5.928 10.2487 5.9451C10.2638 5.95675 10.2784 5.96938 10.2916 5.98255C10.3536 6.04485 10.3971 6.11903 10.4321 6.19858C10.4397 6.2158 10.45 6.22258 10.4678 6.22485C10.5095 6.2303 10.5514 6.23613 10.5926 6.2441C11.2623 6.37653 11.7496 6.88535 11.8347 7.61695C11.8422 7.68293 11.8419 7.7513 11.8616 7.8131C11.8869 7.8917 11.9286 7.96493 11.9634 8.04053C11.9939 8.10698 12.0273 8.17213 12.0538 8.24038C12.081 8.31015 12.0844 8.3829 12.0632 8.45625C12.0558 8.48148 12.0412 8.48813 12.0215 8.47588C11.994 8.45853 11.9692 8.43678 11.9428 8.41715C11.9108 8.39325 11.881 8.3659 11.8464 8.347C11.8183 8.33143 11.7862 8.33465 11.761 8.36353C11.7668 8.36793 11.7717 8.37138 11.776 8.37543C11.845 8.43688 11.9141 8.49775 11.9819 8.5604C11.99 8.56778 11.9958 8.58275 11.9951 8.59428C11.989 8.6914 11.9568 8.7795 11.8878 8.8494C11.7989 8.9394 11.6944 8.98743 11.5646 8.957C11.5614 9.00538 11.5579 9.0137 11.5302 9.02868C11.3495 9.12653 11.1583 9.18418 10.9512 9.18025C10.799 9.17765 10.6616 9.2259 10.5307 9.29913C10.49 9.32185 10.4464 9.3423 10.4016 9.35418C10.2601 9.39175 10.1148 9.40258 9.96875 9.40638C9.95673 9.4066 9.94507 9.40733 9.93307 9.40793C9.94057 9.41635 9.94805 9.41898 9.95543 9.42063C10.0719 9.44823 10.1901 9.45178 10.3091 9.4431C10.3476 9.44038 10.391 9.43205 10.4245 9.4456C10.5227 9.48555 10.6179 9.53333 10.7125 9.58195C10.739 9.59563 10.7624 9.60218 10.7893 9.59218C10.8493 9.5697 10.9096 9.54748 10.9681 9.52145C11.0924 9.46618 11.2196 9.43288 11.357 9.45178C11.432 9.462 11.5054 9.47853 11.5709 9.5186C11.6132 9.54475 11.6469 9.57803 11.6501 9.63225C11.6508 9.63985 11.6576 9.6483 11.6637 9.654C11.6813 9.67028 11.7008 9.6849 11.7186 9.70108C11.7709 9.74935 11.7931 9.80925 11.7866 9.88C11.781 9.93943 11.7634 9.9493 11.7117 9.92303C11.6867 9.91043 11.6607 9.90008 11.6345 9.92005C11.6677 9.94123 11.7003 9.96025 11.7312 9.98165C11.7778 10.0135 11.7942 10.0594 11.7926 10.1147C11.7878 10.2685 11.6063 10.4046 11.4506 10.3703C11.3991 10.359 11.3534 10.3387 11.3252 10.29C11.3215 10.2836 11.3109 10.2768 11.3038 10.2773C11.2631 10.2796 11.2216 10.2793 11.1824 10.2881C11.1105 10.3044 11.0394 10.3217 10.9653 10.3076C10.9312 10.3011 10.8976 10.2917 10.8623 10.2836C10.8347 10.3797 10.7893 10.465 10.7285 10.5424C10.5877 10.7215 10.4025 10.8349 10.1889 10.9049C9.9119 10.9958 9.6272 11.0058 9.34235 10.9649C8.93043 10.9061 8.63832 10.6825 8.48092 10.2945C8.44192 10.1986 8.42185 10.0951 8.39248 9.99483C8.3454 9.83363 8.28215 9.6786 8.19858 9.53215C8.06388 9.297 7.8871 9.10345 7.64495 8.97578C7.37295 8.8324 7.08382 8.80375 6.78435 8.85703C6.72752 8.86713 6.67178 8.88175 6.60878 8.89588C6.71825 8.90243 6.81895 8.90468 6.9187 8.9148C7.1964 8.94273 7.45675 9.02618 7.69345 9.17598C7.97472 9.35443 8.18527 9.58838 8.27325 9.9203C8.32032 10.0976 8.38617 10.2696 8.46867 10.4344C8.52347 10.5447 8.58412 10.6504 8.66865 10.7411C8.8094 10.8917 8.98605 10.9768 9.18077 11.0316C9.2407 11.0484 9.30015 11.0669 9.35923 11.0859C9.38848 11.0955 9.40678 11.1161 9.41833 11.1457C9.45088 11.2304 9.46027 11.3168 9.44267 11.4059C9.41545 11.5459 9.34688 11.6648 9.25485 11.7711C9.17568 11.8626 9.07653 11.9297 8.97738 11.9966C8.92923 12.0288 8.88227 12.0639 8.83827 12.1018C8.80025 12.1341 8.77705 12.1786 8.77945 12.2294C8.7836 12.3201 8.78895 12.3344 8.8793 12.3044C8.89345 12.2996 8.90748 12.294 8.92138 12.288C8.9952 12.2562 9.06855 12.2239 9.14287 12.1929C9.28517 12.1333 9.43293 12.1113 9.58475 12.1478C9.75285 12.188 9.8715 12.2868 9.92488 12.4556C9.9358 12.4902 9.93843 12.5269 9.92 12.5579C9.91095 12.5733 9.88803 12.5884 9.87103 12.5889C9.85568 12.5893 9.8376 12.5719 9.825 12.5582C9.8174 12.5496 9.81765 12.5337 9.81408 12.5211C9.79673 12.4559 9.7683 12.3984 9.70435 12.3668C9.6921 12.3607 9.67842 12.3592 9.66535 12.3553C9.7506 12.4437 9.7966 12.5438 9.79053 12.6645C9.7859 12.7561 9.71398 12.8158 9.62173 12.8106C9.59485 12.809 9.57595 12.7964 9.57298 12.7703C9.5694 12.7385 9.57072 12.7064 9.57012 12.6745C9.56917 12.6364 9.57203 12.5977 9.56668 12.5603C9.55825 12.4991 9.52043 12.4593 9.4617 12.4404C9.4333 12.4313 9.40595 12.4362 9.37955 12.4496C9.41665 12.4573 9.45207 12.4684 9.47085 12.5031C9.4887 12.5364 9.50713 12.5711 9.51615 12.6074C9.5354 12.6856 9.52615 12.7611 9.45422 12.8091C9.422 12.8307 9.37812 12.8396 9.33842 12.845C9.25307 12.8569 9.1714 12.8328 9.0889 12.8138C9.03942 12.8023 8.9882 12.7946 8.9378 12.7945C8.89013 12.7944 8.84198 12.8045 8.79478 12.813C8.50733 12.8648 8.21842 12.8428 7.92575 12.8393C7.60917 12.8354 7.29257 12.8373 6.976 12.8371C6.40927 12.8371 5.84245 12.8368 5.27528 12.8368C5.04118 12.8368 4.8071 12.8392 4.57303 12.8377C4.25015 12.8357 3.93095 12.7993 3.61875 12.7174C2.42958 12.4064 1.53963 11.7626 0.953065 10.6835C0.694495 10.2075 0.546842 9.69835 0.494892 9.16373C0.48871 9.1019 0.84393 9.76325 0.840602 9.69823Z" fill="white"/>
<path d="M10.1383 6.89487C10.0384 6.68232 10.0372 6.59232 10.1475 6.39117C10.2308 6.23925 10.452 6.37442 10.422 6.20477C10.4094 6.05735 10.255 5.89545 10.2264 5.86025C10.1912 5.81852 10.1716 5.7775 10.1196 5.7881C10.0722 5.79785 10.0271 5.82077 9.98872 5.8492C9.85355 5.94965 9.72837 6.06165 9.62672 6.19727C9.4433 6.44205 9.5189 6.59055 9.7336 6.78575C9.82455 6.8679 10.149 6.9176 10.1383 6.89487Z" fill="white"/>
<path opacity="0.2" d="M9.93929 6.08765C9.99219 6.02988 10.0747 5.974 10.1605 5.9167C10.2062 5.8865 10.0702 6.25755 10.0307 6.35658C9.90089 6.681 10.0709 6.88203 10.0242 6.85718C9.9211 6.8025 9.77405 6.61145 9.76395 6.4934C9.75265 6.36573 9.85179 6.18348 9.93929 6.08765Z" fill="white"/>
<path d="M10.0969 6.87508C9.99701 6.66253 9.99593 6.57265 10.1064 6.37138C10.1894 6.21958 10.2279 6.06658 10.198 5.89668C10.1948 5.87778 10.191 5.85853 10.1848 5.84023C10.1672 5.78923 10.136 5.76425 10.084 5.77495C10.0365 5.7847 9.98535 5.80075 9.9473 5.82905C9.81213 5.9295 9.68683 6.04148 9.58531 6.17713C9.44456 6.36485 9.45988 6.493 9.56666 6.6353C9.59721 6.67595 9.61598 6.67478 9.65533 6.68215C9.7062 6.69178 9.71655 6.62093 9.70038 6.59228C9.66318 6.5264 9.63868 6.46018 9.63406 6.40813C9.62263 6.2802 9.69421 6.14135 9.78171 6.04565C9.86278 5.95695 10.0268 5.8193 10.1386 5.78588C10.1657 5.88943 10.108 6.09605 10.0717 6.19638C10.0272 6.31895 9.89251 6.54258 9.92638 6.68833C9.92638 6.68833 9.97371 6.82313 10.0241 6.85738C10.0743 6.8915 10.0969 6.87508 10.0969 6.87508Z" fill="white"/>
<path opacity="0.2" d="M4.03611 9.32858C4.02244 9.32928 4.00971 9.32785 3.99939 9.32228C4.01234 9.32143 4.02459 9.32393 4.03611 9.32858Z" fill="white"/>
<path opacity="0.2" d="M10.1818 11.1109C10.2984 10.9337 10.4295 10.8738 10.5776 10.7344C10.7185 10.6021 10.8267 10.4424 10.9669 10.3125C11.0768 10.3354 11.2002 10.3168 11.313 10.3225C11.3936 10.5216 11.785 10.3322 11.8208 10.2038L11.8727 10.2817C11.9856 10.5039 11.5809 10.5187 11.3505 10.4957C11.1889 10.4796 10.491 10.6631 10.5139 11.5631C10.4355 11.6838 10.2502 11.5659 10.25 11.7232C10.2499 11.8842 10.2525 12.1681 10.3915 12.2706C10.3518 12.411 10.2134 12.2625 10.1753 12.2062C10.0899 12.0803 9.96802 11.8575 9.94032 11.7083C9.89347 11.4534 10.0542 11.3045 10.1818 11.1109Z" fill="white"/>
<defs>
<linearGradient id="paint0_linear_6_145" x1="177.714" y1="-1244.77" x2="-150.567" y2="287.115" gradientUnits="userSpaceOnUse">
<stop offset="1" stop-color="white"/>
</linearGradient>
<linearGradient id="paint1_linear_6_145" x1="383.25" y1="-1300.38" x2="23.0282" y2="380.59" gradientUnits="userSpaceOnUse">
<stop offset="1" stop-color="white"/>
</linearGradient>
<linearGradient id="paint2_linear_6_145" x1="367.863" y1="-684.59" x2="350.843" y2="107.047" gradientUnits="userSpaceOnUse">
<stop stop-color="white"/>
<stop offset="0.384" stop-color="white"/>
<stop offset="0.732" stop-color="white"/>
</linearGradient>
<linearGradient id="paint3_linear_6_145" x1="25.4393" y1="-589.44" x2="229.699" y2="-237.541" gradientUnits="userSpaceOnUse">
<stop stop-color="white"/>
<stop offset="1" stop-color="white"/>
</linearGradient>
<linearGradient id="paint4_linear_6_145" x1="41.606" y1="-372.29" x2="217.153" y2="-69.9325" gradientUnits="userSpaceOnUse">
<stop stop-color="white"/>
<stop offset="1" stop-color="white"/>
</linearGradient>
<linearGradient id="paint5_linear_6_145" x1="63.765" y1="-405.455" x2="39.8703" y2="11.4967" gradientUnits="userSpaceOnUse">
<stop stop-color="white"/>
</linearGradient>
<linearGradient id="paint6_linear_6_145" x1="139.174" y1="69.6353" x2="4.11604" y2="-528.777" gradientUnits="userSpaceOnUse">
<stop stop-color="white"/>
<stop offset="0.384" stop-color="white"/>
</linearGradient>
<linearGradient id="paint7_linear_6_145" x1="-74.5975" y1="-369.65" x2="386.433" y2="23.0589" gradientUnits="userSpaceOnUse">
<stop stop-color="white"/>
<stop offset="1" stop-color="white"/>
</linearGradient>
<linearGradient id="paint8_linear_6_145" x1="278.09" y1="-285.372" x2="71.0188" y2="-229.058" gradientUnits="userSpaceOnUse">
<stop offset="0.732" stop-color="white"/>
</linearGradient>
<linearGradient id="paint9_linear_6_145" x1="1990.62" y1="-569.322" x2="-18.4743" y2="507.907" gradientUnits="userSpaceOnUse">
<stop stop-color="white"/>
<stop offset="0.384" stop-color="white"/>
<stop offset="0.732" stop-color="white"/>
</linearGradient>
<radialGradient id="paint10_radial_6_145" cx="0" cy="0" r="1" gradientUnits="userSpaceOnUse" gradientTransform="translate(-57.1375 -26.4048) rotate(-131.665) scale(121.797 58.7633)">
<stop offset="0.009" stop-color="white"/>
<stop offset="1" stop-color="white" stop-opacity="0"/>
</radialGradient>
<radialGradient id="paint11_radial_6_145" cx="0" cy="0" r="1" gradientUnits="userSpaceOnUse" gradientTransform="translate(-83.504 69.4677) rotate(180) scale(132.264 132.264)">
<stop offset="0.009" stop-color="white"/>
<stop offset="1" stop-color="white" stop-opacity="0"/>
</radialGradient>
<radialGradient id="paint12_radial_6_145" cx="0" cy="0" r="1" gradientUnits="userSpaceOnUse" gradientTransform="translate(-42.785 89.1043) rotate(180) scale(132.269 132.269)">
<stop offset="0.009" stop-color="white"/>
<stop offset="1" stop-color="white" stop-opacity="0"/>
</radialGradient>
<linearGradient id="paint13_linear_6_145" x1="167.687" y1="-171.408" x2="65.9064" y2="57.9685" gradientUnits="userSpaceOnUse">
<stop offset="0.384" stop-color="white"/>
</linearGradient>
<linearGradient id="paint14_linear_6_145" x1="98.8035" y1="-667.555" x2="-7.22625" y2="138.187" gradientUnits="userSpaceOnUse">
<stop offset="0.732" stop-color="white"/>
</linearGradient>
<linearGradient id="paint15_linear_6_145" x1="86.886" y1="-795.308" x2="-18.9763" y2="9.22249" gradientUnits="userSpaceOnUse">
<stop offset="0.732" stop-color="white"/>
</linearGradient>
<linearGradient id="paint16_linear_6_145" x1="46.4462" y1="-526.208" x2="94.3533" y2="37.8273" gradientUnits="userSpaceOnUse">
<stop offset="0.732" stop-color="white"/>
</linearGradient>
<linearGradient id="paint17_linear_6_145" x1="30.072" y1="-399.21" x2="8.62803" y2="598.368" gradientUnits="userSpaceOnUse">
<stop offset="0.732" stop-color="white"/>
</linearGradient>
</defs>
</svg>
