<svg width="24" height="12" viewBox="0 0 24 12" fill="none" xmlns="http://www.w3.org/2000/svg">
<path d="M2.53502 1.59293C2.41643 1.47388 2.25189 1.40053 2.06846 1.40053C1.8855 1.40053 1.72222 1.47388 1.60512 1.59293H1.60213C1.48388 1.71118 1.41053 1.8762 1.41053 2.05845C1.41053 2.24178 1.48388 2.40573 1.60213 2.52283L1.60512 2.52605C1.72222 2.64408 1.8855 2.7164 2.06846 2.7164C2.25189 2.7164 2.41643 2.64408 2.53502 2.52605L2.5364 2.52283C2.65513 2.40573 2.72755 2.24178 2.72755 2.05845C2.72755 1.8762 2.65513 1.71118 2.5364 1.59293H2.53502ZM2.06846 10.5995C2.25189 10.5995 2.41643 10.5247 2.53502 10.4079L2.5364 10.4044C2.65513 10.2878 2.72755 10.1228 2.72755 9.94143C2.72755 9.75811 2.65513 9.59393 2.5364 9.4751H2.53502C2.41643 9.35488 2.25189 9.28223 2.06846 9.28223C1.8855 9.28223 1.72222 9.35488 1.60512 9.4751H1.60213C1.48388 9.59393 1.41053 9.75811 1.41053 9.94143C1.41053 10.1228 1.48388 10.2878 1.60213 10.4044L1.60512 10.4079C1.72222 10.5247 1.8855 10.5995 2.06846 10.5995ZM5.65322 8.60598C5.81615 8.56315 5.96365 8.4586 6.05382 8.3004L6.0659 8.27726C6.14605 8.12746 6.16068 7.95428 6.11783 7.80056C6.07465 7.63648 5.96895 7.49093 5.8111 7.40033L5.80177 7.3941C5.64792 7.30958 5.47293 7.29115 5.31195 7.33503C5.14833 7.3759 5.00127 7.48483 4.9117 7.64165C4.82097 7.79755 4.80207 7.97673 4.8455 8.1416C4.89027 8.30385 4.99517 8.45043 5.15212 8.54208C5.3094 8.63248 5.4881 8.6487 5.65322 8.60598ZM2.74332 5.32578C2.5706 5.15353 2.33226 5.04553 2.06846 5.04553C1.80502 5.04553 1.56736 5.15353 1.39499 5.32578C1.22319 5.4978 1.11726 5.73511 1.11726 5.99891C1.11726 6.26271 1.22319 6.50105 1.39499 6.67503C1.56736 6.84625 1.80502 6.95323 2.06846 6.95323C2.33226 6.95323 2.5706 6.84625 2.74332 6.67503C2.91557 6.50105 3.0215 6.26271 3.0215 5.99891C3.0215 5.73511 2.91557 5.4978 2.74332 5.32578ZM2.36381 4.2044C2.74678 4.2675 3.0906 4.45093 3.35348 4.71563H3.35542C3.39722 4.7573 3.43787 4.80326 3.47575 4.84908L4.13265 4.4691C4.04432 4.2022 4.04018 3.9232 4.11123 3.6615C4.20483 3.3111 4.43203 2.99746 4.7726 2.80091L4.78368 2.79388C5.12058 2.60333 5.50343 2.5636 5.84898 2.6572C6.199 2.75105 6.51473 2.97928 6.71128 3.31928V3.32033C6.9069 3.6585 6.94653 4.04653 6.85325 4.39588C6.7601 4.74615 6.53212 5.06198 6.19187 5.25738L6.10218 5.31036H6.09307C5.7784 5.46016 5.43237 5.48363 5.11457 5.39993C4.85367 5.33085 4.6144 5.18508 4.42695 4.97838L3.77098 5.35733C3.8464 5.55675 3.88808 5.77173 3.88808 5.99891C3.88808 6.22493 3.8464 6.44303 3.77098 6.64348L4.42695 7.02138C4.6144 6.81148 4.85367 6.66905 5.11457 6.59973C5.46475 6.50405 5.85277 6.54468 6.19187 6.74238L6.21362 6.75253V6.75355C6.54122 6.95218 6.76115 7.2587 6.85325 7.60493C6.94653 7.9522 6.9069 8.34048 6.71128 8.67933L6.69943 8.70293L6.69805 8.70098C6.5016 9.02766 6.19187 9.24896 5.85 9.34256C5.4994 9.43503 5.11125 9.39553 4.7726 9.2007V9.19805C4.43203 9.00115 4.20483 8.68683 4.11123 8.33713C4.04018 8.07655 4.04432 7.79755 4.13265 7.53078L3.47575 7.15173C3.43787 7.19755 3.39722 7.24143 3.35542 7.2831L3.35348 7.28518C3.0906 7.54898 2.74678 7.73228 2.36381 7.7933V8.55233C2.6367 8.60933 2.88103 8.74578 3.0724 8.93725L3.07343 8.93921C3.32998 9.19461 3.48887 9.55041 3.48887 9.94143C3.48887 10.3313 3.32998 10.685 3.07343 10.9417L3.0724 10.9457C2.81403 11.2023 2.45961 11.3612 2.06846 11.3612C1.67939 11.3612 1.32406 11.2023 1.06625 10.9457H1.06522V10.9417C0.808447 10.685 0.649203 10.3313 0.649203 9.94143C0.649203 9.55041 0.808447 9.19461 1.06522 8.93921V8.93725H1.06625C1.25751 8.74578 1.5023 8.60933 1.77416 8.55233V7.7933C1.3913 7.73228 1.04806 7.54898 0.785648 7.28518L0.782885 7.2831C0.455185 6.95425 0.25 6.50106 0.25 5.99891C0.25 5.49781 0.455185 5.0446 0.782885 4.71563H0.785648C1.04806 4.45093 1.3913 4.2675 1.77416 4.2044V3.4486C1.5023 3.38963 1.25751 3.2532 1.06625 3.06275H1.06522V3.06068C0.808447 2.80298 0.649203 2.4496 0.649203 2.05845C0.649203 1.6694 0.808447 1.3129 1.06522 1.05625L1.06625 1.05523C1.32406 0.797655 1.67939 0.638855 2.06846 0.638855C2.45961 0.638855 2.81403 0.797655 3.0724 1.05523V1.05625H3.07343C3.32998 1.3129 3.48887 1.6694 3.48887 2.05845C3.48887 2.4496 3.32998 2.80298 3.07343 3.06068L3.0724 3.06275C2.88103 3.2532 2.6367 3.38963 2.36381 3.4486V4.2044ZM6.05382 3.7003L6.04817 3.69201C5.95767 3.53933 5.81305 3.43753 5.65322 3.39368C5.4881 3.3498 5.31032 3.36823 5.15212 3.45895C4.99425 3.54853 4.8896 3.695 4.8455 3.8592C4.80207 4.02213 4.82097 4.2022 4.9117 4.35915L4.91482 4.36318C5.00565 4.51806 5.1504 4.6219 5.31195 4.6637C5.4743 4.70965 5.65518 4.69018 5.8111 4.59945L5.8195 4.59543C5.97297 4.50378 6.07523 4.35915 6.11783 4.20025C6.16135 4.03628 6.14397 3.85713 6.05382 3.7003Z" fill="white"/>
<path d="M8.96851 3.92231H9.70151V6.15978L10.7585 4.99061H11.6374L10.3613 6.34516L11.6427 8.06218H10.8034L9.70151 6.52848V8.06218H8.96851V3.92231ZM12.4889 6.53966C12.4889 6.92066 12.763 7.47461 13.4232 7.47461C13.8317 7.47461 14.1006 7.26171 14.24 6.98271C14.313 6.84731 14.3466 6.70258 14.3579 6.55196C14.363 6.40618 14.3355 6.25466 14.2735 6.12006C14.145 5.82991 13.8598 5.57831 13.4178 5.57831C12.825 5.57831 12.4889 6.05893 12.4889 6.53458V6.53966ZM15.0851 8.06218H14.3517V7.62026C14.1565 7.97768 13.7479 8.15706 13.3169 8.15706C12.3321 8.15706 11.756 7.39011 11.756 6.52341C11.756 5.55586 12.4553 4.89586 13.3169 4.89586C13.8764 4.89586 14.2176 5.19236 14.3517 5.43876V4.99061H15.0851V8.06218ZM15.915 5.55586H15.5352V4.99061H15.915V4.81756C15.915 3.90493 16.609 3.84988 17.1352 3.84378V4.40798C16.9502 4.40798 16.6484 4.40798 16.6484 4.83978V4.99061H17.1352V5.55586H16.6484V8.06218H15.915V5.55586ZM17.6336 3.92231H18.3664V6.15978L19.4237 4.99061H20.3026L19.0264 6.34516L20.3076 8.06218H19.4683L18.3664 6.52848V8.06218H17.6336V3.92231ZM21.154 6.53966C21.154 6.92066 21.428 7.47461 22.0883 7.47461C22.4963 7.47461 22.7651 7.26171 22.9048 6.98271C22.978 6.84731 23.0118 6.70258 23.0228 6.55196C23.0279 6.40618 23.0004 6.25466 22.9383 6.12006C22.81 5.82991 22.5248 5.57831 22.0829 5.57831C21.49 5.57831 21.154 6.05893 21.154 6.53458V6.53966ZM23.75 8.06218H23.0168V7.62026C22.8211 7.97768 22.4128 8.15706 21.982 8.15706C20.9972 8.15706 20.4216 7.39011 20.4216 6.52341C20.4216 5.55586 21.1207 4.89586 21.982 4.89586C22.5412 4.89586 22.8827 5.19236 23.0168 5.43876V4.99061H23.75V8.06218Z" fill="white"/>
</svg>
