<svg width="24" height="24" viewBox="0 0 24 24" fill="none" xmlns="http://www.w3.org/2000/svg">
<path d="M11.9153 0.311157C5.94952 0.311157 6.32207 2.89827 6.32207 2.89827L6.32872 5.5785H12.0217V6.38322H4.0675C4.0675 6.38322 0.25 5.95027 0.25 11.9698C0.25 17.9893 3.582 17.7758 3.582 17.7758H5.57055V14.9825C5.57055 14.9825 5.46335 11.6505 8.84933 11.6505H14.4958C14.4958 11.6505 17.6681 11.7019 17.6681 8.5846V3.43032C17.6681 3.43032 18.1498 0.311157 11.9153 0.311157ZM8.77617 2.11349C9.34257 2.11349 9.80037 2.57127 9.80037 3.1377C9.80037 3.7041 9.34257 4.1619 8.77617 4.1619C8.20975 4.1619 7.75198 3.7041 7.75198 3.1377C7.75198 2.57127 8.20975 2.11349 8.77617 2.11349Z" fill="url(#paint0_linear_2_15)"/>
<path d="M12.0848 23.6889C18.0506 23.6889 17.678 21.1018 17.678 21.1018L17.6714 18.4215H11.9784V17.6168H19.9326C19.9326 17.6168 23.7501 18.0497 23.7501 12.0302C23.7501 6.01075 20.4181 6.2242 20.4181 6.2242H18.4296V9.01747C18.4296 9.01747 18.5368 12.3495 15.1508 12.3495H9.50437C9.50437 12.3495 6.33199 12.2982 6.33199 15.4154V20.5697C6.33199 20.5697 5.85032 23.6889 12.0848 23.6889ZM15.2239 21.8865C14.6575 21.8865 14.1997 21.4287 14.1997 20.8623C14.1997 20.2959 14.6575 19.8381 15.2239 19.8381C15.7903 19.8381 16.2481 20.2959 16.2481 20.8623C16.2481 21.4287 15.7903 21.8865 15.2239 21.8865Z" fill="url(#paint1_linear_2_15)"/>
<defs>
<linearGradient id="paint0_linear_2_15" x1="226.089" y1="210.587" x2="1390.67" y2="1363.54" gradientUnits="userSpaceOnUse">
<stop stop-color="white"/>
<stop offset="1" stop-color="white"/>
</linearGradient>
<linearGradient id="paint1_linear_2_15" x1="339.655" y1="365.653" x2="1590.28" y2="1547.91" gradientUnits="userSpaceOnUse">
<stop stop-color="white"/>
<stop offset="1" stop-color="white"/>
</linearGradient>
</defs>
</svg>
