<svg width="24" height="24" viewBox="0 0 24 24" fill="none" xmlns="http://www.w3.org/2000/svg">
<path d="M6.87243 10.0773C6.87243 10.3665 6.90367 10.6009 6.9584 10.7729C7.02092 10.9448 7.09907 11.1324 7.2085 11.3356C7.24757 11.3982 7.2632 11.4607 7.2632 11.5154C7.2632 11.5936 7.21632 11.6717 7.1147 11.7499L6.6223 12.0781C6.55198 12.125 6.48162 12.1485 6.4191 12.1485C6.34095 12.1485 6.26278 12.1094 6.18463 12.0391C6.0752 11.9218 5.9814 11.7968 5.90325 11.6717C5.8251 11.5388 5.74693 11.3903 5.66095 11.2106C5.05133 11.9296 4.28538 12.2892 3.3631 12.2892C2.70658 12.2892 2.18291 12.1016 1.79993 11.7264C1.41696 11.3513 1.22156 10.851 1.22156 10.2258C1.22156 9.56144 1.45603 9.02214 1.9328 8.61571C2.40957 8.20929 3.04265 8.00606 3.84768 8.00606C4.11343 8.00606 4.38698 8.02951 4.67618 8.06861C4.96535 8.10769 5.26235 8.17021 5.575 8.24056V7.66999C5.575 7.07599 5.44993 6.66174 5.20765 6.41946C4.95753 6.17716 4.53548 6.05994 3.93365 6.05994C3.6601 6.05994 3.37873 6.09119 3.08955 6.16154C2.80035 6.23189 2.519 6.31786 2.24544 6.42726C2.12038 6.48199 2.02659 6.51324 1.97188 6.52889C1.91717 6.54451 1.87809 6.55234 1.84683 6.55234C1.73741 6.55234 1.68269 6.47416 1.68269 6.31004V5.92706C1.68269 5.80201 1.69833 5.70821 1.73741 5.65351C1.77648 5.59879 1.84683 5.54409 1.95625 5.48936C2.2298 5.34869 2.55808 5.23144 2.94105 5.13766C3.32403 5.03606 3.73045 4.98916 4.16033 4.98916C5.0904 4.98916 5.77038 5.20019 6.20808 5.62224C6.63795 6.04429 6.8568 6.68519 6.8568 7.54494V10.0773H6.87243ZM3.69917 11.2653C3.9571 11.2653 4.22285 11.2184 4.50422 11.1246C4.78557 11.0308 5.0357 10.8589 5.24673 10.6244C5.37178 10.4759 5.46558 10.3118 5.51245 10.1242C5.55935 9.93659 5.59062 9.70994 5.59062 9.44419V9.11594C5.36395 9.06121 5.12168 9.01431 4.87155 8.98306C4.62145 8.95179 4.37915 8.93616 4.13688 8.93616C3.6132 8.93616 3.23023 9.03776 2.9723 9.24879C2.71438 9.45981 2.58933 9.75684 2.58933 10.1476C2.58933 10.515 2.68313 10.7885 2.87853 10.9761C3.0661 11.1715 3.33965 11.2653 3.69917 11.2653ZM9.97532 12.1094C9.83462 12.1094 9.74082 12.0859 9.6783 12.0312C9.61577 11.9843 9.56108 11.8749 9.51418 11.7264L7.67745 5.68476C7.63055 5.52844 7.6071 5.42684 7.6071 5.37214C7.6071 5.24709 7.66963 5.17674 7.7947 5.17674H8.56065C8.70915 5.17674 8.81075 5.20019 8.86545 5.25489C8.928 5.30179 8.97488 5.41121 9.02178 5.55971L10.3349 10.7338L11.5541 5.55971C11.5932 5.40339 11.6401 5.30179 11.7026 5.25489C11.7652 5.20799 11.8746 5.17674 12.0153 5.17674H12.6405C12.789 5.17674 12.8906 5.20019 12.9531 5.25489C13.0157 5.30179 13.0704 5.41121 13.1017 5.55971L14.3365 10.7963L15.6887 5.55971C15.7356 5.40339 15.7903 5.30179 15.845 5.25489C15.9076 5.20799 16.0091 5.17674 16.1498 5.17674H16.8767C17.0018 5.17674 17.0721 5.23926 17.0721 5.37214C17.0721 5.41121 17.0643 5.45029 17.0565 5.49719C17.0486 5.54409 17.033 5.60661 17.0018 5.69259L15.1181 11.7342C15.0712 11.8906 15.0166 11.9922 14.954 12.0391C14.8915 12.0859 14.7899 12.1172 14.657 12.1172H13.9848C13.8363 12.1172 13.7348 12.0938 13.6722 12.0391C13.6097 11.9843 13.555 11.8827 13.5237 11.7264L12.3123 6.68519L11.1086 11.7186C11.0695 11.8749 11.0226 11.9765 10.9601 12.0312C10.8976 12.0859 10.7882 12.1094 10.6475 12.1094H9.97532ZM20.0187 12.3204C19.6122 12.3204 19.2058 12.2735 18.8151 12.1797C18.4243 12.0859 18.1194 11.9843 17.9162 11.8671C17.7912 11.7968 17.7052 11.7186 17.6739 11.6483C17.6427 11.5779 17.627 11.4998 17.627 11.4294V11.0308C17.627 10.8667 17.6896 10.7885 17.8068 10.7885C17.8537 10.7885 17.9006 10.7963 17.9475 10.812C17.9944 10.8276 18.0647 10.8589 18.1429 10.8901C18.4086 11.0074 18.6978 11.1012 19.0026 11.1637C19.3152 11.2262 19.6201 11.2575 19.9327 11.2575C20.4251 11.2575 20.8081 11.1715 21.0738 10.9995C21.3396 10.8276 21.4802 10.5775 21.4802 10.257C21.4802 10.0382 21.4099 9.85844 21.2692 9.70994C21.1285 9.56144 20.8628 9.42856 20.4798 9.30351L19.3465 8.95179C18.776 8.77204 18.3539 8.50629 18.096 8.15459C17.8381 7.81069 17.7052 7.42771 17.7052 7.02129C17.7052 6.69301 17.7755 6.40381 17.9162 6.15371C18.0569 5.90361 18.2445 5.68476 18.479 5.51281C18.7134 5.33306 18.9792 5.20019 19.2918 5.10639C19.6044 5.01261 19.9327 4.97351 20.2766 4.97351C20.4485 4.97351 20.6283 4.98134 20.8003 5.00479C20.98 5.02824 21.1442 5.05949 21.3083 5.09076C21.4646 5.12984 21.6131 5.16891 21.7538 5.21581C21.8945 5.26271 22.0039 5.30961 22.0821 5.35651C22.1915 5.41904 22.2696 5.48156 22.3165 5.55189C22.3634 5.61441 22.3869 5.70039 22.3869 5.80981V6.17716C22.3869 6.34129 22.3243 6.42726 22.2071 6.42726C22.1446 6.42726 22.043 6.39601 21.9101 6.33349C21.4646 6.13026 20.9644 6.02866 20.4095 6.02866C19.964 6.02866 19.6122 6.09901 19.37 6.24751C19.1277 6.39601 19.0026 6.62266 19.0026 6.94311C19.0026 7.16196 19.0808 7.34954 19.2371 7.49804C19.3934 7.64654 19.6826 7.79504 20.0968 7.92791L21.2067 8.27964C21.7694 8.45939 22.1758 8.70951 22.4181 9.02996C22.6604 9.35041 22.7777 9.71774 22.7777 10.1242C22.7777 10.4603 22.7073 10.7651 22.5745 11.0308C22.4338 11.2965 22.2462 11.531 22.0039 11.7186C21.7616 11.914 21.4724 12.0547 21.1364 12.1563C20.7847 12.2657 20.4173 12.3204 20.0187 12.3204Z" fill="white"/>
<path d="M21.496 16.1188C18.9246 18.0181 15.1886 19.0263 11.9763 19.0263C7.47435 19.0263 3.41793 17.3615 0.354108 14.5947C0.111818 14.3759 0.330661 14.0789 0.619848 14.2508C3.93378 16.1735 8.02145 17.3381 12.2499 17.3381C15.1026 17.3381 18.2368 16.7441 21.1208 15.5248C21.5507 15.3294 21.9181 15.8062 21.496 16.1188ZM22.5668 14.8996C22.2385 14.4775 20.3939 14.6963 19.5576 14.7979C19.3075 14.8292 19.2685 14.6104 19.4951 14.4462C20.9645 13.4145 23.3796 13.7115 23.661 14.0554C23.9423 14.4072 23.5828 16.8223 22.2072 17.979C21.9962 18.1588 21.793 18.065 21.8868 17.8305C22.1994 17.0567 22.895 15.3138 22.5668 14.8996Z" fill="white"/>
</svg>
